<svg width="24" height="24" viewBox="0 0 24 24" xmlns="http://www.w3.org/2000/svg"><path d="M14.3424 12L23.5152 2.8272C24.1616 2.1808 24.1616 1.1312 23.5152 0.4848C22.8688 -0.1616 21.8192 -0.1616 21.1728 0.4848L12 9.6576L2.8272 0.4848C2.1808 -0.1616 1.1312 -0.1616 0.4848 0.4848C-0.1616 1.1312 -0.1616 2.1808 0.4848 2.8272L9.6576 12L0.4848 21.1728C-0.1616 21.8192 -0.1616 22.8688 0.4848 23.5152C1.1312 24.1616 2.1808 24.1616 2.8272 23.5152L12 14.3424L21.1728 23.5152C21.8192 24.1616 22.8688 24.1616 23.5152 23.5152C24.1616 22.8688 24.1616 21.8192 23.5152 21.1728L14.3424 12Z"/></svg>