<svg width="28" height="28" viewBox="0 0 28 28" xmlns="http://www.w3.org/2000/svg"><path d="M13.9688 10.2812C13.9688 9.81525 14.3465 9.4375 14.8125 9.4375H19.875C20.341 9.4375 20.7188 9.81525 20.7188 10.2812C20.7188 10.7473 20.341 11.125 19.875 11.125H14.8125C14.3465 11.125 13.9688 10.7473 13.9688 10.2812Z"/><path d="M8.0625 13.6562C7.59651 13.6562 7.21875 14.034 7.21875 14.5C7.21875 14.966 7.59651 15.3438 8.0625 15.3438H19.875C20.341 15.3438 20.7188 14.966 20.7188 14.5C20.7188 14.034 20.341 13.6562 19.875 13.6562H8.0625Z"/><path d="M7.21875 18.7188C7.21875 18.2527 7.59651 17.875 8.0625 17.875H19.875C20.341 17.875 20.7188 18.2527 20.7188 18.7188C20.7188 19.1848 20.341 19.5625 19.875 19.5625H8.0625C7.59651 19.5625 7.21875 19.1848 7.21875 18.7188Z"/><path fill-rule="evenodd" clip-rule="evenodd" d="M10.6026 1H20.7188C23.0487 1 24.9375 2.8888 24.9375 5.21875V23.7812C24.9375 26.1112 23.0487 28 20.7188 28H7.21875C4.8888 28 3 26.1112 3 23.7812V10.2812C3 10.0896 3.06521 9.90376 3.18489 9.75416M4.6875 11.125V23.7812C4.6875 25.1793 5.82078 26.3125 7.21875 26.3125H20.7188C22.1167 26.3125 23.25 25.1793 23.25 23.7812V5.21875C23.25 3.82078 22.1167 2.6875 20.7188 2.6875H11.4375V8.59375C11.4375 9.99176 10.3042 11.125 8.90625 11.125H4.6875Z"/></svg>