<svg width="93" height="82" viewBox="0 0 93 82" fill="none" xmlns="http://www.w3.org/2000/svg">
<path fill-rule="evenodd" clip-rule="evenodd" d="M52.281 61.507C53.1113 61.507 53.8801 61.8453 54.4645 62.3989C55.018 62.9832 55.3563 63.752 55.3563 64.5824C55.3563 65.4127 55.018 66.1815 54.4645 66.7659C53.8801 67.3194 53.1113 67.6577 52.281 67.6577H15.3768C11.2865 67.6577 7.38084 66.0278 4.49001 63.1677C1.62994 60.2769 0 56.3712 0 52.281V15.3768C0 11.2865 1.62994 7.38084 4.49001 4.49001C7.38084 1.62994 11.2865 0 15.3768 0H76.8838C80.974 0 84.8797 1.62994 87.7705 4.49001C90.6306 7.38084 92.2605 11.2865 92.2605 15.3768V49.2056C92.2605 50.036 91.9222 50.8048 91.3687 51.3891C90.7844 51.9427 90.0155 52.281 89.1852 52.281C88.3548 52.281 87.586 51.9427 87.0017 51.3891C86.4481 50.8048 86.1098 50.036 86.1098 49.2056V20.3449L53.0189 36.9039C53.0035 36.9039 52.9882 36.9116 52.9728 36.9193C52.9574 36.927 52.942 36.9347 52.9267 36.9347C50.8047 37.9188 48.4674 38.4108 46.1301 38.3801C43.7929 38.4108 41.4556 37.9188 39.3336 36.9347C39.3182 36.9347 39.3029 36.927 39.2875 36.9193C39.2721 36.9116 39.2567 36.9039 39.2414 36.9039L6.1507 20.345V52.281C6.1507 54.7412 7.13481 57.0785 8.85701 58.8007C10.5792 60.5229 12.9165 61.507 15.3768 61.507H52.281ZM50.2819 31.3683L85.9313 13.5728C85.5751 11.7927 84.6977 10.1512 83.4035 8.85701C81.6813 7.13481 79.344 6.1507 76.8838 6.1507H15.3768C12.9165 6.1507 10.5792 7.13481 8.85701 8.85701C7.56279 10.1512 6.68539 11.7928 6.32925 13.5729L41.9784 31.3683C43.2701 31.9834 44.6847 32.2601 46.1301 32.2294C47.5756 32.2601 48.9902 31.9834 50.2819 31.3683ZM73.8085 72.5476L66.7659 65.4743C66.1816 64.9207 65.4128 64.5824 64.5824 64.5824C63.7521 64.5824 62.9832 64.9207 62.3989 65.4743C61.8454 66.0586 61.5071 66.8274 61.5071 67.6578C61.5071 68.4881 61.8454 69.257 62.3989 69.8413L73.8085 81.2201L91.3687 63.6906C91.9223 63.1063 92.2606 62.3374 92.2606 61.5071C92.2606 60.6767 91.9223 59.9079 91.3687 59.3236C90.7844 58.77 90.0156 58.4317 89.1852 58.4317C88.3549 58.4317 87.5861 58.77 87.0017 59.3236L73.8085 72.5476Z" fill="#699FFF"/>
</svg>
