<?xml version="1.0" encoding="utf-8"?><svg viewBox="0 0 93 82" xmlns="http://www.w3.org/2000/svg" xmlns:xlink="http://www.w3.org/1999/xlink"><style>:root>svg{display:none}:root>svg:target{display:block}</style><svg viewBox="0 0 24 24" id="arrow-type-1" xmlns="http://www.w3.org/2000/svg"><path fill-rule="evenodd" clip-rule="evenodd" d="M8.455 21.6l9.158-8.701a1.238 1.238 0 000-1.798L8.455 2.4a1.462 1.462 0 00-2.01 0 1.427 1.427 0 000 2.071l7.67 7.288a.33.33 0 010 .481l-7.67 7.288a1.427 1.427 0 000 2.072 1.46 1.46 0 002.01 0z"/></svg><svg viewBox="0 0 24 24" id="checked" xmlns="http://www.w3.org/2000/svg"><path fill-rule="evenodd" clip-rule="evenodd" d="M2.667 0h18.666C22.813 0 24 1.2 24 2.667v18.666A2.666 2.666 0 0121.333 24H2.667C1.187 24 0 22.8 0 21.333V2.667A2.666 2.666 0 012.667 0zm0 12l6.666 6.667 12-12-1.88-1.894-10.12 10.12-4.786-4.773L2.667 12z"/></svg><svg viewBox="0 0 24 24" id="close" xmlns="http://www.w3.org/2000/svg"><path d="M14.342 12l9.173-9.173A1.657 1.657 0 0021.173.485L12 9.658 2.827.485A1.657 1.657 0 00.485 2.827L9.658 12 .485 21.173a1.657 1.657 0 002.342 2.342L12 14.342l9.173 9.173a1.657 1.657 0 002.342-2.342L14.342 12z"/></svg><svg viewBox="0 0 28 28" id="document" xmlns="http://www.w3.org/2000/svg"><path d="M13.969 10.281c0-.466.378-.844.844-.844h5.062a.844.844 0 110 1.688h-5.063a.844.844 0 01-.843-.844zM8.063 13.656a.844.844 0 000 1.688h11.812a.844.844 0 000-1.688H8.062zM7.219 18.719c0-.466.378-.844.843-.844h11.813a.844.844 0 110 1.688H8.062a.844.844 0 01-.843-.844z"/><path fill-rule="evenodd" clip-rule="evenodd" d="M10.603 1h10.116a4.219 4.219 0 014.218 4.219V23.78A4.219 4.219 0 0120.72 28h-13.5A4.219 4.219 0 013 23.781v-13.5c0-.191.065-.377.185-.527m1.502 1.371v12.656a2.531 2.531 0 002.532 2.532h13.5a2.531 2.531 0 002.531-2.532V5.22a2.531 2.531 0 00-2.531-2.532h-9.282v5.907a2.531 2.531 0 01-2.53 2.531h-4.22z"/></svg><svg fill="none" viewBox="0 0 93 82" id="email" xmlns="http://www.w3.org/2000/svg"><path fill-rule="evenodd" clip-rule="evenodd" d="M52.281 61.507c.83 0 1.6.338 2.184.892.553.584.891 1.353.891 2.183 0 .83-.338 1.6-.892 2.184a3.176 3.176 0 01-2.183.892H15.377c-4.09 0-7.996-1.63-10.887-4.49A15.487 15.487 0 010 52.28V15.377C0 11.287 1.63 7.38 4.49 4.49A15.487 15.487 0 0115.377 0h61.507c4.09 0 7.996 1.63 10.886 4.49a15.487 15.487 0 014.49 10.887v33.829c0 .83-.338 1.599-.891 2.183a3.176 3.176 0 01-2.184.892c-.83 0-1.599-.338-2.183-.892a3.176 3.176 0 01-.892-2.183V20.345L53.019 36.904c-.015 0-.03.008-.046.015a.11.11 0 01-.046.016 15.709 15.709 0 01-6.797 1.445 15.709 15.709 0 01-6.796-1.445c-.016 0-.031-.008-.047-.016a.11.11 0 00-.046-.015L6.151 20.345v31.936c0 2.46.984 4.797 2.706 6.52a9.217 9.217 0 006.52 2.706H52.28zm-2-30.139l35.65-17.795a9.232 9.232 0 00-2.528-4.716 9.217 9.217 0 00-6.52-2.706H15.378c-2.46 0-4.798.984-6.52 2.706a9.232 9.232 0 00-2.528 4.716l35.65 17.795c1.291.615 2.706.892 4.151.861 1.446.031 2.86-.246 4.152-.86zm23.527 41.18l-7.042-7.074a3.176 3.176 0 00-2.184-.892c-.83 0-1.599.339-2.183.892a3.176 3.176 0 00-.892 2.184c0 .83.338 1.599.892 2.183l11.41 11.38 17.56-17.53a3.176 3.176 0 00.892-2.184c0-.83-.339-1.6-.892-2.183a3.176 3.176 0 00-2.184-.892c-.83 0-1.599.338-2.183.892L73.808 72.548z" fill="#699FFF"/></svg><svg viewBox="0 0 30 30" id="menu-open" xmlns="http://www.w3.org/2000/svg"><path d="M6 10h18v2H6v-2zM6 14h13v2H6v-2zM6 18h18v2H6v-2z"/></svg><svg viewBox="0 0 24 24" id="pdf" xmlns="http://www.w3.org/2000/svg"><path d="M15.03 13.566c-.743-.828-1.477-1.752-2.137-2.584-.311-.393-.61-.768-.888-1.109l-.02-.025c.408-1.162.641-2.113.693-2.827.132-1.82-.071-2.992-.62-3.583-.372-.4-.93-.54-1.454-.363-.376.126-.885.464-1.176 1.355-.433 1.328-.223 3.68 1.01 5.626-.55 1.44-1.317 3.094-2.164 4.67-1.612.565-2.897 1.308-3.819 2.21-1.205 1.175-1.695 2.343-1.344 3.201.216.532.715.85 1.335.85.432 0 .899-.156 1.35-.45 1.141-.746 2.631-3.232 3.43-4.672 1.654-.516 3.286-.727 4.115-.807.376-.037.748-.065 1.107-.085 1.452 1.533 2.64 2.341 3.734 2.543.22.041.44.062.655.062.892 0 1.628-.356 1.972-.951.26-.45.254-.975-.014-1.441-.607-1.05-2.44-1.63-5.159-1.63-.196 0-.398.004-.607.01zM5.04 19.38c-.216.141-.438.225-.594.225a.266.266 0 01-.062-.006c-.027-.138.071-.733 1.036-1.676.453-.443 1.026-.847 1.704-1.204-.856 1.377-1.626 2.361-2.085 2.661zM10.74 4.86c.1-.309.226-.448.303-.474l.005-.002c.075.085.394.568.251 2.539-.025.343-.108.778-.25 1.294-.46-1.187-.587-2.506-.309-3.357zm2.467 8.825a23.45 23.45 0 00-3.103.511 43.6 43.6 0 001.307-2.854l.398.5c.452.57.96 1.21 1.486 1.835l-.088.008zm6.39 2.193c.02.036.02.05.014.06-.058.1-.32.26-.777.26-.127 0-.263-.013-.403-.04-.57-.105-1.235-.499-2.027-1.201 2.15.103 3.018.62 3.192.921z"/></svg><svg viewBox="0 0 24 24" id="phone" xmlns="http://www.w3.org/2000/svg"><path d="M20.582 15.887a.381.381 0 00-.067-.055l-4.629-3.158a1.433 1.433 0 00-1.821.17l-.992.992a5.366 5.366 0 01-2.901-2.901l.992-.992a1.434 1.434 0 00.17-1.821L8.17 3.488a.377.377 0 00-.054-.067 1.434 1.434 0 00-2.15.137L3.282 7.036a1.446 1.446 0 00-.137 1.492l.43.89A23.756 23.756 0 0014.58 20.424l.89.43a1.44 1.44 0 001.502-.143l3.469-2.675a1.44 1.44 0 00.555-1.044 1.422 1.422 0 00-.415-1.104zm-.696 1.427l-3.463 2.67a.538.538 0 01-.552.052l-.89-.43A22.898 22.898 0 014.401 9.025l-.43-.89a.533.533 0 01.046-.544l2.676-3.469a.51.51 0 01.378-.201h.034c.125 0 .244.045.338.128l3.134 4.592a.518.518 0 01-.061.659l-1.202 1.202a.453.453 0 00-.107.476 6.282 6.282 0 003.826 3.825c.164.058.35.019.476-.106l1.202-1.202a.518.518 0 01.659-.061l4.591 3.13a.507.507 0 01.126.375.532.532 0 01-.202.375z"/></svg><svg viewBox="0 0 24 24" id="phone-type-2" xmlns="http://www.w3.org/2000/svg"><path d="M17.878 14.52a.272.272 0 00-.048-.04l-3.311-2.26a1.025 1.025 0 00-1.303.123l-.71.71a3.838 3.838 0 01-2.075-2.076l.71-.71c.348-.349.399-.897.121-1.303L9 5.65a.27.27 0 00-.04-.048 1.026 1.026 0 00-1.539.098L5.503 8.187c-.229.31-.266.72-.098 1.068l.308.637a16.995 16.995 0 007.873 7.873l.637.308a1.03 1.03 0 001.074-.103l2.482-1.914a1.03 1.03 0 00.397-.747c.02-.294-.088-.58-.297-.79zm-.498 1.02l-2.477 1.91a.385.385 0 01-.395.038l-.637-.308a16.382 16.382 0 01-7.568-7.57l-.307-.637a.381.381 0 01.032-.388l1.914-2.482a.365.365 0 01.271-.144h.024c.09 0 .175.032.242.091l2.242 3.285a.37.37 0 01-.044.472l-.86.86a.324.324 0 00-.076.34 4.494 4.494 0 002.737 2.737.328.328 0 00.34-.076l.86-.86a.37.37 0 01.472-.044l3.285 2.24a.362.362 0 01.09.268.38.38 0 01-.145.269z"/><path fill-rule="evenodd" clip-rule="evenodd" d="M14.519 12.22l3.31 2.26c.018.01.034.024.049.04a1.03 1.03 0 01-.1 1.537l-2.482 1.913a1.031 1.031 0 01-1.074.103l-.637-.308a16.995 16.995 0 01-7.873-7.873l-.308-.637a1.035 1.035 0 01.098-1.068L7.421 5.7a1.026 1.026 0 011.539-.098.27.27 0 01.039.048l2.263 3.315c.277.406.227.954-.122 1.303l-.71.71a3.838 3.838 0 002.076 2.075l.71-.709c.347-.35.895-.4 1.303-.122zm-2.079.474l.563-.562a1.326 1.326 0 011.684-.16l3.308 2.258a.57.57 0 01.095.077c.27.27.41.641.384 1.022a1.33 1.33 0 01-.512.964l-2.487 1.918a1.33 1.33 0 01-1.383.132l-.638-.308a17.295 17.295 0 01-8.012-8.012l-.308-.638a1.335 1.335 0 01.127-1.376l.004-.005 1.918-2.487c.232-.303.585-.49.964-.514h.003c.378-.023.75.114 1.022.386a.574.574 0 01.077.095l2.261 3.311a1.326 1.326 0 01-.158 1.684l-.563.564a3.535 3.535 0 001.652 1.651zM7.942 6.103L6.028 8.584a.381.381 0 00-.033.389l.308.637a16.381 16.381 0 007.568 7.57l.637.308c.129.06.28.048.395-.037l2.477-1.91a.38.38 0 00.145-.269.363.363 0 00-.09-.268l-3.285-2.24a.37.37 0 00-.471.044l-.86.86a.328.328 0 01-.34.076 4.494 4.494 0 01-2.738-2.737.324.324 0 01.076-.34l.86-.86a.37.37 0 00.044-.472L8.479 6.05a.368.368 0 00-.242-.091h-.024a.365.365 0 00-.27.144zm.283.156a.066.066 0 00-.045.027L6.268 8.764a.082.082 0 00-.002.08l.307.636a16.082 16.082 0 007.428 7.43m0 0l.636.307c.03.014.062.01.086-.007l2.472-1.905a.08.08 0 00.03-.055c0-.012 0-.021-.003-.029l-3.241-2.209a.072.072 0 00-.09.008l-.86.86a.628.628 0 01-.652.147h-.002a4.794 4.794 0 01-2.918-2.918.624.624 0 01.146-.654l.86-.86a.07.07 0 00.009-.09L8.262 6.264a.064.064 0 00-.025-.005h-.012"/></svg></svg>