<svg width="24" height="24" viewBox="0 0 24 24" xmlns="http://www.w3.org/2000/svg"><path d="M15.0291 13.566C14.2867 12.7384 13.5534 11.8137 12.8932 10.9817C12.5818 10.5887 12.2838 10.2137 12.0052 9.87316L11.9847 9.84829C12.3927 8.68603 12.626 7.7349 12.6781 7.02057C12.8103 5.2008 12.607 4.02867 12.0573 3.43787C11.6859 3.03808 11.1283 2.89877 10.6038 3.07518C10.228 3.20107 9.71934 3.53851 9.42847 4.42964C8.99514 5.75806 9.2051 8.11062 10.4372 10.0563C9.88746 11.496 9.12103 13.1504 8.27449 14.7255C6.66232 15.2906 5.37731 16.0338 4.455 16.9352C3.25011 18.1112 2.76034 19.2786 3.11079 20.1374C3.32667 20.6694 3.82591 20.9867 4.44592 20.9867C4.87768 20.9867 5.34456 20.8308 5.79644 20.5364C6.93739 19.7905 8.42723 17.3053 9.22641 15.8652C10.8796 15.349 12.5119 15.1379 13.3415 15.0578C13.7168 15.0215 14.0894 14.9927 14.4481 14.9725C15.9001 16.5058 17.0876 17.3144 18.1816 17.5161C18.4018 17.5571 18.622 17.5777 18.8371 17.5777C19.7286 17.5777 20.4655 17.2221 20.8092 16.6265C21.0685 16.1766 21.0634 15.6517 20.7946 15.186C20.1876 14.1351 18.3556 13.5565 15.636 13.5565C15.4403 13.5569 15.2382 13.5597 15.0291 13.566ZM5.03948 19.3801C4.82361 19.521 4.60181 19.605 4.44552 19.605C4.41593 19.605 4.3958 19.6019 4.38435 19.5991C4.35712 19.4614 4.455 18.8658 5.41993 17.923C5.873 17.4802 6.44604 17.0761 7.12446 16.7185C6.26845 18.0958 5.49808 19.0805 5.03948 19.3801ZM10.7411 4.85864C10.8417 4.55041 10.9665 4.4111 11.0442 4.38505C11.0462 4.38465 11.0478 4.38386 11.0493 4.38347C11.1243 4.46793 11.4432 4.95059 11.3003 6.92151C11.2755 7.26526 11.1918 7.69978 11.0509 8.21599C10.59 7.02886 10.4633 5.70991 10.7411 4.85864ZM13.2081 13.6836C12.4733 13.7542 11.354 13.8998 10.1053 14.1954C10.5896 13.2285 11.0379 12.2486 11.4124 11.3405C11.5423 11.5031 11.6753 11.67 11.8102 11.8409C12.2621 12.4104 12.7696 13.0505 13.2957 13.6757L13.2081 13.6836ZM19.5972 15.8771C19.6177 15.9126 19.6173 15.9268 19.6122 15.9363C19.5542 16.0369 19.2918 16.1968 18.8351 16.1968C18.7077 16.1968 18.5719 16.1837 18.4318 16.1577C17.8619 16.0523 17.1973 15.6584 16.4052 14.956C18.5545 15.0586 19.4232 15.5767 19.5972 15.8771Z"/></svg>