<svg width="24" height="24" viewBox="0 0 24 24" xmlns="http://www.w3.org/2000/svg"><path d="M20.5817 15.8866C20.5603 15.8653 20.539 15.847 20.5145 15.8317L15.8863 12.674C15.3157 12.2865 14.5499 12.3567 14.0648 12.8448L13.0733 13.8364C11.7553 13.2872 10.718 12.2499 10.1719 10.935L11.1635 9.94342C11.6516 9.45527 11.7218 8.68947 11.3343 8.12201L8.17048 3.48768C8.15523 3.46327 8.13692 3.44191 8.11556 3.42056C7.82267 3.12766 7.41994 2.97817 7.00806 3.00258C6.59617 3.03004 6.21481 3.23141 5.96462 3.55786L3.2829 7.03586C2.96255 7.4691 2.91069 8.04266 3.14561 8.52777L3.57579 9.41865C5.88847 14.2025 9.79662 18.1109 14.5805 20.4234L15.4714 20.8536C15.6728 20.9512 15.8863 21 16.103 21C16.4081 21 16.7132 20.9024 16.9725 20.7102L20.4415 18.0345C20.768 17.7813 20.9693 17.4029 20.9968 16.9911C21.0243 16.5792 20.8746 16.1795 20.5817 15.8866ZM19.886 17.3145L16.4233 19.9841C16.2616 20.1031 16.0511 20.1214 15.8711 20.036L14.9802 19.6058C10.3855 17.3786 6.62669 13.6199 4.40247 9.02497L3.97229 8.13409C3.88686 7.95408 3.90517 7.74357 4.01805 7.59103L6.69372 4.12202C6.78525 4.00303 6.91949 3.92981 7.07204 3.92066H7.1056C7.23069 3.92066 7.34968 3.96643 7.44427 4.0488L10.5776 8.64057C10.718 8.84498 10.6936 9.12263 10.5166 9.29957L9.31454 10.5016C9.18945 10.6267 9.14674 10.8128 9.20776 10.9776C9.8454 12.7716 11.2428 14.1658 13.0337 14.8035C13.1985 14.8615 13.3846 14.8218 13.5097 14.6968L14.7117 13.4947C14.8887 13.3177 15.1663 13.2933 15.3707 13.4337L19.9625 16.5639C20.054 16.6676 20.0968 16.7988 20.0876 16.9392C20.0754 17.0856 20.0052 17.2199 19.8862 17.3144L19.886 17.3145Z"/></svg>