<svg width="24" height="24" viewBox="0 0 24 24" xmlns="http://www.w3.org/2000/svg"><path d="M17.878 14.5193C17.8627 14.504 17.8474 14.4909 17.83 14.48L14.5189 12.2209C14.1107 11.9437 13.5628 11.9939 13.2158 12.3431L12.5064 13.0525C11.5635 12.6596 10.8215 11.9175 10.4308 10.9768L11.1401 10.2674C11.4894 9.91821 11.5396 9.37035 11.2624 8.96438L8.99893 5.64894C8.98802 5.63148 8.97492 5.6162 8.95964 5.60092C8.7501 5.39138 8.46199 5.28443 8.16732 5.30189C7.87266 5.32154 7.59983 5.4656 7.42084 5.69915L5.50231 8.18734C5.27314 8.49728 5.23603 8.90761 5.40409 9.25466L5.71185 9.89201C7.36636 13.3145 10.1623 16.1105 13.5847 17.7649L14.2221 18.0726C14.3661 18.1425 14.5189 18.1774 14.6739 18.1774C14.8922 18.1774 15.1104 18.1076 15.296 17.9701L17.7777 16.0559C18.0113 15.8747 18.1553 15.604 18.175 15.3094C18.1946 15.0147 18.0875 14.7288 17.878 14.5193ZM17.3803 15.5408L14.903 17.4506C14.7874 17.5357 14.6368 17.5488 14.508 17.4877L13.8706 17.18C10.5836 15.5867 7.89449 12.8976 6.30326 9.61036L5.99551 8.97302C5.93439 8.84424 5.94749 8.69364 6.02825 8.58451L7.94245 6.10275C8.00793 6.01762 8.10396 5.96524 8.2131 5.9587H8.23711C8.3266 5.9587 8.41172 5.99144 8.47939 6.05037L10.721 9.33536C10.8214 9.4816 10.804 9.68023 10.6774 9.80682L9.8174 10.6668C9.72791 10.7563 9.69735 10.8894 9.741 11.0073C10.1972 12.2907 11.1969 13.2882 12.4781 13.7444C12.596 13.7859 12.7291 13.7575 12.8186 13.668L13.6786 12.808C13.8052 12.6814 14.0038 12.664 14.15 12.7644L17.435 15.0038C17.5005 15.078 17.5311 15.1718 17.5245 15.2723C17.5158 15.377 17.4655 15.4731 17.3803 15.5408Z"/><path fill-rule="evenodd" clip-rule="evenodd" d="M14.5188 12.2208L17.8299 14.4799C17.8474 14.4908 17.8627 14.5039 17.878 14.5192C18.0875 14.7288 18.1946 15.0147 18.1749 15.3093C18.1553 15.604 18.0112 15.8747 17.7777 16.0558L15.2959 17.97C15.1104 18.1075 14.8921 18.1774 14.6739 18.1774C14.5189 18.1774 14.3661 18.1424 14.222 18.0726L13.5847 17.7648C10.1623 16.1105 7.36634 13.3144 5.71183 9.89197L5.40407 9.25462C5.23601 8.90757 5.27312 8.49724 5.50229 8.18729L7.42082 5.69911C7.5998 5.46556 7.87264 5.3215 8.1673 5.30185C8.46197 5.28439 8.75008 5.39134 8.95962 5.60088C8.9749 5.61615 8.98799 5.63143 8.99891 5.6489L11.2623 8.96434C11.5395 9.37031 11.4893 9.91816 11.1401 10.2674L10.4307 10.9768C10.8214 11.9174 11.5635 12.6596 12.5064 13.0524L13.2158 12.3431C13.5628 11.9938 14.1107 11.9436 14.5188 12.2208ZM12.4405 12.6941L13.003 12.1316C13.0031 12.1315 13.0028 12.1317 13.003 12.1316C13.4529 11.6792 14.1613 11.6154 14.6874 11.9727L17.9951 14.2295C18.0349 14.2551 18.066 14.283 18.0901 14.3071C18.3609 14.5779 18.4997 14.9484 18.4743 15.3293C18.4489 15.7096 18.2628 16.0592 17.9616 16.2929L15.4746 18.2111C15.2373 18.387 14.9563 18.4774 14.6739 18.4774C14.4731 18.4774 14.2756 18.432 14.0913 18.3426C14.0913 18.3426 14.0914 18.3427 14.0913 18.3426L13.4543 18.035C9.97089 16.3512 7.12568 13.5059 5.44173 10.0225L5.13407 9.38537C4.91788 8.93866 4.96523 8.40904 5.26107 8.00893L5.26467 8.00407L7.1827 5.51662C7.1828 5.51649 7.1826 5.51675 7.1827 5.51662C7.41515 5.21354 7.76826 5.02779 8.14735 5.00252L8.14955 5.00237C8.52819 4.97993 8.90045 5.11745 9.17175 5.38874C9.19586 5.41286 9.2237 5.44391 9.24935 5.48366L11.5101 8.79517C11.5101 8.79517 11.5101 8.79516 11.5101 8.79517C11.8685 9.32016 11.8036 10.0282 11.3522 10.4795L10.789 11.0428C11.137 11.7648 11.7165 12.3444 12.4405 12.6941ZM7.94242 6.10271L6.02823 8.58447C5.94747 8.6936 5.93437 8.8442 5.99549 8.97298L6.30324 9.61032C7.89447 12.8975 10.5835 15.5866 13.8706 17.1799L14.508 17.4877C14.6367 17.5488 14.7873 17.5357 14.903 17.4506L17.3803 15.5407C17.4654 15.4731 17.5158 15.377 17.5245 15.2722C17.5311 15.1718 17.5005 15.078 17.435 15.0037L14.15 12.7643C14.0038 12.6639 13.8052 12.6814 13.6786 12.808L12.8186 13.668C12.7291 13.7575 12.596 13.7858 12.4781 13.7444C11.1968 13.2881 10.1972 12.2907 9.74098 11.0072C9.69733 10.8894 9.72789 10.7562 9.81738 10.6667L10.6773 9.80678C10.8039 9.68019 10.8214 9.48156 10.721 9.33532L8.47937 6.05033C8.4117 5.9914 8.32658 5.95866 8.23709 5.95866H8.21308C8.10394 5.9652 8.0079 6.01758 7.94242 6.10271ZM8.22536 6.25866C8.20739 6.26102 8.19262 6.26949 8.18021 6.28562L6.26846 8.76421C6.25752 8.78014 6.25093 8.81094 6.26622 8.84373C6.26632 8.84394 6.26612 8.84353 6.26622 8.84373L6.57327 9.47961C8.135 12.7059 10.7748 15.3458 14.0011 16.9098M14.0011 16.9098L14.6366 17.2167C14.6368 17.2168 14.6364 17.2166 14.6366 17.2167C14.6663 17.2305 14.6986 17.2276 14.7234 17.2102L17.1948 15.3049C17.2133 15.2898 17.2229 15.2711 17.2253 15.2499C17.2258 15.2383 17.2244 15.229 17.2216 15.2213L13.981 13.0122C13.9536 12.9934 13.9147 12.9961 13.8907 13.0201L13.0307 13.8801C13.0307 13.8801 13.0307 13.8801 13.0307 13.8801C12.8577 14.0531 12.6027 14.1062 12.3785 14.0274L12.3775 14.027C11.012 13.5408 9.94562 12.4772 9.45888 11.1093C9.37456 10.8791 9.43567 10.6242 9.60524 10.4546L10.4652 9.59464C10.4893 9.57061 10.4925 9.5326 10.4737 9.50512L8.26168 6.26355C8.25346 6.26016 8.24518 6.25866 8.23709 6.25866H8.22536"/></svg>