<svg width="346" height="139" viewBox="0 0 346 139" fill="none" xmlns="http://www.w3.org/2000/svg">
<path d="M336.789 77.9525C331.702 77.9525 327.579 73.8288 327.579 68.742C327.579 63.6552 331.702 59.5315 336.789 59.5315C341.876 59.5315 346 63.6552 346 68.742C346 73.8288 341.876 77.9525 336.789 77.9525Z" fill="#699FFF"/>
<path d="M265.793 72.0313C263.976 72.0313 262.503 70.5586 262.503 68.7419C262.503 66.9251 263.976 65.4524 265.793 65.4524C267.609 65.4524 269.082 66.9251 269.082 68.7419C269.082 70.5586 267.609 72.0313 265.793 72.0313Z" fill="#699FFF"/>
<path d="M216.246 72.0313C214.429 72.0313 212.956 70.5586 212.956 68.7419C212.956 66.9251 214.429 65.4524 216.246 65.4524C218.063 65.4524 219.535 66.9251 219.535 68.7419C219.535 70.5586 218.063 72.0313 216.246 72.0313Z" fill="#699FFF"/>
<path d="M167.611 72.0313C165.794 72.0313 164.322 70.5586 164.322 68.7419C164.322 66.9251 165.794 65.4524 167.611 65.4524C169.428 65.4524 170.9 66.9251 170.9 68.7419C170.9 70.5586 169.428 72.0313 167.611 72.0313Z" fill="#699FFF"/>
<path d="M120.479 72.0313C118.662 72.0313 117.189 70.5586 117.189 68.7419C117.189 66.9251 118.662 65.4524 120.479 65.4524C122.296 65.4524 123.768 66.9251 123.768 68.7419C123.768 70.5586 122.296 72.0313 120.479 72.0313Z" fill="#699FFF"/>
<path d="M68.6682 72.0313C66.8515 72.0313 65.3787 70.5586 65.3787 68.7419C65.3787 66.9251 66.8515 65.4524 68.6682 65.4524C70.4849 65.4524 71.9576 66.9251 71.9576 68.7419C71.9576 70.5586 70.4849 72.0313 68.6682 72.0313Z" fill="#699FFF"/>
<path d="M9.3515 77.9525C4.26468 77.9525 0.140994 73.8288 0.140995 68.742C0.140995 63.6552 4.26468 59.5315 9.3515 59.5315C14.4383 59.5315 18.562 63.6552 18.562 68.742C18.562 73.8288 14.4383 77.9525 9.3515 77.9525Z" fill="#699FFF"/>
<path d="M9.12351 73.347C6.58009 73.347 4.51825 71.2851 4.51825 68.7417C4.51825 66.1983 6.58009 64.1365 9.12351 64.1365C11.6669 64.1365 13.7288 66.1983 13.7288 68.7417C13.7288 71.2851 11.6669 73.347 9.12351 73.347Z" fill="white"/>
<path fill-rule="evenodd" clip-rule="evenodd" d="M13.7291 68.7421H334.631V69.3569H13.7291V68.7421Z" fill="#699FFF"/>
<path d="M105.657 26.2779V41.2972C105.657 41.8576 105.203 42.314 104.64 42.314C104.08 42.314 103.623 41.8598 103.623 41.2972L103.626 26.2779C103.626 25.7176 104.08 25.2611 104.642 25.2611C105.203 25.2634 105.657 25.7176 105.657 26.2779ZM108.915 25.2634C108.355 25.2634 107.898 25.7176 107.898 26.2802V41.2995C107.898 41.8598 108.353 42.3162 108.915 42.3162C109.476 42.3162 109.932 41.8621 109.932 41.2995V26.2779C109.932 25.7175 109.478 25.2634 108.915 25.2634ZM113.19 25.2634C112.63 25.2634 112.173 25.7176 112.173 26.2802V41.2995C112.173 41.8598 112.628 42.3162 113.19 42.3162C113.751 42.3162 114.207 41.8621 114.207 41.2995L114.205 26.2779C114.207 25.7175 113.751 25.2634 113.19 25.2634ZM117.465 25.2634C116.905 25.2634 116.449 25.7176 116.449 26.2802V41.2995C116.449 41.8598 116.903 42.3162 117.465 42.3162C118.026 42.3162 118.482 41.8621 118.482 41.2995L118.48 26.2779C118.48 25.7175 118.026 25.2634 117.465 25.2634ZM121.74 25.2634C121.18 25.2634 120.724 25.7176 120.724 26.2802V41.2995C120.724 41.8598 121.178 42.3162 121.74 42.3162C122.301 42.3162 122.757 41.8621 122.757 41.2995L122.755 26.2779C122.755 25.7175 122.301 25.2634 121.74 25.2634ZM126.015 33.6352C126.576 33.6352 127.032 33.181 127.032 32.6184V26.2781C127.032 25.7177 126.578 25.2613 126.015 25.2613C125.455 25.2613 124.999 25.7155 124.999 26.2781V32.6184C125.001 33.181 125.455 33.6352 126.015 33.6352ZM130.29 31.579C130.851 31.579 131.307 31.1248 131.307 30.5622V26.2782C131.307 25.7178 130.853 25.2614 130.29 25.2614C129.73 25.2614 129.274 25.7155 129.274 26.2782V30.5622C129.274 31.1226 129.73 31.579 130.29 31.579ZM144.019 35.6236V41.7921C144.019 41.826 144.017 41.8599 144.015 41.8938C143.545 46.5891 140.497 49.9874 134.959 52.0009C134.846 52.0393 134.728 52.0597 134.611 52.0597C134.493 52.0597 134.376 52.0393 134.265 51.9987C130.989 50.8101 128.584 49.1358 127.068 46.9916H97.9543C97.3939 46.9916 96.9375 46.5374 96.9375 45.9748V40.8727C96.9375 40.5089 97.1318 40.1745 97.4459 39.9938L99.3055 38.9205V28.6554L97.4482 27.5844C97.1341 27.4036 96.9398 27.067 96.9398 26.7032V21.6011C96.9398 21.0408 97.3939 20.5844 97.9565 20.5844H109.053L113.618 16.0201C113.15 15.3016 112.879 14.4452 112.879 13.5256C112.879 11.0559 114.275 10.1792 115.294 9.53975C115.963 9.11947 116.433 8.82346 116.621 8.15917H113.627C113.288 8.15917 112.974 7.99197 112.784 7.71178L110.798 4.76988C110.685 4.60268 110.624 4.40384 110.624 4.20273L110.622 1.01679C110.622 0.45642 111.076 0 111.638 0H123.295C123.855 0 124.312 0.45417 124.312 1.01679V4.20725C124.312 4.4106 124.251 4.60719 124.138 4.77439L122.154 7.7163C121.967 7.99648 121.65 8.16369 121.311 8.16369H118.688C118.428 9.97132 117.255 10.7079 116.372 11.2638C115.459 11.8377 114.908 12.1834 114.908 13.5279C114.908 13.8826 114.98 14.2193 115.111 14.5266L116.747 12.8907C116.937 12.7009 117.197 12.5925 117.466 12.5925C117.734 12.5925 117.994 12.6987 118.184 12.8907L119.82 14.5266C119.951 14.2193 120.023 13.8826 120.023 13.5279C120.023 12.9675 120.477 12.5111 121.04 12.5111C121.6 12.5111 122.057 12.9653 122.057 13.5279C122.057 14.4475 121.783 15.3039 121.318 16.0224L125.882 20.5867H136.981C137.542 20.5867 137.998 21.0408 137.998 21.6035V26.7055C137.998 27.0693 137.804 27.4037 137.49 27.5867L135.633 28.6577L135.626 31.0619L143.432 34.702C143.792 34.8692 144.02 35.2285 144.02 35.6239L144.019 35.6236ZM114.162 6.13227H120.769L122.276 3.89532V2.03117H112.652V3.89532L114.162 6.13227ZM116.582 15.9317C116.857 16.0333 117.153 16.0898 117.465 16.0898C117.775 16.0898 118.073 16.0334 118.349 15.9317L117.465 15.0482L116.582 15.9317ZM111.925 20.5886H123.003L119.86 17.4456C119.162 17.8749 118.342 18.1234 117.465 18.1234C116.588 18.1234 115.768 17.8749 115.07 17.4456L111.925 20.5886ZM125.957 44.9601C125.568 44.0089 125.317 42.9853 125.206 41.8917C125.202 41.8578 125.202 41.8239 125.202 41.79V35.6238C125.202 35.2284 125.43 34.8691 125.789 34.7019L133.596 31.0617V28.0678C133.596 27.704 133.79 27.3696 134.104 27.1866L135.962 26.1156V22.6178H98.9709V26.1156L100.828 27.1866C101.142 27.3674 101.337 27.7041 101.337 28.0678V39.5077C101.337 39.8715 101.142 40.2059 100.828 40.3866L98.9687 41.4599V44.96L125.957 44.9601ZM141.988 36.2702L134.611 32.8289L127.233 36.2702V41.7383C127.631 45.5253 130.046 48.2162 134.611 49.9585C139.175 48.2142 141.59 45.523 141.988 41.7383V36.2702ZM131.344 40.5023C130.998 40.0617 130.359 39.9826 129.918 40.3283C129.477 40.674 129.398 41.3135 129.744 41.7541L132.304 45.0191C132.492 45.2586 132.778 45.401 133.081 45.4077H133.102C133.398 45.4077 133.682 45.2767 133.874 45.0507L139.449 38.523C139.812 38.0959 139.763 37.4542 139.336 37.0904C138.909 36.7266 138.267 36.7763 137.903 37.2034L133.135 42.7867L131.344 40.5023Z" fill="#699FFF"/>
<path d="M80.5084 93.9385C81.8242 93.9385 83.0109 93.1455 83.5137 91.929C84.0165 90.7126 83.7363 89.3133 82.8041 88.3851C81.8739 87.4549 80.4727 87.1786 79.2582 87.6854C78.0437 88.1903 77.2526 89.3789 77.2566 90.6947C77.2606 92.4876 78.7156 93.9385 80.5084 93.9385ZM80.5084 89.033C81.1802 89.033 81.7865 89.4385 82.0429 90.0586C82.3013 90.6788 82.1581 91.3943 81.6831 91.8694C81.2081 92.3444 80.4925 92.4875 79.8724 92.2292C79.2522 91.9727 78.8468 91.3665 78.8468 90.6947C78.8507 89.7784 79.5921 89.037 80.5084 89.033Z" fill="#699FFF"/>
<path d="M72.2402 112.106H69.5211C69.0819 112.106 68.7261 112.462 68.7261 112.901C68.7261 113.341 69.0819 113.696 69.5211 113.696H71.4451V115.78C71.4451 116.219 71.8009 116.575 72.2402 116.575C72.6795 116.575 73.0353 116.219 73.0353 115.78V112.901C73.0353 112.691 72.9518 112.488 72.8027 112.339C72.6536 112.19 72.451 112.106 72.2402 112.106Z" fill="#699FFF"/>
<path d="M90.9082 93.6841H87.1714C87.4974 92.7261 87.6961 91.7283 87.7677 90.7186C87.8333 88.7528 87.0979 86.8447 85.7304 85.4313C84.3629 84.0179 82.4806 83.219 80.5128 83.219C78.545 83.219 76.6627 84.018 75.2952 85.4313C73.9277 86.8445 73.1923 88.7526 73.2579 90.7186C73.3255 91.7283 73.5222 92.7261 73.8462 93.6841H58.891V89.3908C58.891 89.1801 58.8075 88.9774 58.6584 88.8283C58.5094 88.6792 58.3066 88.5957 58.0959 88.5957C54.8481 88.5997 52.2163 91.2314 52.2128 94.4789V123.491C52.2346 126.727 54.8603 129.338 58.0959 129.342H90.9077C91.1184 129.342 91.3211 129.259 91.4702 129.11C91.6193 128.961 91.7028 128.758 91.7028 128.547V94.4791C91.7028 94.2685 91.6193 94.0657 91.4702 93.9166C91.3211 93.7675 91.1184 93.6841 90.9077 93.6841L90.9082 93.6841ZM85.7008 107.518H78.3944C77.9552 107.518 77.5994 107.874 77.5994 108.313V111.494C77.5994 111.933 77.9552 112.289 78.3944 112.289C78.8337 112.289 79.1895 111.933 79.1895 111.494V109.108H85.701V114.046H83.3159C82.8766 114.046 82.5208 114.402 82.5208 114.841C82.5208 115.28 82.8766 115.636 83.3159 115.636H85.701V122.68H77.6233V115.636H79.9687C80.408 115.636 80.7638 115.28 80.7638 114.841C80.7638 114.402 80.408 114.046 79.9687 114.046H76.8282C76.389 114.046 76.0332 114.402 76.0332 114.841V122.68H73.0358V119.126C73.0358 118.687 72.68 118.331 72.2408 118.331C71.8015 118.331 71.4457 118.687 71.4457 119.126V122.648H63.3761V113.696H66.1429C66.5821 113.696 66.9379 113.34 66.9379 112.901C66.9379 112.461 66.5821 112.106 66.1429 112.106H63.3761V109.108H72.241C72.4517 109.108 72.6544 109.025 72.8035 108.876C72.9526 108.727 73.0361 108.524 73.0361 108.313V106.246C73.0361 105.807 72.6803 105.451 72.241 105.451C71.8018 105.451 71.446 105.807 71.446 106.246V107.518H63.3764V100.363H71.446V102.867C71.446 103.307 71.8018 103.662 72.241 103.662C72.6803 103.662 73.0361 103.307 73.0361 102.867V100.363H76.3515C77.0034 101.897 77.6872 103.44 78.3391 104.871C78.7267 105.722 79.5754 106.266 80.5096 106.266C81.4437 106.266 82.2925 105.722 82.6801 104.871C83.332 103.44 84.0157 101.897 84.6677 100.363H85.7012L85.7008 107.518ZM80.5091 85.0263C83.6377 85.0303 86.174 87.5665 86.1781 90.6952C86.0688 91.8739 85.8004 93.0307 85.383 94.1378C84.9219 95.5292 84.2699 97.2385 83.4431 99.2182C82.815 100.721 82.0995 102.398 81.2805 104.155C81.1513 104.44 80.8691 104.621 80.557 104.621C80.2449 104.621 79.9627 104.44 79.8335 104.155C77.9412 100.005 76.542 96.5784 75.7231 94.1299C75.7251 94.112 75.7251 94.0921 75.7231 94.0743C75.3037 92.9711 75.0353 91.8163 74.928 90.6396C74.9578 87.5647 77.4341 85.0736 80.5091 85.0263ZM57.3017 90.2337V117.663C55.958 117.85 54.7197 118.492 53.7955 119.484V94.479C53.7875 92.4039 55.2623 90.6174 57.3017 90.2337ZM90.1134 127.784H58.0965C55.7252 127.784 53.8032 125.862 53.8032 123.491C53.8032 121.12 55.7252 119.198 58.0965 119.198C58.3071 119.198 58.5099 119.114 58.659 118.965C58.808 118.816 58.8915 118.613 58.8915 118.403V95.2745H74.3393C74.7209 96.3716 75.1343 97.5642 75.675 98.7966H62.5806C62.1413 98.7966 61.7855 99.1524 61.7855 99.5916V123.475C61.7855 123.686 61.869 123.889 62.0181 124.038C62.1672 124.187 62.3699 124.27 62.5806 124.27H86.4959C86.7066 124.27 86.9093 124.187 87.0584 124.038C87.2075 123.889 87.2909 123.686 87.2909 123.475V99.5682C87.2909 99.3575 87.2075 99.1548 87.0584 99.0057C86.9093 98.8566 86.7066 98.7732 86.4959 98.7732H85.3271C85.8201 97.5408 86.2733 96.388 86.6549 95.251H90.1134L90.1134 127.784Z" fill="#699FFF"/>
<path d="M189.187 102.88C188.887 103.303 188.46 103.621 187.968 103.788L186.543 103.788C186.543 103.788 185.629 103.299 185.329 102.877C185.028 102.454 184.867 101.949 184.867 101.43C184.867 100.912 185.028 100.407 185.329 99.9844C185.629 99.562 186.054 99.2436 186.543 99.0733L186.543 98.0949L186.092 98.0949C185.933 98.0948 185.779 98.042 185.654 97.9447C185.529 97.8475 185.439 97.7113 185.4 97.5577L183.729 93.7501C183.702 93.6447 183.699 93.5345 183.722 93.4281C183.744 93.3216 183.79 93.2216 183.857 93.1357C183.923 93.0498 184.009 92.9803 184.107 92.9325C184.204 92.8847 184.312 92.8598 184.42 92.8599L190.146 92.8599C190.255 92.8599 190.362 92.8848 190.46 92.9327C190.557 92.9805 190.643 93.05 190.71 93.1359C190.776 93.2218 190.822 93.3217 190.845 93.4282C190.867 93.5346 190.864 93.6447 190.837 93.7501L189.111 97.5577C189.072 97.7114 188.983 97.8476 188.858 97.9449C188.732 98.0421 188.578 98.0949 188.42 98.0949L187.968 98.0949L187.968 99.5523C187.968 99.5729 187.962 99.5924 187.965 99.6125C187.968 99.6325 187.968 99.6526 187.968 99.6727C187.968 99.7664 187.95 99.8592 187.914 99.9458C187.878 100.032 187.826 100.111 187.759 100.177C187.693 100.244 187.614 100.296 187.528 100.332C187.441 100.368 187.348 100.386 187.255 100.386C187.067 100.386 186.884 100.441 186.727 100.544C186.571 100.646 186.447 100.792 186.372 100.964C186.297 101.135 186.273 101.325 186.304 101.51C186.335 101.694 186.419 101.866 186.546 102.004C186.672 102.142 186.837 102.24 187.018 102.286C187.2 102.332 187.391 102.324 187.568 102.263C187.745 102.202 187.901 102.091 188.016 101.943C188.131 101.795 188.201 101.617 188.216 101.43C188.214 101.335 188.23 101.24 188.265 101.152C188.3 101.063 188.352 100.982 188.418 100.914C188.485 100.845 188.564 100.791 188.652 100.754C188.74 100.717 188.834 100.698 188.93 100.698C189.025 100.698 189.119 100.717 189.207 100.754C189.295 100.791 189.374 100.845 189.441 100.914C189.507 100.982 189.559 101.063 189.594 101.152C189.629 101.24 189.646 101.335 189.643 101.43C189.648 101.95 189.488 102.457 189.187 102.88Z" fill="#699FFF"/>
<path d="M186.594 133.049C187.284 133.049 187.819 133.606 187.819 134.28C187.819 134.956 187.27 135.506 186.594 135.506C185.917 135.506 185.377 134.973 185.364 134.293C185.354 133.642 185.884 133.049 186.594 133.049Z" fill="#699FFF"/>
<path d="M160.792 133.049C161.481 133.049 162.017 133.605 162.017 134.28C162.017 134.956 161.467 135.506 160.792 135.506C160.114 135.506 159.574 134.973 159.561 134.293C159.551 133.638 160.083 133.049 160.792 133.049Z" fill="#699FFF"/>
<path d="M155.127 114.82C155.195 114.495 155.481 114.262 155.813 114.262L167.754 114.262C168.141 114.262 168.455 114.576 168.455 114.963L168.455 128.618L192.963 128.618C193.313 128.618 193.59 128.879 193.642 129.215L195.178 129.215C195.565 129.215 195.879 129.528 195.879 129.916L195.879 130.184L196.943 130.184C197.33 130.184 197.644 130.497 197.644 130.885L197.644 133.16C197.644 133.547 197.33 133.86 196.943 133.86L193.643 133.86C193.591 134.197 193.313 134.458 192.963 134.458L190.464 134.458C190.424 135.33 190.1 136.128 189.576 136.758L196.051 136.758C196.438 136.758 196.751 137.071 196.751 137.458C196.751 137.846 196.438 138.159 196.051 138.159L154.001 138.159C153.613 138.159 153.3 137.846 153.3 137.458C153.3 137.071 153.613 136.758 154.001 136.758L157.807 136.758C157.283 136.128 156.959 135.33 156.919 134.458L153.823 134.458C153.435 134.458 153.122 134.144 153.122 133.757L153.122 124.456C153.122 124.407 153.127 124.36 153.137 124.312L155.127 114.82ZM196.242 131.585L195.178 131.585C194.791 131.585 194.478 131.272 194.478 130.885L194.478 130.616L193.663 130.616L193.663 132.459L196.242 132.459L196.242 131.585ZM189.071 134.281C189.071 132.929 187.994 131.798 186.594 131.798C185.195 131.798 184.117 132.938 184.117 134.281C184.117 135.647 185.228 136.758 186.594 136.758C187.96 136.758 189.071 135.647 189.071 134.281ZM164.658 134.458C164.619 135.33 164.294 136.128 163.77 136.758L183.613 136.758C183.089 136.128 182.764 135.33 182.725 134.458L164.658 134.458ZM163.266 134.281C163.266 132.93 162.188 131.798 160.789 131.798C159.388 131.798 158.312 132.94 158.312 134.281C158.312 135.647 159.423 136.758 160.789 136.758C162.155 136.758 163.266 135.647 163.266 134.281ZM154.524 133.056L157.108 133.056C157.605 131.527 159.096 130.396 160.789 130.396C162.502 130.396 163.975 131.541 164.469 133.056L182.914 133.056C183.406 131.549 184.887 130.396 186.594 130.396C188.29 130.396 189.781 131.533 190.275 133.056L192.262 133.056L192.262 130.02L167.754 130.02C167.366 130.02 167.053 129.706 167.053 129.319L167.053 115.664L156.382 115.664L154.524 124.529L154.524 133.056Z" fill="#699FFF"/>
<path d="M157.622 116.529L165.371 116.529C165.758 116.529 166.071 116.843 166.071 117.23L166.071 123.886C166.071 124.273 165.758 124.587 165.371 124.587L156.375 124.587C156.37 124.587 156.365 124.587 156.362 124.587C155.974 124.587 155.661 124.273 155.661 123.886C155.661 123.793 155.679 123.704 155.711 123.622L156.934 117.101C156.995 116.769 157.285 116.529 157.622 116.529ZM164.67 123.185L164.67 117.931L158.204 117.931L157.22 123.185L164.67 123.185Z" fill="#699FFF"/>
<path d="M162.38 125.964L165.371 125.964C165.758 125.964 166.071 126.278 166.071 126.665C166.071 127.053 165.758 127.366 165.371 127.366L162.38 127.366C161.993 127.366 161.68 127.053 161.68 126.665C161.68 126.278 161.993 125.964 162.38 125.964Z" fill="#699FFF"/>
<path d="M173.703 124.581C173.316 124.581 173.003 124.268 173.003 123.88L173.003 106.872C173.003 106.484 173.316 106.171 173.703 106.171L200.571 106.171C200.958 106.171 201.272 106.484 201.272 106.872L201.272 123.88C201.272 124.268 200.958 124.581 200.571 124.581L173.703 124.581ZM199.87 107.572L174.404 107.572L174.404 123.18L199.87 123.18L199.87 107.572Z" fill="#699FFF"/>
<path d="M195.927 109.177C196.314 109.177 196.628 109.491 196.628 109.878L196.628 120.874C196.628 121.261 196.314 121.575 195.927 121.575C195.54 121.575 195.226 121.261 195.226 120.874L195.226 109.878C195.226 109.491 195.54 109.177 195.927 109.177Z" fill="#699FFF"/>
<path d="M191.532 109.177C191.919 109.177 192.233 109.491 192.233 109.878L192.233 120.874C192.233 121.261 191.919 121.575 191.532 121.575C191.145 121.575 190.831 121.261 190.831 120.874L190.831 109.878C190.831 109.491 191.145 109.177 191.532 109.177Z" fill="#699FFF"/>
<path d="M187.138 109.177C187.525 109.177 187.839 109.491 187.839 109.878L187.839 120.874C187.839 121.261 187.525 121.575 187.138 121.575C186.751 121.575 186.437 121.261 186.437 120.874L186.437 109.878C186.437 109.491 186.751 109.177 187.138 109.177Z" fill="#699FFF"/>
<path d="M182.742 109.177C183.129 109.177 183.443 109.491 183.443 109.878L183.443 120.874C183.443 121.261 183.129 121.575 182.742 121.575C182.355 121.575 182.042 121.261 182.042 120.874L182.042 109.878C182.042 109.491 182.355 109.177 182.742 109.177Z" fill="#699FFF"/>
<path d="M178.348 109.177C178.735 109.177 179.048 109.491 179.048 109.878L179.048 120.874C179.048 121.261 178.735 121.575 178.348 121.575C177.96 121.575 177.647 121.261 177.647 120.874L177.647 109.878C177.647 109.491 177.96 109.177 178.348 109.177Z" fill="#699FFF"/>
<path fill-rule="evenodd" clip-rule="evenodd" d="M187.21 102.522L177.575 106.536C177.307 106.648 177.18 106.956 177.292 107.224C177.403 107.492 177.711 107.618 177.979 107.507L187.229 103.653L197.406 107.513C197.677 107.616 197.981 107.479 198.084 107.208C198.187 106.937 198.05 106.633 197.779 106.53L187.21 102.522Z" fill="#699FFF"/>
<path d="M208.558 31.8589C207.872 31.8589 207.341 32.4125 207.341 33.0825C207.341 33.7539 207.887 34.3001 208.558 34.3001C209.231 34.3001 209.768 33.7709 209.781 33.0955C209.79 32.4484 209.264 31.8589 208.558 31.8589Z" fill="#699FFF"/>
<path d="M234.202 31.8589C233.517 31.8589 232.984 32.4117 232.984 33.0825C232.984 33.7539 233.53 34.3001 234.202 34.3001C234.875 34.3001 235.412 33.7709 235.425 33.0948C235.434 32.4443 234.906 31.8589 234.202 31.8589Z" fill="#699FFF"/>
<path d="M239.83 13.7417C239.763 13.4192 239.479 13.188 239.149 13.188H227.282C226.897 13.188 226.585 13.4995 226.585 13.8845V27.4548H202.229C201.881 27.4548 201.605 27.7142 201.553 28.0479H200.027C199.642 28.0479 199.33 28.3594 199.33 28.7444V29.011H198.273C197.889 29.011 197.577 29.3225 197.577 29.7075V31.9684C197.577 32.3534 197.889 32.6649 198.273 32.6649H201.553C201.605 32.9989 201.881 33.2587 202.229 33.2587H204.712C204.752 34.125 205.074 34.9184 205.595 35.5441H199.16C198.775 35.5441 198.463 35.8557 198.463 36.2406C198.463 36.6256 198.775 36.9371 199.16 36.9371H240.95C241.335 36.9371 241.647 36.6256 241.647 36.2406C241.647 35.8557 241.335 35.5441 240.95 35.5441H237.167C237.688 34.9184 238.01 34.125 238.05 33.2587H241.127C241.512 33.2587 241.823 32.9472 241.823 32.5622V23.3186C241.823 23.2703 241.819 23.2227 241.808 23.1757L239.83 13.7417ZM198.97 30.404H200.027C200.411 30.404 200.723 30.0925 200.723 29.7075V29.4409H201.532V31.2719H198.97V30.404ZM206.096 33.0826C206.096 31.7397 207.167 30.6149 208.558 30.6149C209.948 30.6149 211.019 31.7482 211.019 33.0826C211.019 34.4402 209.915 35.5441 208.558 35.5441C207.201 35.5441 206.096 34.4402 206.096 33.0826ZM230.358 33.2587C230.398 34.125 230.72 34.9184 231.241 35.5441H211.521C212.042 34.9184 212.364 34.125 212.403 33.2587H230.358ZM231.742 33.0826C231.742 31.74 232.814 30.6149 234.204 30.6149C235.596 30.6149 236.666 31.75 236.666 33.0826C236.666 34.4402 235.562 35.5441 234.204 35.5441C232.846 35.5441 231.742 34.4402 231.742 33.0826ZM240.43 31.8657H237.862C237.368 30.3459 235.886 29.2219 234.204 29.2219C232.502 29.2219 231.038 30.3601 230.547 31.8657H212.215C211.727 30.3682 210.255 29.2219 208.558 29.2219C206.872 29.2219 205.391 30.3522 204.9 31.8657H202.925V28.8478H227.282C227.667 28.8478 227.978 28.5362 227.978 28.1513V14.581H238.583L240.43 23.3907L240.43 31.8657Z" fill="#699FFF"/>
<path d="M237.351 15.4409H229.651C229.266 15.4409 228.954 15.7524 228.954 16.1374V22.7522C228.954 23.1372 229.266 23.4487 229.651 23.4487H238.59C238.596 23.4494 238.6 23.4494 238.604 23.4487C238.989 23.4487 239.3 23.1372 239.3 22.7522C239.3 22.6597 239.283 22.5712 239.25 22.4903L238.035 16.0089C237.974 15.6797 237.686 15.4409 237.351 15.4409ZM230.347 22.0557V16.8339H236.773L237.751 22.0557H230.347Z" fill="#699FFF"/>
<path d="M232.622 24.8176H229.651C229.266 24.8176 228.954 25.1291 228.954 25.5141C228.954 25.8991 229.266 26.2106 229.651 26.2106H232.622C233.007 26.2106 233.319 25.8991 233.319 25.5141C233.319 25.1291 233.007 24.8176 232.622 24.8176Z" fill="#699FFF"/>
<path d="M224.645 26.2109C225.03 26.2109 225.341 25.8994 225.341 25.5144V8.61057C225.341 8.22558 225.03 7.91406 224.645 7.91406H197.943C197.559 7.91406 197.247 8.22558 197.247 8.61057V25.5144C197.247 25.8994 197.559 26.2109 197.943 26.2109H224.645ZM198.64 9.30707H223.948V24.8179H198.64V9.30707Z" fill="#699FFF"/>
<path d="M202.559 10.9019C202.174 10.9019 201.862 11.2134 201.862 11.5984V22.5261C201.862 22.9111 202.174 23.2226 202.559 23.2226C202.943 23.2226 203.255 22.9111 203.255 22.5261V11.5984C203.255 11.2134 202.943 10.9019 202.559 10.9019Z" fill="#699FFF"/>
<path d="M206.926 10.9019C206.541 10.9019 206.23 11.2134 206.23 11.5984V22.5261C206.23 22.9111 206.541 23.2226 206.926 23.2226C207.311 23.2226 207.623 22.9111 207.623 22.5261V11.5984C207.623 11.2134 207.311 10.9019 206.926 10.9019Z" fill="#699FFF"/>
<path d="M211.295 10.9019C210.91 10.9019 210.598 11.2134 210.598 11.5984V22.5261C210.598 22.9111 210.91 23.2226 211.295 23.2226C211.679 23.2226 211.991 22.9111 211.991 22.5261V11.5984C211.991 11.2134 211.679 10.9019 211.295 10.9019Z" fill="#699FFF"/>
<path d="M215.662 10.9019C215.277 10.9019 214.965 11.2134 214.965 11.5984V22.5261C214.965 22.9111 215.277 23.2226 215.662 23.2226C216.046 23.2226 216.358 22.9111 216.358 22.5261V11.5984C216.358 11.2134 216.046 10.9019 215.662 10.9019Z" fill="#699FFF"/>
<path d="M220.03 10.9019C219.645 10.9019 219.333 11.2134 219.333 11.5984V22.5261C219.333 22.9111 219.645 23.2226 220.03 23.2226C220.414 23.2226 220.726 22.9111 220.726 22.5261V11.5984C220.726 11.2134 220.414 10.9019 220.03 10.9019Z" fill="#699FFF"/>
<path d="M240.951 40.2468H199.16C198.776 40.2468 198.464 40.5583 198.464 40.9433C198.464 41.3283 198.776 41.6398 199.16 41.6398H240.951C241.335 41.6398 241.647 41.3283 241.647 40.9433C241.647 40.5583 241.335 40.2468 240.951 40.2468Z" fill="#699FFF"/>
<path d="M224.055 39.2023C224.44 39.2023 224.752 38.8908 224.752 38.5058C224.752 38.1208 224.44 37.8093 224.055 37.8093H216.055C215.671 37.8093 215.359 38.1208 215.359 38.5058C215.359 38.8908 215.671 39.2023 216.055 39.2023H224.055Z" fill="#699FFF"/>
<path d="M199.16 39.2023H206.464C206.848 39.2023 207.16 38.8908 207.16 38.5058C207.16 38.1208 206.848 37.8093 206.464 37.8093H199.16C198.776 37.8093 198.464 38.1208 198.464 38.5058C198.464 38.8908 198.776 39.2023 199.16 39.2023Z" fill="#699FFF"/>
<path d="M240.95 37.8093H233.647C233.262 37.8093 232.951 38.1208 232.951 38.5058C232.951 38.8908 233.262 39.2023 233.647 39.2023H240.95C241.335 39.2023 241.647 38.8908 241.647 38.5058C241.647 38.1208 241.335 37.8093 240.95 37.8093Z" fill="#699FFF"/>
<path d="M280.741 134.941H253.479C253.082 134.941 252.762 134.619 252.762 134.225V125.659C252.762 123.549 254.115 121.724 256.128 121.112L264.65 118.064L265.478 115.445C265.598 115.068 266 114.858 266.378 114.977C266.756 115.096 266.966 115.499 266.846 115.877L265.91 118.836C265.842 119.05 265.679 119.22 265.467 119.295L256.593 122.468C256.581 122.472 256.569 122.476 256.558 122.48C255.146 122.903 254.196 124.181 254.196 125.657V133.506H280.739C281.136 133.506 281.456 133.828 281.456 134.223C281.458 134.619 281.136 134.941 280.741 134.941Z" fill="#699FFF"/>
<path d="M280.742 122.001C280.661 122.001 280.58 121.988 280.501 121.959L273.039 119.294C272.831 119.219 272.667 119.053 272.597 118.841L271.63 115.884C271.607 115.813 271.596 115.736 271.596 115.66C271.596 115.264 271.917 114.942 272.312 114.942C272.644 114.942 272.923 115.165 273.006 115.472L273.854 118.061L280.984 120.608C281.358 120.741 281.553 121.152 281.418 121.525C281.312 121.818 281.034 122.001 280.742 122.001Z" fill="#699FFF"/>
<path d="M269.262 123.462C269.07 123.462 268.885 123.385 268.75 123.246L264.713 119.121C264.436 118.838 264.442 118.383 264.725 118.106C265.008 117.828 265.463 117.834 265.74 118.117L269.262 121.718L272.784 118.117C273.062 117.834 273.516 117.828 273.8 118.106C274.083 118.383 274.089 118.838 273.811 119.121L269.775 123.246C269.64 123.383 269.455 123.462 269.262 123.462Z" fill="#699FFF"/>
<path d="M269.263 117.006C264.515 117.006 260.654 113.145 260.654 108.397V100.506C260.654 100.109 260.976 99.7888 261.371 99.7888H277.154C277.551 99.7888 277.871 100.111 277.871 100.506V108.397C277.871 113.143 274.01 117.006 269.263 117.006ZM262.088 101.222V108.397C262.088 112.353 265.305 115.572 269.263 115.572C273.218 115.572 276.438 112.355 276.438 108.397V101.222H262.088Z" fill="#699FFF"/>
<path d="M277.154 101.222H261.37C261.228 101.222 261.091 101.18 260.972 101.101L258.82 99.6653C258.621 99.5324 258.5 99.3089 258.5 99.0681V96.1993C258.5 95.9546 258.623 95.7272 258.829 95.5962L268.873 89.1398C269.11 88.9876 269.412 88.9876 269.649 89.1398L279.693 95.5962C279.899 95.7272 280.022 95.9545 280.022 96.1993V99.0681C280.022 99.3089 279.903 99.5324 279.703 99.6653L277.55 101.101C277.433 101.18 277.294 101.222 277.154 101.222ZM261.586 99.7867H276.936L278.588 98.6846V96.5903L269.262 90.5946L259.936 96.5903V98.6846L261.586 99.7867Z" fill="#699FFF"/>
<path d="M273.611 105.526H264.912C262.563 105.526 260.652 103.615 260.652 101.266V100.503C260.652 100.107 260.974 99.7867 261.369 99.7867H277.152C277.549 99.7867 277.869 100.108 277.869 100.503V101.266C277.871 103.615 275.96 105.526 273.611 105.526ZM262.088 101.222V101.266C262.088 102.823 263.356 104.091 264.912 104.091H273.611C275.168 104.091 276.436 102.823 276.436 101.266V101.222H262.088Z" fill="#699FFF"/>
<path d="M269.263 98.3511C268.076 98.3511 267.111 97.3859 267.111 96.199C267.111 95.0121 268.076 94.0469 269.263 94.0469C270.45 94.0469 271.415 95.0121 271.415 96.199C271.415 97.3859 270.45 98.3511 269.263 98.3511ZM269.263 95.4823C268.868 95.4823 268.546 95.804 268.546 96.199C268.546 96.5939 268.868 96.9157 269.263 96.9157C269.658 96.9157 269.979 96.5939 269.979 96.199C269.979 95.804 269.658 95.4823 269.263 95.4823Z" fill="#699FFF"/>
<path d="M272.131 125.614C271.981 125.614 271.829 125.568 271.702 125.471L269.263 123.641L266.823 125.471C266.531 125.691 266.122 125.654 265.872 125.39L261.147 120.385C260.876 120.096 260.889 119.643 261.176 119.372C261.465 119.1 261.918 119.113 262.19 119.4L266.473 123.94L268.831 122.171C269.085 121.98 269.436 121.98 269.692 122.171L272.039 123.93L276.166 119.36C276.432 119.065 276.885 119.042 277.179 119.308C277.474 119.574 277.497 120.027 277.231 120.321L272.665 125.377C272.523 125.533 272.328 125.614 272.131 125.614Z" fill="#699FFF"/>
<path d="M270.696 127.049H267.827C267.488 127.049 267.195 126.812 267.126 126.479L266.669 124.312C266.588 123.924 266.835 123.543 267.224 123.462C267.611 123.381 267.993 123.628 268.074 124.017L268.409 125.614H270.114L270.451 124.015C270.532 123.628 270.914 123.379 271.301 123.46C271.688 123.541 271.937 123.922 271.856 124.31L271.399 126.477C271.328 126.811 271.035 127.049 270.696 127.049Z" fill="#699FFF"/>
<path d="M272.132 134.941C271.791 134.941 271.49 134.698 271.427 134.351L269.991 126.46C269.92 126.07 270.178 125.697 270.569 125.625C270.958 125.554 271.332 125.812 271.403 126.203L272.839 134.095C272.91 134.484 272.652 134.858 272.261 134.929C272.216 134.937 272.174 134.941 272.132 134.941Z" fill="#699FFF"/>
<path d="M266.394 134.941C266.351 134.941 266.307 134.937 266.265 134.93C265.875 134.858 265.615 134.485 265.687 134.095L267.122 126.204C267.193 125.814 267.567 125.554 267.956 125.626C268.345 125.697 268.606 126.071 268.534 126.46L267.099 134.352C267.035 134.698 266.733 134.941 266.394 134.941Z" fill="#699FFF"/>
<path d="M280.742 127.049H277.873C277.476 127.049 277.156 126.728 277.156 126.333C277.156 125.936 277.478 125.616 277.873 125.616H280.742C281.138 125.616 281.458 125.938 281.458 126.333C281.458 126.728 281.137 127.049 280.742 127.049Z" fill="#699FFF"/>
<path d="M257.066 134.941C256.669 134.941 256.35 134.619 256.35 134.224V129.92C256.35 129.523 256.671 129.203 257.066 129.203C257.463 129.203 257.783 129.525 257.783 129.92V134.224C257.783 134.619 257.461 134.941 257.066 134.941Z" fill="#699FFF"/>
<path d="M280.742 134.941C280.345 134.941 280.025 134.619 280.025 134.224V129.92C280.025 129.523 280.347 129.203 280.742 129.203C281.139 129.203 281.459 129.525 281.459 129.92V134.224C281.459 134.619 281.137 134.941 280.742 134.941Z" fill="#699FFF"/>
<path d="M297.958 134.941H280.742C280.345 134.941 280.025 134.619 280.025 134.224L280.023 108.395C280.023 107.998 280.345 107.678 280.74 107.678H284.327C284.724 107.678 285.044 108 285.044 108.395C285.044 108.792 284.722 109.112 284.327 109.112H281.458V133.504H297.242V109.114H294.373C293.976 109.114 293.656 108.792 293.656 108.397C293.656 108 293.978 107.68 294.373 107.68H297.961C298.357 107.68 298.677 108.002 298.677 108.397V134.224C298.677 134.619 298.355 134.941 297.958 134.941Z" fill="#699FFF"/>
<path d="M294.371 110.547H284.327C283.93 110.547 283.61 110.225 283.61 109.83V106.962C283.61 106.565 283.932 106.245 284.327 106.245H294.371C294.768 106.245 295.088 106.567 295.088 106.962V109.83C295.089 110.227 294.768 110.547 294.371 110.547ZM285.046 109.114H293.654V107.678H285.046V109.114Z" fill="#699FFF"/>
<path d="M290.785 107.678H287.916C287.52 107.678 287.2 107.356 287.2 106.961V105.526C287.2 104.339 288.165 103.374 289.352 103.374C290.539 103.374 291.504 104.339 291.504 105.526V106.961C291.502 107.356 291.18 107.678 290.785 107.678ZM288.633 106.243H290.069V105.526C290.069 105.131 289.747 104.809 289.352 104.809C288.957 104.809 288.635 105.131 288.635 105.526L288.633 106.243Z" fill="#699FFF"/>
<path d="M284.537 117.63C284.354 117.63 284.169 117.56 284.03 117.42L283.015 116.404C282.736 116.125 282.736 115.67 283.015 115.389C283.294 115.109 283.749 115.109 284.03 115.389L284.537 115.896L286.059 114.373C286.338 114.094 286.793 114.094 287.074 114.373C287.354 114.653 287.354 115.108 287.074 115.389L285.046 117.42C284.905 117.56 284.722 117.63 284.537 117.63Z" fill="#699FFF"/>
<path d="M284.537 122.024C284.354 122.024 284.169 121.955 284.03 121.814L283.015 120.799C282.736 120.519 282.736 120.065 283.015 119.783C283.294 119.504 283.749 119.504 284.03 119.783L284.537 120.29L286.059 118.768C286.338 118.489 286.793 118.489 287.074 118.768C287.354 119.047 287.354 119.502 287.074 119.783L285.046 121.814C284.905 121.953 284.722 122.024 284.537 122.024Z" fill="#699FFF"/>
<path d="M284.537 126.329C284.354 126.329 284.169 126.259 284.03 126.119L283.015 125.103C282.736 124.824 282.736 124.369 283.015 124.088C283.294 123.808 283.749 123.808 284.03 124.088L284.537 124.595L286.059 123.072C286.338 122.793 286.793 122.793 287.074 123.072C287.354 123.352 287.354 123.807 287.074 124.088L285.046 126.119C284.905 126.259 284.722 126.329 284.537 126.329Z" fill="#699FFF"/>
<path d="M284.537 130.723C284.354 130.723 284.169 130.654 284.03 130.513L283.015 129.498C282.736 129.219 282.736 128.764 283.015 128.483C283.294 128.203 283.749 128.203 284.03 128.483L284.537 128.989L286.059 127.467C286.338 127.188 286.793 127.188 287.074 127.467C287.354 127.747 287.354 128.201 287.074 128.483L285.046 130.513C284.905 130.652 284.722 130.723 284.537 130.723Z" fill="#699FFF"/>
<path d="M295.089 116.287H289.349C288.952 116.287 288.633 115.965 288.633 115.57C288.633 115.173 288.954 114.854 289.349 114.854H295.089C295.486 114.854 295.806 115.175 295.806 115.57C295.806 115.965 295.484 116.287 295.089 116.287Z" fill="#699FFF"/>
<path d="M295.089 120.591H289.349C288.952 120.591 288.633 120.269 288.633 119.874C288.633 119.477 288.954 119.157 289.349 119.157H295.089C295.486 119.157 295.806 119.479 295.806 119.874C295.806 120.271 295.484 120.591 295.089 120.591Z" fill="#699FFF"/>
<path d="M295.089 124.897H289.349C288.952 124.897 288.633 124.575 288.633 124.18C288.633 123.784 288.954 123.464 289.349 123.464H295.089C295.486 123.464 295.806 123.786 295.806 124.18C295.806 124.575 295.484 124.897 295.089 124.897Z" fill="#699FFF"/>
<path d="M295.089 129.201H289.349C288.952 129.201 288.633 128.88 288.633 128.485C288.633 128.088 288.954 127.768 289.349 127.768H295.089C295.486 127.768 295.806 128.09 295.806 128.485C295.806 128.88 295.484 129.201 295.089 129.201Z" fill="#699FFF"/>
<path d="M336.789 73.347C334.246 73.347 332.184 71.2851 332.184 68.7417C332.184 66.1983 334.246 64.1365 336.789 64.1365C339.333 64.1365 341.394 66.1983 341.394 68.7417C341.394 71.2851 339.333 73.347 336.789 73.347Z" fill="white"/>
</svg>
