<svg width="46" height="28" viewBox="0 0 46 28" fill="none" xmlns="http://www.w3.org/2000/svg">
<path d="M45.6833 11.2096L39.2423 1.02144C38.6187 0.0397581 37.2444 -0.290863 36.1792 0.27882L33.7121 1.6013C33.1933 1.88105 32.8235 2.32866 32.6745 2.86274C32.5475 3.30018 32.5862 3.75287 32.7683 4.16487H32.117C31.5265 4.16487 31.0408 4.0428 30.5385 3.76304L28.9104 2.86274C28.1321 2.43548 27.3539 2.23711 26.4543 2.23711H22.2597C20.7971 2.23711 19.5222 2.78644 18.5839 3.82917L17.4083 5.1313C16.4535 5.29406 15.5704 5.15164 14.7094 4.68878L13.3517 3.96141C13.5228 3.12724 13.1199 2.24728 12.2809 1.79967L9.81384 0.472106C9.30055 0.197437 8.69343 0.121141 8.11944 0.258476C7.53992 0.400896 7.05423 0.736601 6.75619 1.21473L0.304215 11.4029C0.00617735 11.8759 -0.076611 12.4354 0.072408 12.9695C0.226946 13.5036 0.591215 13.9512 1.11002 14.2259L3.57711 15.5484C3.93034 15.7366 4.31669 15.8281 4.70304 15.8281C5.34879 15.8281 5.97798 15.5738 6.40848 15.1058L7.46817 16.1486L7.43505 16.1842C6.9604 16.7335 6.75067 17.4202 6.83898 18.117C6.92728 18.8189 7.30259 19.4446 7.89315 19.8769C8.41747 20.2584 9.04115 20.4466 9.66482 20.4466C9.68138 20.4466 9.69241 20.4466 9.70897 20.4466C9.72553 21.1994 10.0953 21.942 10.7852 22.4456C11.2819 22.8067 11.8835 23.0051 12.5072 23.0153C12.4907 23.8088 12.8604 24.5972 13.5835 25.1312C14.0912 25.5026 14.7094 25.7009 15.3496 25.7009C15.4545 25.7009 15.5538 25.6958 15.6587 25.6857C15.747 26.3469 16.1058 26.9776 16.7129 27.4303C17.2206 27.8016 17.8388 28 18.4845 28C18.5949 28 18.7053 27.9949 18.8157 27.9847C19.5773 27.9034 20.2562 27.5575 20.7253 27.0132L21.7906 25.7772L24.0203 27.2574C24.5115 27.5829 25.0855 27.7508 25.6816 27.7508C25.8361 27.7508 25.9907 27.7406 26.1507 27.7152C26.9014 27.6033 27.5637 27.2269 28.0107 26.6572C28.3529 26.2197 28.524 25.7213 28.5461 25.2177C28.7558 25.2279 28.9711 25.2177 29.1863 25.1872C29.9424 25.0753 30.5992 24.6989 31.0463 24.1292C31.3885 23.6918 31.5596 23.1882 31.5817 22.6897C32.531 22.7457 33.4913 22.3642 34.0874 21.6063C34.4296 21.1689 34.6007 20.6653 34.6227 20.1669C35.5665 20.2228 36.5269 19.8413 37.123 19.0834C37.57 18.5138 37.7466 17.822 37.6252 17.1252C37.5479 16.6979 37.3658 16.3062 37.0954 15.9705L39.1154 14.2106L39.3748 14.6226C39.7887 15.2788 40.5394 15.645 41.312 15.645C41.6929 15.645 42.0847 15.5534 42.438 15.3652L44.9051 14.0377C45.4183 13.763 45.7881 13.3154 45.9427 12.7813C46.0696 12.2422 45.9868 11.6877 45.6833 11.2096ZM4.43259 14.1903L1.9655 12.8678C1.84408 12.8017 1.75577 12.6949 1.72266 12.5677C1.68402 12.4405 1.7061 12.3083 1.77785 12.1964L8.2243 2.00822C8.29605 1.89631 8.41195 1.81493 8.54993 1.78441C8.59409 1.77424 8.64376 1.76915 8.68791 1.76915C8.78174 1.76915 8.87005 1.7895 8.95284 1.83528L11.4199 3.16284C11.6738 3.30018 11.7566 3.60028 11.6131 3.83425L5.54748 13.412C5.53644 13.4273 5.53092 13.4426 5.51988 13.4527L5.16665 14.0122C5.01763 14.2513 4.68648 14.3276 4.43259 14.1903ZM8.95284 18.6511C8.71551 18.4782 8.56649 18.2289 8.52786 17.9441C8.49474 17.6643 8.57753 17.3846 8.76518 17.1658L9.2288 16.6267C9.24536 16.6114 9.2564 16.5962 9.26743 16.5809L10.5424 15.1008C10.9342 14.643 11.6573 14.5667 12.154 14.9329C12.6397 15.2889 12.728 15.9451 12.3527 16.3978L10.5479 18.4883C10.1615 18.9359 9.44405 19.0122 8.95284 18.6511ZM11.6573 19.7345L11.8835 19.47C11.8891 19.4649 11.8891 19.4598 11.8946 19.4598L13.6773 17.3947C13.6883 17.3846 13.6938 17.3744 13.7049 17.3591L14.588 16.3368C14.7756 16.118 15.0516 15.9807 15.3551 15.9502C15.3993 15.9451 15.4434 15.9451 15.4876 15.9451C15.747 15.9451 15.9954 16.0265 16.1996 16.174C16.4369 16.3469 16.5859 16.6013 16.619 16.881C16.6522 17.1608 16.5694 17.4405 16.3762 17.6592C15.5042 18.6714 14.6266 19.6836 13.7546 20.6959C13.6497 20.8128 13.5504 20.9349 13.4455 21.0519C13.2578 21.2706 12.9874 21.4029 12.6838 21.4385C12.3803 21.469 12.0767 21.3927 11.8394 21.2198C11.3482 20.8535 11.2654 20.1923 11.6573 19.7345ZM14.6432 23.9003C14.1464 23.5392 14.0636 22.8729 14.461 22.4151C14.5714 22.2879 14.6763 22.1607 14.7867 22.0387L14.7922 22.0336C14.897 21.9115 15.0019 21.7945 15.1068 21.6724C15.8684 20.7874 16.6301 19.9075 17.3917 19.0224C17.5794 18.8037 17.8498 18.6664 18.1589 18.6307C18.2031 18.6257 18.2472 18.6257 18.2914 18.6257C18.5508 18.6257 18.7991 18.707 19.0033 18.8546C19.2407 19.0275 19.3897 19.2767 19.4283 19.5616C19.4614 19.8413 19.3787 20.1211 19.191 20.3398C18.2693 21.408 17.3421 22.4761 16.4203 23.5494L16.2603 23.7375C15.8574 24.1852 15.1344 24.2615 14.6432 23.9003ZM19.3787 26.0265C18.9868 26.4842 18.2638 26.5554 17.767 26.1943C17.2703 25.8281 17.1875 25.1618 17.5794 24.7091L19.3621 22.644C19.5497 22.4252 19.8202 22.2879 20.1293 22.2523C20.1734 22.2472 20.2176 22.2472 20.2617 22.2472C20.5211 22.2472 20.7695 22.3286 20.9737 22.4761C21.4704 22.8372 21.5477 23.5036 21.1558 23.9614L19.3787 26.0265ZM35.7156 18.1526C35.3458 18.6257 34.6283 18.7325 34.115 18.3917L33.4196 17.9288L27.376 13.9156C26.9952 13.6613 26.4598 13.7427 26.1839 14.0936C25.9079 14.4446 25.9962 14.938 26.377 15.1923L32.4206 19.2055C32.9339 19.5463 33.0498 20.2076 32.68 20.6806C32.3102 21.1536 31.5927 21.2604 31.0794 20.9197L30.384 20.4568C30.3785 20.4568 30.3785 20.4517 30.3729 20.4517L25.0359 16.9064C24.655 16.6521 24.1197 16.7335 23.8437 17.0845C23.5677 17.4354 23.6561 17.9288 24.0369 18.1831L29.396 21.7437C29.8983 22.0845 30.0087 22.7406 29.6444 23.2086C29.4678 23.4374 29.2029 23.585 28.8993 23.6307C28.5958 23.6765 28.2922 23.6104 28.0438 23.4476L27.3484 22.9848C27.3484 22.9848 27.3429 22.9848 27.3429 22.9797L25.1794 21.5402C24.7985 21.2859 24.2632 21.3673 23.9872 21.7182C23.7112 22.0692 23.7996 22.5626 24.1804 22.8169L26.355 24.2615C26.8627 24.6022 26.9786 25.2635 26.6144 25.7314C26.4377 25.9603 26.1673 26.1078 25.8637 26.1536C25.5602 26.1994 25.2566 26.1333 25.0083 25.9705L22.8006 24.5056C23.4132 23.412 23.1207 22.0336 22.0389 21.2452C21.6967 20.996 21.3049 20.823 20.8909 20.7365C21.0951 20.3144 21.1724 19.8515 21.1117 19.3785C21.0234 18.6765 20.6481 18.0509 20.0575 17.6185C19.5608 17.2523 18.9592 17.059 18.3355 17.0489C18.3355 16.9319 18.33 16.8149 18.319 16.6979C18.2307 16.0011 17.8609 15.3754 17.2648 14.938C16.321 14.2462 15.0516 14.1954 14.0692 14.7142C13.887 14.3276 13.6055 13.9766 13.2247 13.6969C11.9939 12.7966 10.1947 12.9848 9.21776 14.1191L8.5389 14.9024L7.33019 13.7121L12.6066 5.37545L13.8539 6.04177C14.5328 6.408 15.2448 6.6318 15.9733 6.71827L14.163 8.72234C13.7435 9.1852 13.6 9.76506 13.7546 10.35C13.9091 10.9299 14.3451 11.3927 14.9412 11.6165C17.2869 12.5016 19.6988 11.9878 21.2386 10.2737L21.7961 9.65316C21.8789 9.5616 21.9672 9.4497 22.061 9.3378C22.2762 9.06821 22.5743 8.70199 22.8558 8.52397C23.0545 8.3968 23.0986 8.42732 23.209 8.49853L35.3237 16.5911C35.3402 16.6013 35.3568 16.6114 35.3734 16.6216C35.3954 16.6419 35.423 16.6623 35.4506 16.6775C35.699 16.8403 35.8591 17.0845 35.9087 17.3642C35.9639 17.6491 35.8922 17.9288 35.7156 18.1526ZM35.7597 14.938L24.219 7.22692C23.496 6.7437 22.646 6.74879 21.8899 7.232C21.3821 7.55754 20.9903 8.04584 20.7033 8.3968C20.626 8.49345 20.5487 8.585 20.4935 8.64604L19.9306 9.26659C18.8488 10.467 17.2703 10.7925 15.5869 10.1567C15.4876 10.1211 15.4379 10.0652 15.4103 9.96852C15.3827 9.87187 15.4048 9.79558 15.471 9.72437L19.8864 4.82611C20.4991 4.14453 21.2993 3.80373 22.2542 3.80373H26.4488C27.0338 3.80373 27.5195 3.93089 28.0273 4.20556L29.6554 5.10587C30.4281 5.53313 31.2119 5.7315 32.1115 5.7315H33.7286L38.1992 12.8017L35.7597 14.938ZM44.2648 12.3744C44.2262 12.5016 44.1434 12.6084 44.0165 12.6745L41.5494 14.0021C41.2955 14.1394 40.9699 14.058 40.8208 13.8241L40.0481 12.5982C40.0316 12.5677 40.015 12.5423 39.993 12.5168L34.3799 3.63079C34.3081 3.51889 34.2916 3.38664 34.3247 3.25948C34.3633 3.13232 34.4461 3.02551 34.5731 2.95938L37.0402 1.6369C37.123 1.59113 37.2168 1.57078 37.3051 1.57078C37.4872 1.57078 37.6694 1.65725 37.7687 1.81493L44.2096 12.0031C44.2814 12.115 44.3035 12.2472 44.2648 12.3744Z" fill="white"/>
</svg>
