<svg width="155" height="48" viewBox="0 0 155 48" fill="none" xmlns="http://www.w3.org/2000/svg"><path d="M152.456 40.1869V47.1124H151.034V40.1869H152.456ZM154.587 40.1869V41.3047H148.936V40.1869H154.587Z" fill="white" fill-opacity="0.8"/><path d="M147.579 40.1869V47.1124H146.152L143.37 42.47V47.1124H141.943V40.1869H143.37L146.157 44.834V40.1869H147.579Z" fill="white" fill-opacity="0.8"/><path d="M140.428 45.9993V47.1124H136.742V45.9993H140.428ZM137.208 40.1869V47.1124H135.781V40.1869H137.208ZM139.948 43.0075V44.092H136.742V43.0075H139.948ZM140.424 40.1869V41.3047H136.742V40.1869H140.424Z" fill="white" fill-opacity="0.8"/><path d="M133.948 43.4927V46.2372C133.84 46.3672 133.674 46.5083 133.449 46.6605C133.224 46.8095 132.934 46.938 132.578 47.0458C132.223 47.1536 131.794 47.2075 131.289 47.2075C130.842 47.2075 130.435 47.1346 130.067 46.9887C129.699 46.8397 129.382 46.6224 129.116 46.3371C128.852 46.0517 128.65 45.7029 128.507 45.2906C128.364 44.8752 128.293 44.4012 128.293 43.8684V43.4356C128.293 42.9029 128.361 42.4288 128.497 42.0134C128.637 41.598 128.835 41.2476 129.092 40.9622C129.349 40.6768 129.655 40.4596 130.01 40.3106C130.365 40.1616 130.76 40.087 131.194 40.087C131.797 40.087 132.291 40.1853 132.678 40.3819C133.065 40.5754 133.36 40.8449 133.563 41.1905C133.769 41.533 133.896 41.9262 133.944 42.3701H132.559C132.525 42.1355 132.458 41.931 132.36 41.7566C132.261 41.5822 132.12 41.4458 131.936 41.3475C131.756 41.2492 131.521 41.2001 131.232 41.2001C130.995 41.2001 130.782 41.2492 130.595 41.3475C130.411 41.4426 130.256 41.5837 130.129 41.7708C130.002 41.9579 129.905 42.1894 129.839 42.4653C129.772 42.7412 129.739 43.0614 129.739 43.4261V43.8684C129.739 44.2299 129.774 44.5502 129.843 44.8293C129.913 45.1051 130.016 45.3382 130.153 45.5285C130.292 45.7155 130.463 45.8567 130.666 45.9518C130.869 46.0469 131.105 46.0945 131.375 46.0945C131.6 46.0945 131.787 46.0755 131.936 46.0374C132.088 45.9993 132.211 45.9534 132.303 45.8995C132.398 45.8424 132.471 45.7885 132.521 45.7377V44.5106H131.218V43.4927H133.948Z" fill="white" fill-opacity="0.8"/><path d="M124.134 41.3713L122.25 47.1124H120.733L123.306 40.1869H124.272L124.134 41.3713ZM125.699 47.1124L123.811 41.3713L123.658 40.1869H124.633L127.221 47.1124H125.699ZM125.613 44.5343V45.6521H121.955V44.5343H125.613Z" fill="white" fill-opacity="0.8"/><path d="M114.841 40.1869V47.1124H113.419V40.1869H114.841ZM116.972 40.1869V41.3047H111.321V40.1869H116.972Z" fill="white" fill-opacity="0.8"/><path d="M105.108 40.1869H107.69C108.22 40.1869 108.675 40.2662 109.056 40.4247C109.439 40.5833 109.734 40.8179 109.94 41.1287C110.146 41.4395 110.249 41.8216 110.249 42.275C110.249 42.646 110.186 42.9647 110.059 43.2311C109.935 43.4943 109.759 43.7146 109.531 43.8922C109.306 44.0666 109.041 44.2062 108.737 44.3108L108.285 44.5486H106.04L106.03 43.4356H107.7C107.95 43.4356 108.158 43.3912 108.323 43.3024C108.488 43.2136 108.612 43.09 108.694 42.9314C108.78 42.7729 108.822 42.5889 108.822 42.3797C108.822 42.1577 108.781 41.9658 108.699 41.8041C108.616 41.6424 108.491 41.5187 108.323 41.4331C108.155 41.3475 107.944 41.3047 107.69 41.3047H106.535V47.1124H105.108V40.1869ZM108.979 47.1124L107.4 44.0254L108.908 44.0159L110.506 47.0458V47.1124H108.979Z" fill="white" fill-opacity="0.8"/><path d="M103.398 43.4879V43.8161C103.398 44.3425 103.327 44.815 103.184 45.2336C103.042 45.6521 102.84 46.0089 102.58 46.3038C102.32 46.5955 102.009 46.819 101.648 46.9744C101.29 47.1298 100.892 47.2075 100.454 47.2075C100.02 47.2075 99.6217 47.1298 99.2602 46.9744C98.9019 46.819 98.5911 46.5955 98.3279 46.3038C98.0647 46.0089 97.8602 45.6521 97.7143 45.2336C97.5716 44.815 97.5003 44.3425 97.5003 43.8161V43.4879C97.5003 42.9584 97.5716 42.4859 97.7143 42.0705C97.857 41.6519 98.0584 41.2952 98.3184 41.0003C98.5816 40.7054 98.8924 40.4802 99.2507 40.3249C99.6122 40.1695 100.01 40.0918 100.445 40.0918C100.882 40.0918 101.28 40.1695 101.638 40.3249C102 40.4802 102.311 40.7054 102.571 41.0003C102.834 41.2952 103.037 41.6519 103.18 42.0705C103.325 42.4859 103.398 42.9584 103.398 43.4879ZM101.957 43.8161V43.4784C101.957 43.1106 101.924 42.7871 101.857 42.5081C101.791 42.229 101.692 41.9944 101.562 41.8041C101.432 41.6139 101.274 41.4712 101.087 41.376C100.9 41.2777 100.686 41.2286 100.445 41.2286C100.204 41.2286 99.9895 41.2777 99.8024 41.376C99.6185 41.4712 99.4615 41.6139 99.3315 41.8041C99.2047 41.9944 99.108 42.229 99.0414 42.5081C98.9748 42.7871 98.9415 43.1106 98.9415 43.4784V43.8161C98.9415 44.1808 98.9748 44.5042 99.0414 44.7864C99.108 45.0655 99.2063 45.3017 99.3363 45.4952C99.4663 45.6854 99.6249 45.8297 99.8119 45.928C99.999 46.0263 100.213 46.0755 100.454 46.0755C100.695 46.0755 100.909 46.0263 101.096 45.928C101.283 45.8297 101.44 45.6854 101.567 45.4952C101.694 45.3017 101.791 45.0655 101.857 44.7864C101.924 44.5042 101.957 44.1808 101.957 43.8161Z" fill="white" fill-opacity="0.8"/><path d="M93.4461 44.6437H91.6814V43.5307H93.4461C93.7188 43.5307 93.9407 43.4863 94.112 43.3976C94.2832 43.3056 94.4084 43.1788 94.4877 43.017C94.567 42.8553 94.6066 42.673 94.6066 42.47C94.6066 42.2639 94.567 42.0721 94.4877 41.8945C94.4084 41.7169 94.2832 41.5742 94.112 41.4664C93.9407 41.3586 93.7188 41.3047 93.4461 41.3047H92.1761V47.1124H90.7491V40.1869H93.4461C93.9883 40.1869 94.4528 40.2852 94.8397 40.4818C95.2297 40.6753 95.5278 40.9432 95.7339 41.2857C95.94 41.6281 96.0431 42.0198 96.0431 42.4605C96.0431 42.9076 95.94 43.2945 95.7339 43.6211C95.5278 43.9477 95.2297 44.1998 94.8397 44.3774C94.4528 44.555 93.9883 44.6437 93.4461 44.6437Z" fill="white" fill-opacity="0.8"/><path d="M87.67 45.3001C87.67 45.1765 87.6509 45.0655 87.6129 44.9672C87.578 44.8657 87.5114 44.7738 87.4131 44.6913C87.3148 44.6057 87.1769 44.5217 86.9993 44.4392C86.8217 44.3568 86.5918 44.2712 86.3096 44.1824C85.9957 44.0809 85.6976 43.9667 85.4154 43.8399C85.1363 43.7131 84.889 43.5656 84.6734 43.3976C84.4609 43.2263 84.2929 43.0281 84.1692 42.803C84.0487 42.5778 83.9884 42.3162 83.9884 42.0182C83.9884 41.7296 84.0519 41.468 84.1787 41.2333C84.3055 40.9955 84.4831 40.7926 84.7114 40.6245C84.9397 40.4533 85.2093 40.3217 85.52 40.2297C85.834 40.1378 86.178 40.0918 86.5522 40.0918C87.0627 40.0918 87.5082 40.1838 87.8888 40.3677C88.2693 40.5516 88.5642 40.8037 88.7735 41.124C88.9859 41.4442 89.0922 41.8105 89.0922 42.2227H87.6747C87.6747 42.0198 87.6319 41.8422 87.5463 41.69C87.4638 41.5346 87.337 41.4125 87.1658 41.3237C86.9977 41.2349 86.7853 41.1905 86.5284 41.1905C86.2811 41.1905 86.075 41.2286 85.9101 41.3047C85.7452 41.3776 85.6215 41.4775 85.5391 41.6044C85.4566 41.728 85.4154 41.8675 85.4154 42.0229C85.4154 42.1403 85.4439 42.2465 85.501 42.3416C85.5613 42.4367 85.65 42.5255 85.7674 42.608C85.8847 42.6904 86.029 42.7681 86.2002 42.841C86.3714 42.914 86.5696 42.9853 86.7948 43.0551C87.1721 43.1692 87.5035 43.2977 87.7889 43.4404C88.0774 43.5831 88.3184 43.7432 88.5119 43.9208C88.7053 44.0983 88.8512 44.2997 88.9495 44.5248C89.0478 44.75 89.0969 45.0052 89.0969 45.2906C89.0969 45.5919 89.0382 45.8614 88.9209 46.0992C88.8036 46.3371 88.6339 46.5384 88.412 46.7033C88.19 46.8682 87.9252 46.9935 87.6176 47.0791C87.3101 47.1647 86.966 47.2075 86.5855 47.2075C86.243 47.2075 85.9053 47.1631 85.5724 47.0743C85.2394 46.9824 84.9366 46.8444 84.6639 46.6605C84.3943 46.4766 84.1787 46.2419 84.017 45.9565C83.8553 45.6712 83.7744 45.3334 83.7744 44.9434H85.2061C85.2061 45.159 85.2394 45.3414 85.306 45.4904C85.3726 45.6394 85.4661 45.7599 85.5866 45.8519C85.7103 45.9439 85.8562 46.0104 86.0242 46.0517C86.1955 46.0929 86.3825 46.1135 86.5855 46.1135C86.8328 46.1135 87.0358 46.0786 87.1943 46.0089C87.356 45.9391 87.475 45.8424 87.5511 45.7187C87.6303 45.595 87.67 45.4555 87.67 45.3001Z" fill="white" fill-opacity="0.8"/><path d="M82.1412 40.1869V47.1124H80.7143L77.9317 42.47V47.1124H76.5048V40.1869H77.9317L80.719 44.834V40.1869H82.1412Z" fill="white" fill-opacity="0.8"/><path d="M72.0938 41.3713L70.2102 47.1124H68.6929L71.2662 40.1869H72.2317L72.0938 41.3713ZM73.6587 47.1124L71.7704 41.3713L71.6182 40.1869H72.5932L75.1808 47.1124H73.6587ZM73.5731 44.5343V45.6521H69.9153V44.5343H73.5731Z" fill="white" fill-opacity="0.8"/><path d="M62.3556 40.1869H64.9383C65.4679 40.1869 65.9229 40.2662 66.3035 40.4247C66.6871 40.5833 66.982 40.8179 67.1882 41.1287C67.3943 41.4395 67.4973 41.8216 67.4973 42.275C67.4973 42.646 67.4339 42.9647 67.3071 43.2311C67.1834 43.4943 67.0074 43.7146 66.7791 43.8922C66.554 44.0666 66.2892 44.2062 65.9848 44.3108L65.5329 44.5486H63.2878L63.2783 43.4356H64.9478C65.1984 43.4356 65.4061 43.3912 65.571 43.3024C65.7358 43.2136 65.8595 43.09 65.942 42.9314C66.0276 42.7729 66.0704 42.5889 66.0704 42.3797C66.0704 42.1577 66.0292 41.9658 65.9467 41.8041C65.8643 41.6424 65.739 41.5187 65.571 41.4331C65.4029 41.3475 65.192 41.3047 64.9383 41.3047H63.7825V47.1124H62.3556V40.1869ZM66.2273 47.1124L64.6482 44.0254L66.156 44.0159L67.7542 47.0458V47.1124H66.2273Z" fill="white" fill-opacity="0.8"/><path d="M58.7294 40.1869V47.1124H57.3072V40.1869H58.7294ZM60.8603 40.1869V41.3047H55.2096V40.1869H60.8603Z" fill="white" fill-opacity="0.8"/><path d="M51.2821 45.9993V47.1124H47.7956V45.9993H51.2821ZM48.257 40.1869V47.1124H46.83V40.1869H48.257Z" fill="white" fill-opacity="0.8"/><path d="M42.419 41.3713L40.5355 47.1124H39.0182L41.5914 40.1869H42.557L42.419 41.3713ZM43.9839 47.1124L42.0956 41.3713L41.9434 40.1869H42.9185L45.506 47.1124H43.9839ZM43.8983 44.5343V45.6521H40.2406V44.5343H43.8983Z" fill="white" fill-opacity="0.8"/><path d="M37.5943 40.1869V47.1124H36.1673L33.3848 42.47V47.1124H31.9578V40.1869H33.3848L36.1721 44.834V40.1869H37.5943Z" fill="white" fill-opacity="0.8"/><path d="M30.2485 43.4879V43.8161C30.2485 44.3425 30.1772 44.815 30.0345 45.2336C29.8918 45.6521 29.6904 46.0089 29.4304 46.3038C29.1704 46.5955 28.8596 46.819 28.4981 46.9744C28.1398 47.1298 27.7419 47.2075 27.3043 47.2075C26.8698 47.2075 26.4719 47.1298 26.1104 46.9744C25.7521 46.819 25.4413 46.5955 25.1781 46.3038C24.9149 46.0089 24.7104 45.6521 24.5645 45.2336C24.4218 44.815 24.3505 44.3425 24.3505 43.8161V43.4879C24.3505 42.9584 24.4218 42.4859 24.5645 42.0705C24.7072 41.6519 24.9086 41.2952 25.1686 41.0003C25.4318 40.7054 25.7426 40.4802 26.1009 40.3249C26.4624 40.1695 26.8603 40.0918 27.2948 40.0918C27.7323 40.0918 28.1303 40.1695 28.4886 40.3249C28.8501 40.4802 29.1609 40.7054 29.4209 41.0003C29.6841 41.2952 29.887 41.6519 30.0297 42.0705C30.1756 42.4859 30.2485 42.9584 30.2485 43.4879ZM28.8073 43.8161V43.4784C28.8073 43.1106 28.774 42.7871 28.7074 42.5081C28.6408 42.229 28.5425 41.9944 28.4125 41.8041C28.2825 41.6139 28.124 41.4712 27.9369 41.376C27.7498 41.2777 27.5357 41.2286 27.2948 41.2286C27.0538 41.2286 26.8397 41.2777 26.6526 41.376C26.4687 41.4712 26.3117 41.6139 26.1817 41.8041C26.0549 41.9944 25.9582 42.229 25.8916 42.5081C25.825 42.7871 25.7917 43.1106 25.7917 43.4784V43.8161C25.7917 44.1808 25.825 44.5042 25.8916 44.7864C25.9582 45.0655 26.0565 45.3017 26.1865 45.4952C26.3165 45.6854 26.475 45.8297 26.6621 45.928C26.8492 46.0263 27.0633 46.0755 27.3043 46.0755C27.5453 46.0755 27.7593 46.0263 27.9464 45.928C28.1335 45.8297 28.2904 45.6854 28.4173 45.4952C28.5441 45.3017 28.6408 45.0655 28.7074 44.7864C28.774 44.5042 28.8073 44.1808 28.8073 43.8161Z" fill="white" fill-opacity="0.8"/><path d="M22.5413 40.1869V47.1124H21.1191V40.1869H22.5413Z" fill="white" fill-opacity="0.8"/><path d="M19.191 43.4927V46.2372C19.0832 46.3672 18.9167 46.5083 18.6916 46.6605C18.4665 46.8095 18.1763 46.938 17.8212 47.0458C17.466 47.1536 17.0363 47.2075 16.5322 47.2075C16.085 47.2075 15.6776 47.1346 15.3097 46.9887C14.9419 46.8397 14.6248 46.6224 14.3584 46.3371C14.0952 46.0517 13.8923 45.7029 13.7496 45.2906C13.6069 44.8752 13.5356 44.4012 13.5356 43.8684V43.4356C13.5356 42.9029 13.6037 42.4288 13.7401 42.0134C13.8796 41.598 14.0778 41.2476 14.3347 40.9622C14.5915 40.6768 14.8975 40.4596 15.2527 40.3106C15.6078 40.1616 16.0026 40.087 16.437 40.087C17.0395 40.087 17.5342 40.1853 17.921 40.3819C18.3079 40.5754 18.6028 40.8449 18.8058 41.1905C19.0119 41.533 19.1387 41.9262 19.1863 42.3701H17.8021C17.7673 42.1355 17.7007 41.931 17.6024 41.7566C17.5041 41.5822 17.363 41.4458 17.179 41.3475C16.9983 41.2492 16.7636 41.2001 16.4751 41.2001C16.2373 41.2001 16.0248 41.2492 15.8377 41.3475C15.6538 41.4426 15.4984 41.5837 15.3716 41.7708C15.2447 41.9579 15.148 42.1894 15.0814 42.4653C15.0148 42.7412 14.9815 43.0614 14.9815 43.4261V43.8684C14.9815 44.2299 15.0164 44.5502 15.0862 44.8293C15.1559 45.1051 15.259 45.3382 15.3954 45.5285C15.5349 45.7155 15.7061 45.8567 15.9091 45.9518C16.112 46.0469 16.3482 46.0945 16.6178 46.0945C16.8429 46.0945 17.03 46.0755 17.179 46.0374C17.3312 45.9993 17.4533 45.9534 17.5453 45.8995C17.6404 45.8424 17.7133 45.7885 17.7641 45.7377V44.5106H16.4608V43.4927H19.191Z" fill="white" fill-opacity="0.8"/><path d="M12.1878 45.9993V47.1124H8.50149V45.9993H12.1878ZM8.96763 40.1869V47.1124H7.54068V40.1869H8.96763ZM11.7074 43.0075V44.092H8.50149V43.0075H11.7074ZM12.183 40.1869V41.3047H8.50149V40.1869H12.183Z" fill="white" fill-opacity="0.8"/><path d="M0.618286 40.1869H3.20106C3.73061 40.1869 4.18565 40.2662 4.56617 40.4247C4.94986 40.5833 5.24476 40.8179 5.45088 41.1287C5.65699 41.4395 5.76005 41.8216 5.76005 42.275C5.76005 42.646 5.69663 42.9647 5.56979 43.2311C5.44612 43.4943 5.27013 43.7146 5.04182 43.8922C4.81668 44.0666 4.5519 44.2062 4.24748 44.3108L3.79562 44.5486H1.55056L1.54104 43.4356H3.21057C3.46108 43.4356 3.66878 43.3912 3.83367 43.3024C3.99856 43.2136 4.12223 43.09 4.20468 42.9314C4.29029 42.7729 4.3331 42.5889 4.3331 42.3797C4.3331 42.1577 4.29188 41.9658 4.20943 41.8041C4.12699 41.6424 4.00173 41.5187 3.83367 41.4331C3.66561 41.3475 3.45474 41.3047 3.20106 41.3047H2.04523V47.1124H0.618286V40.1869ZM4.49007 47.1124L2.91091 44.0254L4.41872 44.0159L6.0169 47.0458V47.1124H4.49007Z" fill="white" fill-opacity="0.8"/><path d="M124.982 23.3928V16.9463H144.939V23.3928H124.982ZM140.384 3.18788e-05L153.547 28.9515H145.016L133.976 3.397H136.292L125.214 28.9515H116.683L129.846 3.18788e-05H140.384Z" fill="white"/><path fill-rule="evenodd" clip-rule="evenodd" d="M103.742 7.10279H95.7609C95.6993 6.22582 95.4981 5.30642 95.041 4.38237C94.2068 2.69594 93.1211 1.83963 91.9947 1.2851V3.18788e-05H122.811V7.10279H111.771V28.9515H103.742V7.10279Z" fill="white"/><path d="M70.3501 12.6615H80.8884C82.1751 12.6615 83.1788 12.3655 83.8993 11.7736C84.6199 11.1817 84.9802 10.3582 84.9802 9.3031C84.9802 8.22225 84.6199 7.39874 83.8993 6.83258C83.1788 6.24068 82.1751 5.94473 80.8884 5.94473H69.2306L72.8206 2.12314V28.9515H64.83V3.18788e-05H82.0079C84.221 3.18788e-05 86.1511 0.398919 87.7981 1.19669C89.4452 1.96873 90.7319 3.04959 91.6583 4.43925C92.5848 5.80319 93.048 7.42447 93.048 9.3031C93.048 11.1303 92.5848 12.7387 91.6583 14.1283C90.7319 15.518 89.4452 16.5989 87.7981 17.3709C86.1511 18.1429 84.221 18.529 82.0079 18.529H70.3501V12.6615ZM74.6735 15.4022H83.6677L94.0517 28.9515H84.7872L74.6735 15.4022Z" fill="white"/><path fill-rule="evenodd" clip-rule="evenodd" d="M56.3293 4.46483C56.3293 4.2697 56.1711 4.11151 55.976 4.11151H4.46483C4.2697 4.11151 4.11151 4.2697 4.11151 4.46483V7.99304C4.11151 8.18818 4.2697 8.34637 4.46483 8.34637L35.5157 8.34631C35.906 8.34631 36.2224 8.66269 36.2224 9.05296V24.4866C36.2224 24.6818 36.3806 24.8399 36.5757 24.8399H55.976C56.1711 24.8399 56.3293 24.6818 56.3293 24.4866V4.46483ZM18.072 24.4866C18.072 24.6818 18.2302 24.8399 18.4254 24.8399H32.1065C32.109 24.8397 32.1109 24.8376 32.1109 24.8351V12.8111C32.1109 12.616 31.9527 12.4578 31.7576 12.4578L4.46483 12.4579C4.2697 12.4579 4.11151 12.6161 4.11151 12.8112V16.1371C4.11151 16.3322 4.2697 16.4904 4.46483 16.4904H17.3654C17.7556 16.4904 18.072 16.8068 18.072 17.197V24.4866ZM0 28.2448C0 28.6351 0.316381 28.9514 0.706655 28.9514H59.7341C60.1244 28.9514 60.4408 28.6351 60.4408 28.2448V0.706653C60.4408 0.316379 60.1244 0 59.7341 0H0.706653C0.31638 0 0 0.316379 0 0.706653V28.2448ZM13.6072 24.8399C13.8023 24.8399 13.9605 24.6818 13.9605 24.4866V20.9552C13.9605 20.7601 13.8023 20.6019 13.6072 20.6019H4.46483C4.2697 20.6019 4.11151 20.7601 4.11151 20.9552L4.11151 24.4866C4.11151 24.6818 4.2697 24.8399 4.46483 24.8399H13.6072Z" fill="#699FFF"/></svg>