<svg width="154" height="29" viewBox="0 0 154 29" fill="none" xmlns="http://www.w3.org/2000/svg">
<path d="M124.982 23.3928V16.9463H144.939V23.3928H124.982ZM140.384 3.18788e-05L153.547 28.9515H145.016L133.976 3.397H136.292L125.214 28.9515H116.683L129.846 3.18788e-05H140.384Z" fill="white"/>
<path fill-rule="evenodd" clip-rule="evenodd" d="M103.742 7.10279H95.7609C95.6993 6.22582 95.4981 5.30642 95.041 4.38237C94.2068 2.69594 93.1211 1.83963 91.9947 1.2851V3.18788e-05H122.811V7.10279H111.771V28.9515H103.742V7.10279Z" fill="white"/>
<path d="M70.3501 12.6615H80.8884C82.1751 12.6615 83.1788 12.3655 83.8993 11.7736C84.6199 11.1817 84.9802 10.3582 84.9802 9.3031C84.9802 8.22225 84.6199 7.39874 83.8993 6.83258C83.1788 6.24068 82.1751 5.94473 80.8884 5.94473H69.2306L72.8206 2.12314V28.9515H64.83V3.18788e-05H82.0079C84.221 3.18788e-05 86.1511 0.398919 87.7981 1.19669C89.4452 1.96873 90.7319 3.04959 91.6583 4.43925C92.5848 5.80319 93.048 7.42447 93.048 9.3031C93.048 11.1303 92.5848 12.7387 91.6583 14.1283C90.7319 15.518 89.4452 16.5989 87.7981 17.3709C86.1511 18.1429 84.221 18.529 82.0079 18.529H70.3501V12.6615ZM74.6735 15.4022H83.6677L94.0517 28.9515H84.7872L74.6735 15.4022Z" fill="white"/>
<path fill-rule="evenodd" clip-rule="evenodd" d="M56.3293 4.46483C56.3293 4.2697 56.1711 4.11151 55.976 4.11151H4.46483C4.2697 4.11151 4.11151 4.2697 4.11151 4.46483V7.99304C4.11151 8.18818 4.2697 8.34637 4.46483 8.34637L35.5157 8.34631C35.906 8.34631 36.2224 8.66269 36.2224 9.05296V24.4866C36.2224 24.6818 36.3806 24.8399 36.5757 24.8399H55.976C56.1711 24.8399 56.3293 24.6818 56.3293 24.4866V4.46483ZM18.072 24.4866C18.072 24.6818 18.2302 24.8399 18.4254 24.8399H32.1065C32.109 24.8397 32.1109 24.8376 32.1109 24.8351V12.8111C32.1109 12.616 31.9527 12.4578 31.7576 12.4578L4.46483 12.4579C4.2697 12.4579 4.11151 12.6161 4.11151 12.8112V16.1371C4.11151 16.3322 4.2697 16.4904 4.46483 16.4904H17.3654C17.7556 16.4904 18.072 16.8068 18.072 17.197V24.4866ZM0 28.2448C0 28.6351 0.316381 28.9514 0.706655 28.9514H59.7341C60.1244 28.9514 60.4408 28.6351 60.4408 28.2448V0.706653C60.4408 0.316379 60.1244 0 59.7341 0H0.706653C0.31638 0 0 0.316379 0 0.706653V28.2448ZM13.6072 24.8399C13.8023 24.8399 13.9605 24.6818 13.9605 24.4866V20.9552C13.9605 20.7601 13.8023 20.6019 13.6072 20.6019H4.46483C4.2697 20.6019 4.11151 20.7601 4.11151 20.9552L4.11151 24.4866C4.11151 24.6818 4.2697 24.8399 4.46483 24.8399H13.6072Z" fill="#699FFF"/>
</svg>
