<svg width="498" height="304" viewBox="0 0 498 304" fill="none" xmlns="http://www.w3.org/2000/svg">
<path d="M209.938 7.16056C211.916 7.16056 213.519 5.55762 213.519 3.58028C213.519 1.60295 211.916 0 209.938 0C207.961 0 206.358 1.60295 206.358 3.58028C206.358 5.55762 207.961 7.16056 209.938 7.16056Z" fill="#699FFF"/>
<path d="M197.038 20.061C199.015 20.061 200.618 18.458 200.618 16.4807C200.618 14.5034 199.015 12.9004 197.038 12.9004C195.06 12.9004 193.458 14.5034 193.458 16.4807C193.458 18.458 195.06 20.061 197.038 20.061Z" fill="#699FFF"/>
<path d="M209.938 20.061C211.916 20.061 213.519 18.458 213.519 16.4807C213.519 14.5034 211.916 12.9004 209.938 12.9004C207.961 12.9004 206.358 14.5034 206.358 16.4807C206.358 18.458 207.961 20.061 209.938 20.061Z" fill="#699FFF"/>
<path d="M222.834 20.061C224.811 20.061 226.414 18.458 226.414 16.4807C226.414 14.5034 224.811 12.9004 222.834 12.9004C220.857 12.9004 219.254 14.5034 219.254 16.4807C219.254 18.458 220.857 20.061 222.834 20.061Z" fill="#699FFF"/>
<path d="M209.938 32.956C211.916 32.956 213.519 31.353 213.519 29.3757C213.519 27.3983 211.916 25.7954 209.938 25.7954C207.961 25.7954 206.358 27.3983 206.358 29.3757C206.358 31.353 207.961 32.956 209.938 32.956Z" fill="#699FFF"/>
<path d="M222.834 32.956C224.811 32.956 226.414 31.353 226.414 29.3757C226.414 27.3983 224.811 25.7954 222.834 25.7954C220.857 25.7954 219.254 27.3983 219.254 29.3757C219.254 31.353 220.857 32.956 222.834 32.956Z" fill="#699FFF"/>
<path d="M235.735 45.8595C237.712 45.8595 239.315 44.2566 239.315 42.2793C239.315 40.3019 237.712 38.699 235.735 38.699C233.758 38.699 232.155 40.3019 232.155 42.2793C232.155 44.2566 233.758 45.8595 235.735 45.8595Z" fill="#699FFF"/>
<path d="M235.735 58.7545C237.712 58.7545 239.315 57.1516 239.315 55.1742C239.315 53.1969 237.712 51.594 235.735 51.594C233.758 51.594 232.155 53.1969 232.155 55.1742C232.155 57.1516 233.758 58.7545 235.735 58.7545Z" fill="#699FFF"/>
<path d="M119.657 71.6495C121.634 71.6495 123.237 70.0466 123.237 68.0692C123.237 66.0919 121.634 64.489 119.657 64.489C117.679 64.489 116.076 66.0919 116.076 68.0692C116.076 70.0466 117.679 71.6495 119.657 71.6495Z" fill="#699FFF"/>
<path d="M235.735 71.6495C237.712 71.6495 239.315 70.0466 239.315 68.0692C239.315 66.0919 237.712 64.489 235.735 64.489C233.758 64.489 232.155 66.0919 232.155 68.0692C232.155 70.0466 233.758 71.6495 235.735 71.6495Z" fill="#699FFF"/>
<path d="M248.631 71.6495C250.608 71.6495 252.211 70.0466 252.211 68.0692C252.211 66.0919 250.608 64.489 248.631 64.489C246.654 64.489 245.051 66.0919 245.051 68.0692C245.051 70.0466 246.654 71.6495 248.631 71.6495Z" fill="#699FFF"/>
<path d="M261.527 71.6495C263.504 71.6495 265.107 70.0466 265.107 68.0692C265.107 66.0919 263.504 64.489 261.527 64.489C259.549 64.489 257.946 66.0919 257.946 68.0692C257.946 70.0466 259.549 71.6495 261.527 71.6495Z" fill="#699FFF"/>
<path d="M93.8655 84.5507C95.8429 84.5507 97.4458 82.9478 97.4458 80.9704C97.4458 78.9931 95.8429 77.3902 93.8655 77.3902C91.8882 77.3902 90.2852 78.9931 90.2852 80.9704C90.2852 82.9478 91.8882 84.5507 93.8655 84.5507Z" fill="#699FFF"/>
<path d="M106.761 84.5507C108.738 84.5507 110.341 82.9478 110.341 80.9704C110.341 78.9931 108.738 77.3902 106.761 77.3902C104.784 77.3902 103.181 78.9931 103.181 80.9704C103.181 82.9478 104.784 84.5507 106.761 84.5507Z" fill="#699FFF"/>
<path d="M197.038 84.5507C199.015 84.5507 200.618 82.9478 200.618 80.9704C200.618 78.9931 199.015 77.3902 197.038 77.3902C195.06 77.3902 193.458 78.9931 193.458 80.9704C193.458 82.9478 195.06 84.5507 197.038 84.5507Z" fill="#699FFF"/>
<path d="M209.938 84.5507C211.916 84.5507 213.519 82.9478 213.519 80.9704C213.519 78.9931 211.916 77.3902 209.938 77.3902C207.961 77.3902 206.358 78.9931 206.358 80.9704C206.358 82.9478 207.961 84.5507 209.938 84.5507Z" fill="#699FFF"/>
<path d="M222.834 84.5507C224.811 84.5507 226.414 82.9478 226.414 80.9704C226.414 78.9931 224.811 77.3902 222.834 77.3902C220.857 77.3902 219.254 78.9931 219.254 80.9704C219.254 82.9478 220.857 84.5507 222.834 84.5507Z" fill="#699FFF"/>
<path d="M235.735 84.5507C237.712 84.5507 239.315 82.9478 239.315 80.9704C239.315 78.9931 237.712 77.3902 235.735 77.3902C233.758 77.3902 232.155 78.9931 232.155 80.9704C232.155 82.9478 233.758 84.5507 235.735 84.5507Z" fill="#699FFF"/>
<path d="M248.631 84.5507C250.608 84.5507 252.211 82.9478 252.211 80.9704C252.211 78.9931 250.608 77.3902 248.631 77.3902C246.654 77.3902 245.051 78.9931 245.051 80.9704C245.051 82.9478 246.654 84.5507 248.631 84.5507Z" fill="#699FFF"/>
<path d="M261.527 84.5507C263.504 84.5507 265.107 82.9478 265.107 80.9704C265.107 78.9931 263.504 77.3902 261.527 77.3902C259.549 77.3902 257.946 78.9931 257.946 80.9704C257.946 82.9478 259.549 84.5507 261.527 84.5507Z" fill="#699FFF"/>
<path d="M338.91 84.5507C340.888 84.5507 342.491 82.9478 342.491 80.9704C342.491 78.9931 340.888 77.3902 338.91 77.3902C336.933 77.3902 335.33 78.9931 335.33 80.9704C335.33 82.9478 336.933 84.5507 338.91 84.5507Z" fill="#699FFF"/>
<path d="M351.806 84.5507C353.783 84.5507 355.386 82.9478 355.386 80.9704C355.386 78.9931 353.783 77.3902 351.806 77.3902C349.828 77.3902 348.225 78.9931 348.225 80.9704C348.225 82.9478 349.828 84.5507 351.806 84.5507Z" fill="#699FFF"/>
<path d="M93.8655 97.4461C95.8429 97.4461 97.4458 95.8432 97.4458 93.8658C97.4458 91.8885 95.8429 90.2856 93.8655 90.2856C91.8882 90.2856 90.2852 91.8885 90.2852 93.8658C90.2852 95.8432 91.8882 97.4461 93.8655 97.4461Z" fill="#699FFF"/>
<path d="M184.142 97.4461C186.12 97.4461 187.723 95.8432 187.723 93.8658C187.723 91.8885 186.12 90.2856 184.142 90.2856C182.165 90.2856 180.562 91.8885 180.562 93.8658C180.562 95.8432 182.165 97.4461 184.142 97.4461Z" fill="#699FFF"/>
<path d="M197.038 97.4461C199.015 97.4461 200.618 95.8432 200.618 93.8658C200.618 91.8885 199.015 90.2856 197.038 90.2856C195.06 90.2856 193.458 91.8885 193.458 93.8658C193.458 95.8432 195.06 97.4461 197.038 97.4461Z" fill="#699FFF"/>
<path d="M209.938 97.4461C211.916 97.4461 213.519 95.8432 213.519 93.8658C213.519 91.8885 211.916 90.2856 209.938 90.2856C207.961 90.2856 206.358 91.8885 206.358 93.8658C206.358 95.8432 207.961 97.4461 209.938 97.4461Z" fill="#699FFF"/>
<path d="M222.834 97.4461C224.811 97.4461 226.414 95.8432 226.414 93.8658C226.414 91.8885 224.811 90.2856 222.834 90.2856C220.857 90.2856 219.254 91.8885 219.254 93.8658C219.254 95.8432 220.857 97.4461 222.834 97.4461Z" fill="#699FFF"/>
<path d="M235.735 97.4461C237.712 97.4461 239.315 95.8432 239.315 93.8658C239.315 91.8885 237.712 90.2856 235.735 90.2856C233.758 90.2856 232.155 91.8885 232.155 93.8658C232.155 95.8432 233.758 97.4461 235.735 97.4461Z" fill="#699FFF"/>
<path d="M248.631 97.4461C250.608 97.4461 252.211 95.8432 252.211 93.8658C252.211 91.8885 250.608 90.2856 248.631 90.2856C246.654 90.2856 245.051 91.8885 245.051 93.8658C245.051 95.8432 246.654 97.4461 248.631 97.4461Z" fill="#699FFF"/>
<path d="M261.527 97.4461C263.504 97.4461 265.107 95.8432 265.107 93.8658C265.107 91.8885 263.504 90.2856 261.527 90.2856C259.549 90.2856 257.946 91.8885 257.946 93.8658C257.946 95.8432 259.549 97.4461 261.527 97.4461Z" fill="#699FFF"/>
<path d="M132.56 110.341C134.537 110.341 136.14 108.738 136.14 106.761C136.14 104.784 134.537 103.181 132.56 103.181C130.583 103.181 128.98 104.784 128.98 106.761C128.98 108.738 130.583 110.341 132.56 110.341Z" fill="#699FFF"/>
<path d="M171.247 110.341C173.224 110.341 174.827 108.738 174.827 106.761C174.827 104.784 173.224 103.181 171.247 103.181C169.269 103.181 167.666 104.784 167.666 106.761C167.666 108.738 169.269 110.341 171.247 110.341Z" fill="#699FFF"/>
<path d="M184.142 110.341C186.12 110.341 187.723 108.738 187.723 106.761C187.723 104.784 186.12 103.181 184.142 103.181C182.165 103.181 180.562 104.784 180.562 106.761C180.562 108.738 182.165 110.341 184.142 110.341Z" fill="#699FFF"/>
<path d="M197.038 110.341C199.015 110.341 200.618 108.738 200.618 106.761C200.618 104.784 199.015 103.181 197.038 103.181C195.06 103.181 193.458 104.784 193.458 106.761C193.458 108.738 195.06 110.341 197.038 110.341Z" fill="#699FFF"/>
<path d="M209.938 110.341C211.916 110.341 213.519 108.738 213.519 106.761C213.519 104.784 211.916 103.181 209.938 103.181C207.961 103.181 206.358 104.784 206.358 106.761C206.358 108.738 207.961 110.341 209.938 110.341Z" fill="#699FFF"/>
<path d="M222.834 110.341C224.811 110.341 226.414 108.738 226.414 106.761C226.414 104.784 224.811 103.181 222.834 103.181C220.857 103.181 219.254 104.784 219.254 106.761C219.254 108.738 220.857 110.341 222.834 110.341Z" fill="#699FFF"/>
<path d="M235.735 110.341C237.712 110.341 239.315 108.738 239.315 106.761C239.315 104.784 237.712 103.181 235.735 103.181C233.758 103.181 232.155 104.784 232.155 106.761C232.155 108.738 233.758 110.341 235.735 110.341Z" fill="#699FFF"/>
<path d="M261.527 110.341C263.504 110.341 265.107 108.738 265.107 106.761C265.107 104.784 263.504 103.181 261.527 103.181C259.549 103.181 257.946 104.784 257.946 106.761C257.946 108.738 259.549 110.341 261.527 110.341Z" fill="#699FFF"/>
<path d="M274.428 110.341C276.405 110.341 278.008 108.738 278.008 106.761C278.008 104.784 276.405 103.181 274.428 103.181C272.45 103.181 270.847 104.784 270.847 106.761C270.847 108.738 272.45 110.341 274.428 110.341Z" fill="#699FFF"/>
<path d="M300.218 110.341C302.196 110.341 303.799 108.738 303.799 106.761C303.799 104.784 302.196 103.181 300.218 103.181C298.241 103.181 296.638 104.784 296.638 106.761C296.638 108.738 298.241 110.341 300.218 110.341Z" fill="#699FFF"/>
<path d="M351.806 110.341C353.783 110.341 355.386 108.738 355.386 106.761C355.386 104.784 353.783 103.181 351.806 103.181C349.828 103.181 348.225 104.784 348.225 106.761C348.225 108.738 349.828 110.341 351.806 110.341Z" fill="#699FFF"/>
<path d="M80.9647 123.241C82.942 123.241 84.545 121.638 84.545 119.661C84.545 117.684 82.942 116.081 80.9647 116.081C78.9874 116.081 77.3844 117.684 77.3844 119.661C77.3844 121.638 78.9874 123.241 80.9647 123.241Z" fill="#699FFF"/>
<path d="M132.56 123.241C134.537 123.241 136.14 121.638 136.14 119.661C136.14 117.684 134.537 116.081 132.56 116.081C130.583 116.081 128.98 117.684 128.98 119.661C128.98 121.638 130.583 123.241 132.56 123.241Z" fill="#699FFF"/>
<path d="M158.351 123.241C160.329 123.241 161.932 121.638 161.932 119.661C161.932 117.684 160.329 116.081 158.351 116.081C156.374 116.081 154.771 117.684 154.771 119.661C154.771 121.638 156.374 123.241 158.351 123.241Z" fill="#699FFF"/>
<path d="M171.247 123.241C173.224 123.241 174.827 121.638 174.827 119.661C174.827 117.684 173.224 116.081 171.247 116.081C169.269 116.081 167.666 117.684 167.666 119.661C167.666 121.638 169.269 123.241 171.247 123.241Z" fill="#699FFF"/>
<path d="M184.142 123.241C186.12 123.241 187.723 121.638 187.723 119.661C187.723 117.684 186.12 116.081 184.142 116.081C182.165 116.081 180.562 117.684 180.562 119.661C180.562 121.638 182.165 123.241 184.142 123.241Z" fill="#699FFF"/>
<path d="M197.038 123.241C199.015 123.241 200.618 121.638 200.618 119.661C200.618 117.684 199.015 116.081 197.038 116.081C195.06 116.081 193.458 117.684 193.458 119.661C193.458 121.638 195.06 123.241 197.038 123.241Z" fill="#699FFF"/>
<path d="M209.938 123.241C211.916 123.241 213.519 121.638 213.519 119.661C213.519 117.684 211.916 116.081 209.938 116.081C207.961 116.081 206.358 117.684 206.358 119.661C206.358 121.638 207.961 123.241 209.938 123.241Z" fill="#699FFF"/>
<path d="M222.834 123.241C224.811 123.241 226.414 121.638 226.414 119.661C226.414 117.684 224.811 116.081 222.834 116.081C220.857 116.081 219.254 117.684 219.254 119.661C219.254 121.638 220.857 123.241 222.834 123.241Z" fill="#699FFF"/>
<path d="M235.735 123.241C237.712 123.241 239.315 121.638 239.315 119.661C239.315 117.684 237.712 116.081 235.735 116.081C233.758 116.081 232.155 117.684 232.155 119.661C232.155 121.638 233.758 123.241 235.735 123.241Z" fill="#699FFF"/>
<path d="M248.631 123.241C250.608 123.241 252.211 121.638 252.211 119.661C252.211 117.684 250.608 116.081 248.631 116.081C246.654 116.081 245.051 117.684 245.051 119.661C245.051 121.638 246.654 123.241 248.631 123.241Z" fill="#699FFF"/>
<path d="M261.527 123.241C263.504 123.241 265.107 121.638 265.107 119.661C265.107 117.684 263.504 116.081 261.527 116.081C259.549 116.081 257.946 117.684 257.946 119.661C257.946 121.638 259.549 123.241 261.527 123.241Z" fill="#699FFF"/>
<path d="M274.428 123.241C276.405 123.241 278.008 121.638 278.008 119.661C278.008 117.684 276.405 116.081 274.428 116.081C272.45 116.081 270.847 117.684 270.847 119.661C270.847 121.638 272.45 123.241 274.428 123.241Z" fill="#699FFF"/>
<path d="M287.323 123.241C289.3 123.241 290.903 121.638 290.903 119.661C290.903 117.684 289.3 116.081 287.323 116.081C285.345 116.081 283.742 117.684 283.742 119.661C283.742 121.638 285.345 123.241 287.323 123.241Z" fill="#699FFF"/>
<path d="M300.218 123.241C302.196 123.241 303.799 121.638 303.799 119.661C303.799 117.684 302.196 116.081 300.218 116.081C298.241 116.081 296.638 117.684 296.638 119.661C296.638 121.638 298.241 123.241 300.218 123.241Z" fill="#699FFF"/>
<path d="M313.119 123.241C315.097 123.241 316.7 121.638 316.7 119.661C316.7 117.684 315.097 116.081 313.119 116.081C311.142 116.081 309.539 117.684 309.539 119.661C309.539 121.638 311.142 123.241 313.119 123.241Z" fill="#699FFF"/>
<path d="M351.806 123.241C353.783 123.241 355.386 121.638 355.386 119.661C355.386 117.684 353.783 116.081 351.806 116.081C349.828 116.081 348.225 117.684 348.225 119.661C348.225 121.638 349.828 123.241 351.806 123.241Z" fill="#699FFF"/>
<path d="M364.702 123.241C366.679 123.241 368.282 121.638 368.282 119.661C368.282 117.684 366.679 116.081 364.702 116.081C362.725 116.081 361.122 117.684 361.122 119.661C361.122 121.638 362.725 123.241 364.702 123.241Z" fill="#699FFF"/>
<path d="M80.9647 136.139C82.942 136.139 84.545 134.536 84.545 132.559C84.545 130.582 82.942 128.979 80.9647 128.979C78.9874 128.979 77.3844 130.582 77.3844 132.559C77.3844 134.536 78.9874 136.139 80.9647 136.139Z" fill="#699FFF"/>
<path d="M132.56 136.139C134.537 136.139 136.14 134.536 136.14 132.559C136.14 130.582 134.537 128.979 132.56 128.979C130.583 128.979 128.98 130.582 128.98 132.559C128.98 134.536 130.583 136.139 132.56 136.139Z" fill="#699FFF"/>
<path d="M145.456 136.139C147.433 136.139 149.036 134.536 149.036 132.559C149.036 130.582 147.433 128.979 145.456 128.979C143.478 128.979 141.875 130.582 141.875 132.559C141.875 134.536 143.478 136.139 145.456 136.139Z" fill="#699FFF"/>
<path d="M158.351 136.139C160.329 136.139 161.932 134.536 161.932 132.559C161.932 130.582 160.329 128.979 158.351 128.979C156.374 128.979 154.771 130.582 154.771 132.559C154.771 134.536 156.374 136.139 158.351 136.139Z" fill="#699FFF"/>
<path d="M184.142 136.139C186.12 136.139 187.723 134.536 187.723 132.559C187.723 130.582 186.12 128.979 184.142 128.979C182.165 128.979 180.562 130.582 180.562 132.559C180.562 134.536 182.165 136.139 184.142 136.139Z" fill="#699FFF"/>
<path d="M197.038 136.139C199.015 136.139 200.618 134.536 200.618 132.559C200.618 130.582 199.015 128.979 197.038 128.979C195.06 128.979 193.458 130.582 193.458 132.559C193.458 134.536 195.06 136.139 197.038 136.139Z" fill="#699FFF"/>
<path d="M209.938 136.139C211.916 136.139 213.519 134.536 213.519 132.559C213.519 130.582 211.916 128.979 209.938 128.979C207.961 128.979 206.358 130.582 206.358 132.559C206.358 134.536 207.961 136.139 209.938 136.139Z" fill="#699FFF"/>
<path d="M222.834 136.139C224.811 136.139 226.414 134.536 226.414 132.559C226.414 130.582 224.811 128.979 222.834 128.979C220.857 128.979 219.254 130.582 219.254 132.559C219.254 134.536 220.857 136.139 222.834 136.139Z" fill="#699FFF"/>
<path d="M235.735 136.139C237.712 136.139 239.315 134.536 239.315 132.559C239.315 130.582 237.712 128.979 235.735 128.979C233.758 128.979 232.155 130.582 232.155 132.559C232.155 134.536 233.758 136.139 235.735 136.139Z" fill="#699FFF"/>
<path d="M248.631 136.139C250.608 136.139 252.211 134.536 252.211 132.559C252.211 130.582 250.608 128.979 248.631 128.979C246.654 128.979 245.051 130.582 245.051 132.559C245.051 134.536 246.654 136.139 248.631 136.139Z" fill="#699FFF"/>
<path d="M261.527 136.139C263.504 136.139 265.107 134.536 265.107 132.559C265.107 130.582 263.504 128.979 261.527 128.979C259.549 128.979 257.946 130.582 257.946 132.559C257.946 134.536 259.549 136.139 261.527 136.139Z" fill="#699FFF"/>
<path d="M274.428 136.139C276.405 136.139 278.008 134.536 278.008 132.559C278.008 130.582 276.405 128.979 274.428 128.979C272.45 128.979 270.847 130.582 270.847 132.559C270.847 134.536 272.45 136.139 274.428 136.139Z" fill="#699FFF"/>
<path d="M287.323 136.139C289.3 136.139 290.903 134.536 290.903 132.559C290.903 130.582 289.3 128.979 287.323 128.979C285.345 128.979 283.742 130.582 283.742 132.559C283.742 134.536 285.345 136.139 287.323 136.139Z" fill="#699FFF"/>
<path d="M300.218 136.139C302.196 136.139 303.799 134.536 303.799 132.559C303.799 130.582 302.196 128.979 300.218 128.979C298.241 128.979 296.638 130.582 296.638 132.559C296.638 134.536 298.241 136.139 300.218 136.139Z" fill="#699FFF"/>
<path d="M313.119 136.139C315.097 136.139 316.7 134.536 316.7 132.559C316.7 130.582 315.097 128.979 313.119 128.979C311.142 128.979 309.539 130.582 309.539 132.559C309.539 134.536 311.142 136.139 313.119 136.139Z" fill="#699FFF"/>
<path d="M326.015 136.139C327.992 136.139 329.595 134.536 329.595 132.559C329.595 130.582 327.992 128.979 326.015 128.979C324.037 128.979 322.434 130.582 322.434 132.559C322.434 134.536 324.037 136.139 326.015 136.139Z" fill="#699FFF"/>
<path d="M338.91 136.139C340.888 136.139 342.491 134.536 342.491 132.559C342.491 130.582 340.888 128.979 338.91 128.979C336.933 128.979 335.33 130.582 335.33 132.559C335.33 134.536 336.933 136.139 338.91 136.139Z" fill="#699FFF"/>
<path d="M351.806 136.139C353.783 136.139 355.386 134.536 355.386 132.559C355.386 130.582 353.783 128.979 351.806 128.979C349.828 128.979 348.225 130.582 348.225 132.559C348.225 134.536 349.828 136.139 351.806 136.139Z" fill="#699FFF"/>
<path d="M364.702 136.139C366.679 136.139 368.282 134.536 368.282 132.559C368.282 130.582 366.679 128.979 364.702 128.979C362.725 128.979 361.122 130.582 361.122 132.559C361.122 134.536 362.725 136.139 364.702 136.139Z" fill="#699FFF"/>
<path d="M377.603 136.139C379.58 136.139 381.183 134.536 381.183 132.559C381.183 130.582 379.58 128.979 377.603 128.979C375.625 128.979 374.022 130.582 374.022 132.559C374.022 134.536 375.625 136.139 377.603 136.139Z" fill="#699FFF"/>
<path d="M403.394 136.139C405.371 136.139 406.974 134.536 406.974 132.559C406.974 130.582 405.371 128.979 403.394 128.979C401.416 128.979 399.813 130.582 399.813 132.559C399.813 134.536 401.416 136.139 403.394 136.139Z" fill="#699FFF"/>
<path d="M467.885 136.139C469.862 136.139 471.465 134.536 471.465 132.559C471.465 130.582 469.862 128.979 467.885 128.979C465.907 128.979 464.304 130.582 464.304 132.559C464.304 134.536 465.907 136.139 467.885 136.139Z" fill="#699FFF"/>
<path d="M16.4759 149.035C18.4532 149.035 20.0561 147.432 20.0561 145.455C20.0561 143.478 18.4532 141.875 16.4759 141.875C14.4985 141.875 12.8956 143.478 12.8956 145.455C12.8956 147.432 14.4985 149.035 16.4759 149.035Z" fill="#699FFF"/>
<path d="M106.761 149.035C108.738 149.035 110.341 147.432 110.341 145.455C110.341 143.478 108.738 141.875 106.761 141.875C104.784 141.875 103.181 143.478 103.181 145.455C103.181 147.432 104.784 149.035 106.761 149.035Z" fill="#699FFF"/>
<path d="M132.56 149.035C134.537 149.035 136.14 147.432 136.14 145.455C136.14 143.478 134.537 141.875 132.56 141.875C130.583 141.875 128.98 143.478 128.98 145.455C128.98 147.432 130.583 149.035 132.56 149.035Z" fill="#699FFF"/>
<path d="M145.456 149.035C147.433 149.035 149.036 147.432 149.036 145.455C149.036 143.478 147.433 141.875 145.456 141.875C143.478 141.875 141.875 143.478 141.875 145.455C141.875 147.432 143.478 149.035 145.456 149.035Z" fill="#699FFF"/>
<path d="M158.351 149.035C160.329 149.035 161.932 147.432 161.932 145.455C161.932 143.478 160.329 141.875 158.351 141.875C156.374 141.875 154.771 143.478 154.771 145.455C154.771 147.432 156.374 149.035 158.351 149.035Z" fill="#699FFF"/>
<path d="M171.247 149.035C173.224 149.035 174.827 147.432 174.827 145.455C174.827 143.478 173.224 141.875 171.247 141.875C169.269 141.875 167.666 143.478 167.666 145.455C167.666 147.432 169.269 149.035 171.247 149.035Z" fill="#699FFF"/>
<path d="M184.142 149.035C186.12 149.035 187.723 147.432 187.723 145.455C187.723 143.478 186.12 141.875 184.142 141.875C182.165 141.875 180.562 143.478 180.562 145.455C180.562 147.432 182.165 149.035 184.142 149.035Z" fill="#699FFF"/>
<path d="M197.038 149.035C199.015 149.035 200.618 147.432 200.618 145.455C200.618 143.478 199.015 141.875 197.038 141.875C195.06 141.875 193.458 143.478 193.458 145.455C193.458 147.432 195.06 149.035 197.038 149.035Z" fill="#699FFF"/>
<path d="M209.938 149.035C211.916 149.035 213.519 147.432 213.519 145.455C213.519 143.478 211.916 141.875 209.938 141.875C207.961 141.875 206.358 143.478 206.358 145.455C206.358 147.432 207.961 149.035 209.938 149.035Z" fill="#699FFF"/>
<path d="M222.834 149.035C224.811 149.035 226.414 147.432 226.414 145.455C226.414 143.478 224.811 141.875 222.834 141.875C220.857 141.875 219.254 143.478 219.254 145.455C219.254 147.432 220.857 149.035 222.834 149.035Z" fill="#699FFF"/>
<path d="M235.735 149.035C237.712 149.035 239.315 147.432 239.315 145.455C239.315 143.478 237.712 141.875 235.735 141.875C233.758 141.875 232.155 143.478 232.155 145.455C232.155 147.432 233.758 149.035 235.735 149.035Z" fill="#699FFF"/>
<path d="M248.631 149.035C250.608 149.035 252.211 147.432 252.211 145.455C252.211 143.478 250.608 141.875 248.631 141.875C246.654 141.875 245.051 143.478 245.051 145.455C245.051 147.432 246.654 149.035 248.631 149.035Z" fill="#699FFF"/>
<path d="M261.527 149.035C263.504 149.035 265.107 147.432 265.107 145.455C265.107 143.478 263.504 141.875 261.527 141.875C259.549 141.875 257.946 143.478 257.946 145.455C257.946 147.432 259.549 149.035 261.527 149.035Z" fill="#699FFF"/>
<path d="M274.428 149.035C276.405 149.035 278.008 147.432 278.008 145.455C278.008 143.478 276.405 141.875 274.428 141.875C272.45 141.875 270.847 143.478 270.847 145.455C270.847 147.432 272.45 149.035 274.428 149.035Z" fill="#699FFF"/>
<path d="M287.323 149.035C289.3 149.035 290.903 147.432 290.903 145.455C290.903 143.478 289.3 141.875 287.323 141.875C285.345 141.875 283.742 143.478 283.742 145.455C283.742 147.432 285.345 149.035 287.323 149.035Z" fill="#699FFF"/>
<path d="M300.218 149.035C302.196 149.035 303.799 147.432 303.799 145.455C303.799 143.478 302.196 141.875 300.218 141.875C298.241 141.875 296.638 143.478 296.638 145.455C296.638 147.432 298.241 149.035 300.218 149.035Z" fill="#699FFF"/>
<path d="M313.119 149.035C315.097 149.035 316.7 147.432 316.7 145.455C316.7 143.478 315.097 141.875 313.119 141.875C311.142 141.875 309.539 143.478 309.539 145.455C309.539 147.432 311.142 149.035 313.119 149.035Z" fill="#699FFF"/>
<path d="M326.015 149.035C327.992 149.035 329.595 147.432 329.595 145.455C329.595 143.478 327.992 141.875 326.015 141.875C324.037 141.875 322.434 143.478 322.434 145.455C322.434 147.432 324.037 149.035 326.015 149.035Z" fill="#699FFF"/>
<path d="M338.91 149.035C340.888 149.035 342.491 147.432 342.491 145.455C342.491 143.478 340.888 141.875 338.91 141.875C336.933 141.875 335.33 143.478 335.33 145.455C335.33 147.432 336.933 149.035 338.91 149.035Z" fill="#699FFF"/>
<path d="M351.806 149.035C353.783 149.035 355.386 147.432 355.386 145.455C355.386 143.478 353.783 141.875 351.806 141.875C349.828 141.875 348.225 143.478 348.225 145.455C348.225 147.432 349.828 149.035 351.806 149.035Z" fill="#699FFF"/>
<path d="M364.702 149.035C366.679 149.035 368.282 147.432 368.282 145.455C368.282 143.478 366.679 141.875 364.702 141.875C362.725 141.875 361.122 143.478 361.122 145.455C361.122 147.432 362.725 149.035 364.702 149.035Z" fill="#699FFF"/>
<path d="M377.603 149.035C379.58 149.035 381.183 147.432 381.183 145.455C381.183 143.478 379.58 141.875 377.603 141.875C375.625 141.875 374.022 143.478 374.022 145.455C374.022 147.432 375.625 149.035 377.603 149.035Z" fill="#699FFF"/>
<path d="M390.498 149.035C392.476 149.035 394.079 147.432 394.079 145.455C394.079 143.478 392.476 141.875 390.498 141.875C388.521 141.875 386.918 143.478 386.918 145.455C386.918 147.432 388.521 149.035 390.498 149.035Z" fill="#699FFF"/>
<path d="M403.394 149.035C405.371 149.035 406.974 147.432 406.974 145.455C406.974 143.478 405.371 141.875 403.394 141.875C401.416 141.875 399.813 143.478 399.813 145.455C399.813 147.432 401.416 149.035 403.394 149.035Z" fill="#699FFF"/>
<path d="M416.297 149.035C418.274 149.035 419.877 147.432 419.877 145.455C419.877 143.478 418.274 141.875 416.297 141.875C414.32 141.875 412.717 143.478 412.717 145.455C412.717 147.432 414.32 149.035 416.297 149.035Z" fill="#699FFF"/>
<path d="M429.193 149.035C431.17 149.035 432.773 147.432 432.773 145.455C432.773 143.478 431.17 141.875 429.193 141.875C427.216 141.875 425.613 143.478 425.613 145.455C425.613 147.432 427.216 149.035 429.193 149.035Z" fill="#699FFF"/>
<path d="M442.089 149.035C444.066 149.035 445.669 147.432 445.669 145.455C445.669 143.478 444.066 141.875 442.089 141.875C440.111 141.875 438.508 143.478 438.508 145.455C438.508 147.432 440.111 149.035 442.089 149.035Z" fill="#699FFF"/>
<path d="M454.99 149.035C456.967 149.035 458.57 147.432 458.57 145.455C458.57 143.478 456.967 141.875 454.99 141.875C453.012 141.875 451.409 143.478 451.409 145.455C451.409 147.432 453.012 149.035 454.99 149.035Z" fill="#699FFF"/>
<path d="M16.4759 161.93C18.4532 161.93 20.0561 160.327 20.0561 158.35C20.0561 156.372 18.4532 154.769 16.4759 154.769C14.4985 154.769 12.8956 156.372 12.8956 158.35C12.8956 160.327 14.4985 161.93 16.4759 161.93Z" fill="#699FFF"/>
<path d="M29.3764 161.93C31.3537 161.93 32.9567 160.327 32.9567 158.35C32.9567 156.372 31.3537 154.769 29.3764 154.769C27.3991 154.769 25.7961 156.372 25.7961 158.35C25.7961 160.327 27.3991 161.93 29.3764 161.93Z" fill="#699FFF"/>
<path d="M55.1677 161.93C57.1451 161.93 58.748 160.327 58.748 158.35C58.748 156.372 57.1451 154.769 55.1677 154.769C53.1904 154.769 51.5875 156.372 51.5875 158.35C51.5875 160.327 53.1904 161.93 55.1677 161.93Z" fill="#699FFF"/>
<path d="M68.0685 161.93C70.0459 161.93 71.6488 160.327 71.6488 158.35C71.6488 156.372 70.0459 154.769 68.0685 154.769C66.0912 154.769 64.4883 156.372 64.4883 158.35C64.4883 160.327 66.0912 161.93 68.0685 161.93Z" fill="#699FFF"/>
<path d="M80.9647 161.93C82.942 161.93 84.545 160.327 84.545 158.35C84.545 156.372 82.942 154.769 80.9647 154.769C78.9874 154.769 77.3844 156.372 77.3844 158.35C77.3844 160.327 78.9874 161.93 80.9647 161.93Z" fill="#699FFF"/>
<path d="M93.8655 161.93C95.8429 161.93 97.4458 160.327 97.4458 158.35C97.4458 156.372 95.8429 154.769 93.8655 154.769C91.8882 154.769 90.2852 156.372 90.2852 158.35C90.2852 160.327 91.8882 161.93 93.8655 161.93Z" fill="#699FFF"/>
<path d="M106.761 161.93C108.738 161.93 110.341 160.327 110.341 158.35C110.341 156.372 108.738 154.769 106.761 154.769C104.784 154.769 103.181 156.372 103.181 158.35C103.181 160.327 104.784 161.93 106.761 161.93Z" fill="#699FFF"/>
<path d="M119.657 161.93C121.634 161.93 123.237 160.327 123.237 158.35C123.237 156.372 121.634 154.769 119.657 154.769C117.679 154.769 116.076 156.372 116.076 158.35C116.076 160.327 117.679 161.93 119.657 161.93Z" fill="#699FFF"/>
<path d="M132.56 161.93C134.537 161.93 136.14 160.327 136.14 158.35C136.14 156.372 134.537 154.769 132.56 154.769C130.583 154.769 128.98 156.372 128.98 158.35C128.98 160.327 130.583 161.93 132.56 161.93Z" fill="#699FFF"/>
<path d="M145.456 161.93C147.433 161.93 149.036 160.327 149.036 158.35C149.036 156.372 147.433 154.769 145.456 154.769C143.478 154.769 141.875 156.372 141.875 158.35C141.875 160.327 143.478 161.93 145.456 161.93Z" fill="#699FFF"/>
<path d="M158.351 161.93C160.329 161.93 161.932 160.327 161.932 158.35C161.932 156.372 160.329 154.769 158.351 154.769C156.374 154.769 154.771 156.372 154.771 158.35C154.771 160.327 156.374 161.93 158.351 161.93Z" fill="#699FFF"/>
<path d="M171.247 161.93C173.224 161.93 174.827 160.327 174.827 158.35C174.827 156.372 173.224 154.769 171.247 154.769C169.269 154.769 167.666 156.372 167.666 158.35C167.666 160.327 169.269 161.93 171.247 161.93Z" fill="#699FFF"/>
<path d="M184.142 161.93C186.12 161.93 187.723 160.327 187.723 158.35C187.723 156.372 186.12 154.769 184.142 154.769C182.165 154.769 180.562 156.372 180.562 158.35C180.562 160.327 182.165 161.93 184.142 161.93Z" fill="#699FFF"/>
<path d="M197.038 161.93C199.015 161.93 200.618 160.327 200.618 158.35C200.618 156.372 199.015 154.769 197.038 154.769C195.06 154.769 193.458 156.372 193.458 158.35C193.458 160.327 195.06 161.93 197.038 161.93Z" fill="#699FFF"/>
<path d="M209.938 161.93C211.916 161.93 213.519 160.327 213.519 158.35C213.519 156.372 211.916 154.769 209.938 154.769C207.961 154.769 206.358 156.372 206.358 158.35C206.358 160.327 207.961 161.93 209.938 161.93Z" fill="#699FFF"/>
<path d="M222.834 161.93C224.811 161.93 226.414 160.327 226.414 158.35C226.414 156.372 224.811 154.769 222.834 154.769C220.857 154.769 219.254 156.372 219.254 158.35C219.254 160.327 220.857 161.93 222.834 161.93Z" fill="#699FFF"/>
<path d="M235.735 161.93C237.712 161.93 239.315 160.327 239.315 158.35C239.315 156.372 237.712 154.769 235.735 154.769C233.758 154.769 232.155 156.372 232.155 158.35C232.155 160.327 233.758 161.93 235.735 161.93Z" fill="#699FFF"/>
<path d="M248.631 161.93C250.608 161.93 252.211 160.327 252.211 158.35C252.211 156.372 250.608 154.769 248.631 154.769C246.654 154.769 245.051 156.372 245.051 158.35C245.051 160.327 246.654 161.93 248.631 161.93Z" fill="#699FFF"/>
<path d="M261.527 161.93C263.504 161.93 265.107 160.327 265.107 158.35C265.107 156.372 263.504 154.769 261.527 154.769C259.549 154.769 257.946 156.372 257.946 158.35C257.946 160.327 259.549 161.93 261.527 161.93Z" fill="#699FFF"/>
<path d="M274.428 161.93C276.405 161.93 278.008 160.327 278.008 158.35C278.008 156.372 276.405 154.769 274.428 154.769C272.45 154.769 270.847 156.372 270.847 158.35C270.847 160.327 272.45 161.93 274.428 161.93Z" fill="#699FFF"/>
<path d="M287.323 161.93C289.3 161.93 290.903 160.327 290.903 158.35C290.903 156.372 289.3 154.769 287.323 154.769C285.345 154.769 283.742 156.372 283.742 158.35C283.742 160.327 285.345 161.93 287.323 161.93Z" fill="#699FFF"/>
<path d="M300.218 161.93C302.196 161.93 303.799 160.327 303.799 158.35C303.799 156.372 302.196 154.769 300.218 154.769C298.241 154.769 296.638 156.372 296.638 158.35C296.638 160.327 298.241 161.93 300.218 161.93Z" fill="#699FFF"/>
<path d="M313.119 161.93C315.097 161.93 316.7 160.327 316.7 158.35C316.7 156.372 315.097 154.769 313.119 154.769C311.142 154.769 309.539 156.372 309.539 158.35C309.539 160.327 311.142 161.93 313.119 161.93Z" fill="#699FFF"/>
<path d="M326.015 161.93C327.992 161.93 329.595 160.327 329.595 158.35C329.595 156.372 327.992 154.769 326.015 154.769C324.037 154.769 322.434 156.372 322.434 158.35C322.434 160.327 324.037 161.93 326.015 161.93Z" fill="#699FFF"/>
<path d="M338.91 161.93C340.888 161.93 342.491 160.327 342.491 158.35C342.491 156.372 340.888 154.769 338.91 154.769C336.933 154.769 335.33 156.372 335.33 158.35C335.33 160.327 336.933 161.93 338.91 161.93Z" fill="#699FFF"/>
<path d="M351.806 161.93C353.783 161.93 355.386 160.327 355.386 158.35C355.386 156.372 353.783 154.769 351.806 154.769C349.828 154.769 348.225 156.372 348.225 158.35C348.225 160.327 349.828 161.93 351.806 161.93Z" fill="#699FFF"/>
<path d="M364.702 161.93C366.679 161.93 368.282 160.327 368.282 158.35C368.282 156.372 366.679 154.769 364.702 154.769C362.725 154.769 361.122 156.372 361.122 158.35C361.122 160.327 362.725 161.93 364.702 161.93Z" fill="#699FFF"/>
<path d="M377.603 161.93C379.58 161.93 381.183 160.327 381.183 158.35C381.183 156.372 379.58 154.769 377.603 154.769C375.625 154.769 374.022 156.372 374.022 158.35C374.022 160.327 375.625 161.93 377.603 161.93Z" fill="#699FFF"/>
<path d="M390.498 161.93C392.476 161.93 394.079 160.327 394.079 158.35C394.079 156.372 392.476 154.769 390.498 154.769C388.521 154.769 386.918 156.372 386.918 158.35C386.918 160.327 388.521 161.93 390.498 161.93Z" fill="#699FFF"/>
<path d="M403.394 161.93C405.371 161.93 406.974 160.327 406.974 158.35C406.974 156.372 405.371 154.769 403.394 154.769C401.416 154.769 399.813 156.372 399.813 158.35C399.813 160.327 401.416 161.93 403.394 161.93Z" fill="#699FFF"/>
<path d="M416.297 161.93C418.274 161.93 419.877 160.327 419.877 158.35C419.877 156.372 418.274 154.769 416.297 154.769C414.32 154.769 412.717 156.372 412.717 158.35C412.717 160.327 414.32 161.93 416.297 161.93Z" fill="#699FFF"/>
<path d="M429.193 161.93C431.17 161.93 432.773 160.327 432.773 158.35C432.773 156.372 431.17 154.769 429.193 154.769C427.216 154.769 425.613 156.372 425.613 158.35C425.613 160.327 427.216 161.93 429.193 161.93Z" fill="#699FFF"/>
<path d="M442.089 161.93C444.066 161.93 445.669 160.327 445.669 158.35C445.669 156.372 444.066 154.769 442.089 154.769C440.111 154.769 438.508 156.372 438.508 158.35C438.508 160.327 440.111 161.93 442.089 161.93Z" fill="#699FFF"/>
<path d="M454.99 161.93C456.967 161.93 458.57 160.327 458.57 158.35C458.57 156.372 456.967 154.769 454.99 154.769C453.012 154.769 451.409 156.372 451.409 158.35C451.409 160.327 453.012 161.93 454.99 161.93Z" fill="#699FFF"/>
<path d="M467.885 161.93C469.862 161.93 471.465 160.327 471.465 158.35C471.465 156.372 469.862 154.769 467.885 154.769C465.907 154.769 464.304 156.372 464.304 158.35C464.304 160.327 465.907 161.93 467.885 161.93Z" fill="#699FFF"/>
<path d="M480.786 161.93C482.763 161.93 484.366 160.327 484.366 158.35C484.366 156.372 482.763 154.769 480.786 154.769C478.809 154.769 477.206 156.372 477.206 158.35C477.206 160.327 478.809 161.93 480.786 161.93Z" fill="#699FFF"/>
<path d="M16.4759 174.825C18.4532 174.825 20.0561 173.222 20.0561 171.245C20.0561 169.267 18.4532 167.664 16.4759 167.664C14.4985 167.664 12.8956 169.267 12.8956 171.245C12.8956 173.222 14.4985 174.825 16.4759 174.825Z" fill="#699FFF"/>
<path d="M29.3764 174.825C31.3537 174.825 32.9567 173.222 32.9567 171.245C32.9567 169.267 31.3537 167.664 29.3764 167.664C27.3991 167.664 25.7961 169.267 25.7961 171.245C25.7961 173.222 27.3991 174.825 29.3764 174.825Z" fill="#699FFF"/>
<path d="M55.1677 174.825C57.1451 174.825 58.748 173.222 58.748 171.245C58.748 169.267 57.1451 167.664 55.1677 167.664C53.1904 167.664 51.5875 169.267 51.5875 171.245C51.5875 173.222 53.1904 174.825 55.1677 174.825Z" fill="#699FFF"/>
<path d="M68.0685 174.825C70.0459 174.825 71.6488 173.222 71.6488 171.245C71.6488 169.267 70.0459 167.664 68.0685 167.664C66.0912 167.664 64.4883 169.267 64.4883 171.245C64.4883 173.222 66.0912 174.825 68.0685 174.825Z" fill="#699FFF"/>
<path d="M80.9647 174.825C82.942 174.825 84.545 173.222 84.545 171.245C84.545 169.267 82.942 167.664 80.9647 167.664C78.9874 167.664 77.3844 169.267 77.3844 171.245C77.3844 173.222 78.9874 174.825 80.9647 174.825Z" fill="#699FFF"/>
<path d="M93.8655 174.825C95.8429 174.825 97.4458 173.222 97.4458 171.245C97.4458 169.267 95.8429 167.664 93.8655 167.664C91.8882 167.664 90.2852 169.267 90.2852 171.245C90.2852 173.222 91.8882 174.825 93.8655 174.825Z" fill="#699FFF"/>
<path d="M106.761 174.825C108.738 174.825 110.341 173.222 110.341 171.245C110.341 169.267 108.738 167.664 106.761 167.664C104.784 167.664 103.181 169.267 103.181 171.245C103.181 173.222 104.784 174.825 106.761 174.825Z" fill="#699FFF"/>
<path d="M119.657 174.825C121.634 174.825 123.237 173.222 123.237 171.245C123.237 169.267 121.634 167.664 119.657 167.664C117.679 167.664 116.076 169.267 116.076 171.245C116.076 173.222 117.679 174.825 119.657 174.825Z" fill="#699FFF"/>
<path d="M145.456 174.825C147.433 174.825 149.036 173.222 149.036 171.245C149.036 169.267 147.433 167.664 145.456 167.664C143.478 167.664 141.875 169.267 141.875 171.245C141.875 173.222 143.478 174.825 145.456 174.825Z" fill="#699FFF"/>
<path d="M158.351 174.825C160.329 174.825 161.932 173.222 161.932 171.245C161.932 169.267 160.329 167.664 158.351 167.664C156.374 167.664 154.771 169.267 154.771 171.245C154.771 173.222 156.374 174.825 158.351 174.825Z" fill="#699FFF"/>
<path d="M171.247 174.825C173.224 174.825 174.827 173.222 174.827 171.245C174.827 169.267 173.224 167.664 171.247 167.664C169.269 167.664 167.666 169.267 167.666 171.245C167.666 173.222 169.269 174.825 171.247 174.825Z" fill="#699FFF"/>
<path d="M184.142 174.825C186.12 174.825 187.723 173.222 187.723 171.245C187.723 169.267 186.12 167.664 184.142 167.664C182.165 167.664 180.562 169.267 180.562 171.245C180.562 173.222 182.165 174.825 184.142 174.825Z" fill="#699FFF"/>
<path d="M197.038 174.825C199.015 174.825 200.618 173.222 200.618 171.245C200.618 169.267 199.015 167.664 197.038 167.664C195.06 167.664 193.458 169.267 193.458 171.245C193.458 173.222 195.06 174.825 197.038 174.825Z" fill="#699FFF"/>
<path d="M209.938 174.825C211.916 174.825 213.519 173.222 213.519 171.245C213.519 169.267 211.916 167.664 209.938 167.664C207.961 167.664 206.358 169.267 206.358 171.245C206.358 173.222 207.961 174.825 209.938 174.825Z" fill="#699FFF"/>
<path d="M222.834 174.825C224.811 174.825 226.414 173.222 226.414 171.245C226.414 169.267 224.811 167.664 222.834 167.664C220.857 167.664 219.254 169.267 219.254 171.245C219.254 173.222 220.857 174.825 222.834 174.825Z" fill="#699FFF"/>
<path d="M235.735 174.825C237.712 174.825 239.315 173.222 239.315 171.245C239.315 169.267 237.712 167.664 235.735 167.664C233.758 167.664 232.155 169.267 232.155 171.245C232.155 173.222 233.758 174.825 235.735 174.825Z" fill="#699FFF"/>
<path d="M248.631 174.825C250.608 174.825 252.211 173.222 252.211 171.245C252.211 169.267 250.608 167.664 248.631 167.664C246.654 167.664 245.051 169.267 245.051 171.245C245.051 173.222 246.654 174.825 248.631 174.825Z" fill="#699FFF"/>
<path d="M261.527 174.825C263.504 174.825 265.107 173.222 265.107 171.245C265.107 169.267 263.504 167.664 261.527 167.664C259.549 167.664 257.946 169.267 257.946 171.245C257.946 173.222 259.549 174.825 261.527 174.825Z" fill="#699FFF"/>
<path d="M274.428 174.825C276.405 174.825 278.008 173.222 278.008 171.245C278.008 169.267 276.405 167.664 274.428 167.664C272.45 167.664 270.847 169.267 270.847 171.245C270.847 173.222 272.45 174.825 274.428 174.825Z" fill="#699FFF"/>
<path d="M287.323 174.825C289.3 174.825 290.903 173.222 290.903 171.245C290.903 169.267 289.3 167.664 287.323 167.664C285.345 167.664 283.742 169.267 283.742 171.245C283.742 173.222 285.345 174.825 287.323 174.825Z" fill="#699FFF"/>
<path d="M300.218 174.825C302.196 174.825 303.799 173.222 303.799 171.245C303.799 169.267 302.196 167.664 300.218 167.664C298.241 167.664 296.638 169.267 296.638 171.245C296.638 173.222 298.241 174.825 300.218 174.825Z" fill="#699FFF"/>
<path d="M313.119 174.825C315.097 174.825 316.7 173.222 316.7 171.245C316.7 169.267 315.097 167.664 313.119 167.664C311.142 167.664 309.539 169.267 309.539 171.245C309.539 173.222 311.142 174.825 313.119 174.825Z" fill="#699FFF"/>
<path d="M326.015 174.825C327.992 174.825 329.595 173.222 329.595 171.245C329.595 169.267 327.992 167.664 326.015 167.664C324.037 167.664 322.434 169.267 322.434 171.245C322.434 173.222 324.037 174.825 326.015 174.825Z" fill="#699FFF"/>
<path d="M338.91 174.825C340.888 174.825 342.491 173.222 342.491 171.245C342.491 169.267 340.888 167.664 338.91 167.664C336.933 167.664 335.33 169.267 335.33 171.245C335.33 173.222 336.933 174.825 338.91 174.825Z" fill="#699FFF"/>
<path d="M351.806 174.825C353.783 174.825 355.386 173.222 355.386 171.245C355.386 169.267 353.783 167.664 351.806 167.664C349.828 167.664 348.225 169.267 348.225 171.245C348.225 173.222 349.828 174.825 351.806 174.825Z" fill="#699FFF"/>
<path d="M364.702 174.825C366.679 174.825 368.282 173.222 368.282 171.245C368.282 169.267 366.679 167.664 364.702 167.664C362.725 167.664 361.122 169.267 361.122 171.245C361.122 173.222 362.725 174.825 364.702 174.825Z" fill="#699FFF"/>
<path d="M377.603 174.825C379.58 174.825 381.183 173.222 381.183 171.245C381.183 169.267 379.58 167.664 377.603 167.664C375.625 167.664 374.022 169.267 374.022 171.245C374.022 173.222 375.625 174.825 377.603 174.825Z" fill="#699FFF"/>
<path d="M390.498 174.825C392.476 174.825 394.079 173.222 394.079 171.245C394.079 169.267 392.476 167.664 390.498 167.664C388.521 167.664 386.918 169.267 386.918 171.245C386.918 173.222 388.521 174.825 390.498 174.825Z" fill="#699FFF"/>
<path d="M403.394 174.825C405.371 174.825 406.974 173.222 406.974 171.245C406.974 169.267 405.371 167.664 403.394 167.664C401.416 167.664 399.813 169.267 399.813 171.245C399.813 173.222 401.416 174.825 403.394 174.825Z" fill="#699FFF"/>
<path d="M416.297 174.825C418.274 174.825 419.877 173.222 419.877 171.245C419.877 169.267 418.274 167.664 416.297 167.664C414.32 167.664 412.717 169.267 412.717 171.245C412.717 173.222 414.32 174.825 416.297 174.825Z" fill="#699FFF"/>
<path d="M429.193 174.825C431.17 174.825 432.773 173.222 432.773 171.245C432.773 169.267 431.17 167.664 429.193 167.664C427.216 167.664 425.613 169.267 425.613 171.245C425.613 173.222 427.216 174.825 429.193 174.825Z" fill="#699FFF"/>
<path d="M442.089 174.825C444.066 174.825 445.669 173.222 445.669 171.245C445.669 169.267 444.066 167.664 442.089 167.664C440.111 167.664 438.508 169.267 438.508 171.245C438.508 173.222 440.111 174.825 442.089 174.825Z" fill="#699FFF"/>
<path d="M454.99 174.825C456.967 174.825 458.57 173.222 458.57 171.245C458.57 169.267 456.967 167.664 454.99 167.664C453.012 167.664 451.409 169.267 451.409 171.245C451.409 173.222 453.012 174.825 454.99 174.825Z" fill="#699FFF"/>
<path d="M467.885 174.825C469.862 174.825 471.465 173.222 471.465 171.245C471.465 169.267 469.862 167.664 467.885 167.664C465.907 167.664 464.304 169.267 464.304 171.245C464.304 173.222 465.907 174.825 467.885 174.825Z" fill="#699FFF"/>
<path d="M480.786 174.825C482.763 174.825 484.366 173.222 484.366 171.245C484.366 169.267 482.763 167.664 480.786 167.664C478.809 167.664 477.206 169.267 477.206 171.245C477.206 173.222 478.809 174.825 480.786 174.825Z" fill="#699FFF"/>
<path d="M493.681 174.825C495.658 174.825 497.261 173.222 497.261 171.245C497.261 169.267 495.658 167.664 493.681 167.664C491.704 167.664 490.101 169.267 490.101 171.245C490.101 173.222 491.704 174.825 493.681 174.825Z" fill="#699FFF"/>
<path d="M16.4759 187.729C18.4532 187.729 20.0561 186.126 20.0561 184.149C20.0561 182.171 18.4532 180.568 16.4759 180.568C14.4985 180.568 12.8956 182.171 12.8956 184.149C12.8956 186.126 14.4985 187.729 16.4759 187.729Z" fill="#699FFF"/>
<path d="M29.3764 187.729C31.3537 187.729 32.9567 186.126 32.9567 184.149C32.9567 182.171 31.3537 180.568 29.3764 180.568C27.3991 180.568 25.7961 182.171 25.7961 184.149C25.7961 186.126 27.3991 187.729 29.3764 187.729Z" fill="#699FFF"/>
<path d="M42.2723 187.729C44.2496 187.729 45.8525 186.126 45.8525 184.149C45.8525 182.171 44.2496 180.568 42.2723 180.568C40.2949 180.568 38.692 182.171 38.692 184.149C38.692 186.126 40.2949 187.729 42.2723 187.729Z" fill="#699FFF"/>
<path d="M55.1677 187.729C57.1451 187.729 58.748 186.126 58.748 184.149C58.748 182.171 57.1451 180.568 55.1677 180.568C53.1904 180.568 51.5875 182.171 51.5875 184.149C51.5875 186.126 53.1904 187.729 55.1677 187.729Z" fill="#699FFF"/>
<path d="M68.0685 187.729C70.0459 187.729 71.6488 186.126 71.6488 184.149C71.6488 182.171 70.0459 180.568 68.0685 180.568C66.0912 180.568 64.4883 182.171 64.4883 184.149C64.4883 186.126 66.0912 187.729 68.0685 187.729Z" fill="#699FFF"/>
<path d="M80.9647 187.729C82.942 187.729 84.545 186.126 84.545 184.149C84.545 182.171 82.942 180.568 80.9647 180.568C78.9874 180.568 77.3844 182.171 77.3844 184.149C77.3844 186.126 78.9874 187.729 80.9647 187.729Z" fill="#699FFF"/>
<path d="M93.8655 187.729C95.8429 187.729 97.4458 186.126 97.4458 184.149C97.4458 182.171 95.8429 180.568 93.8655 180.568C91.8882 180.568 90.2852 182.171 90.2852 184.149C90.2852 186.126 91.8882 187.729 93.8655 187.729Z" fill="#699FFF"/>
<path d="M106.761 187.729C108.738 187.729 110.341 186.126 110.341 184.149C110.341 182.171 108.738 180.568 106.761 180.568C104.784 180.568 103.181 182.171 103.181 184.149C103.181 186.126 104.784 187.729 106.761 187.729Z" fill="#699FFF"/>
<path d="M119.657 187.729C121.634 187.729 123.237 186.126 123.237 184.149C123.237 182.171 121.634 180.568 119.657 180.568C117.679 180.568 116.076 182.171 116.076 184.149C116.076 186.126 117.679 187.729 119.657 187.729Z" fill="#699FFF"/>
<path d="M132.56 187.729C134.537 187.729 136.14 186.126 136.14 184.149C136.14 182.171 134.537 180.568 132.56 180.568C130.583 180.568 128.98 182.171 128.98 184.149C128.98 186.126 130.583 187.729 132.56 187.729Z" fill="#699FFF"/>
<path d="M145.456 187.729C147.433 187.729 149.036 186.126 149.036 184.149C149.036 182.171 147.433 180.568 145.456 180.568C143.478 180.568 141.875 182.171 141.875 184.149C141.875 186.126 143.478 187.729 145.456 187.729Z" fill="#699FFF"/>
<path d="M158.351 187.729C160.329 187.729 161.932 186.126 161.932 184.149C161.932 182.171 160.329 180.568 158.351 180.568C156.374 180.568 154.771 182.171 154.771 184.149C154.771 186.126 156.374 187.729 158.351 187.729Z" fill="#699FFF"/>
<path d="M171.247 187.729C173.224 187.729 174.827 186.126 174.827 184.149C174.827 182.171 173.224 180.568 171.247 180.568C169.269 180.568 167.666 182.171 167.666 184.149C167.666 186.126 169.269 187.729 171.247 187.729Z" fill="#699FFF"/>
<path d="M184.142 187.729C186.12 187.729 187.723 186.126 187.723 184.149C187.723 182.171 186.12 180.568 184.142 180.568C182.165 180.568 180.562 182.171 180.562 184.149C180.562 186.126 182.165 187.729 184.142 187.729Z" fill="#699FFF"/>
<path d="M197.038 187.729C199.015 187.729 200.618 186.126 200.618 184.149C200.618 182.171 199.015 180.568 197.038 180.568C195.06 180.568 193.458 182.171 193.458 184.149C193.458 186.126 195.06 187.729 197.038 187.729Z" fill="#699FFF"/>
<path d="M209.938 187.729C211.916 187.729 213.519 186.126 213.519 184.149C213.519 182.171 211.916 180.568 209.938 180.568C207.961 180.568 206.358 182.171 206.358 184.149C206.358 186.126 207.961 187.729 209.938 187.729Z" fill="#699FFF"/>
<path d="M222.834 187.729C224.811 187.729 226.414 186.126 226.414 184.149C226.414 182.171 224.811 180.568 222.834 180.568C220.857 180.568 219.254 182.171 219.254 184.149C219.254 186.126 220.857 187.729 222.834 187.729Z" fill="#699FFF"/>
<path d="M235.735 187.729C237.712 187.729 239.315 186.126 239.315 184.149C239.315 182.171 237.712 180.568 235.735 180.568C233.758 180.568 232.155 182.171 232.155 184.149C232.155 186.126 233.758 187.729 235.735 187.729Z" fill="#699FFF"/>
<path d="M248.631 187.729C250.608 187.729 252.211 186.126 252.211 184.149C252.211 182.171 250.608 180.568 248.631 180.568C246.654 180.568 245.051 182.171 245.051 184.149C245.051 186.126 246.654 187.729 248.631 187.729Z" fill="#699FFF"/>
<path d="M261.527 187.729C263.504 187.729 265.107 186.126 265.107 184.149C265.107 182.171 263.504 180.568 261.527 180.568C259.549 180.568 257.946 182.171 257.946 184.149C257.946 186.126 259.549 187.729 261.527 187.729Z" fill="#699FFF"/>
<path d="M274.428 187.729C276.405 187.729 278.008 186.126 278.008 184.149C278.008 182.171 276.405 180.568 274.428 180.568C272.45 180.568 270.847 182.171 270.847 184.149C270.847 186.126 272.45 187.729 274.428 187.729Z" fill="#699FFF"/>
<path d="M287.323 187.729C289.3 187.729 290.903 186.126 290.903 184.149C290.903 182.171 289.3 180.568 287.323 180.568C285.345 180.568 283.742 182.171 283.742 184.149C283.742 186.126 285.345 187.729 287.323 187.729Z" fill="#699FFF"/>
<path d="M300.218 187.729C302.196 187.729 303.799 186.126 303.799 184.149C303.799 182.171 302.196 180.568 300.218 180.568C298.241 180.568 296.638 182.171 296.638 184.149C296.638 186.126 298.241 187.729 300.218 187.729Z" fill="#699FFF"/>
<path d="M313.119 187.729C315.097 187.729 316.7 186.126 316.7 184.149C316.7 182.171 315.097 180.568 313.119 180.568C311.142 180.568 309.539 182.171 309.539 184.149C309.539 186.126 311.142 187.729 313.119 187.729Z" fill="#699FFF"/>
<path d="M326.015 187.729C327.992 187.729 329.595 186.126 329.595 184.149C329.595 182.171 327.992 180.568 326.015 180.568C324.037 180.568 322.434 182.171 322.434 184.149C322.434 186.126 324.037 187.729 326.015 187.729Z" fill="#699FFF"/>
<path d="M338.91 187.729C340.888 187.729 342.491 186.126 342.491 184.149C342.491 182.171 340.888 180.568 338.91 180.568C336.933 180.568 335.33 182.171 335.33 184.149C335.33 186.126 336.933 187.729 338.91 187.729Z" fill="#699FFF"/>
<path d="M351.806 187.729C353.783 187.729 355.386 186.126 355.386 184.149C355.386 182.171 353.783 180.568 351.806 180.568C349.828 180.568 348.225 182.171 348.225 184.149C348.225 186.126 349.828 187.729 351.806 187.729Z" fill="#699FFF"/>
<path d="M364.702 187.729C366.679 187.729 368.282 186.126 368.282 184.149C368.282 182.171 366.679 180.568 364.702 180.568C362.725 180.568 361.122 182.171 361.122 184.149C361.122 186.126 362.725 187.729 364.702 187.729Z" fill="#699FFF"/>
<path d="M377.603 187.729C379.58 187.729 381.183 186.126 381.183 184.149C381.183 182.171 379.58 180.568 377.603 180.568C375.625 180.568 374.022 182.171 374.022 184.149C374.022 186.126 375.625 187.729 377.603 187.729Z" fill="#699FFF"/>
<path d="M390.498 187.729C392.476 187.729 394.079 186.126 394.079 184.149C394.079 182.171 392.476 180.568 390.498 180.568C388.521 180.568 386.918 182.171 386.918 184.149C386.918 186.126 388.521 187.729 390.498 187.729Z" fill="#699FFF"/>
<path d="M403.394 187.729C405.371 187.729 406.974 186.126 406.974 184.149C406.974 182.171 405.371 180.568 403.394 180.568C401.416 180.568 399.813 182.171 399.813 184.149C399.813 186.126 401.416 187.729 403.394 187.729Z" fill="#699FFF"/>
<path d="M416.297 187.729C418.274 187.729 419.877 186.126 419.877 184.149C419.877 182.171 418.274 180.568 416.297 180.568C414.32 180.568 412.717 182.171 412.717 184.149C412.717 186.126 414.32 187.729 416.297 187.729Z" fill="#699FFF"/>
<path d="M429.193 187.729C431.17 187.729 432.773 186.126 432.773 184.149C432.773 182.171 431.17 180.568 429.193 180.568C427.216 180.568 425.613 182.171 425.613 184.149C425.613 186.126 427.216 187.729 429.193 187.729Z" fill="#699FFF"/>
<path d="M442.089 187.729C444.066 187.729 445.669 186.126 445.669 184.149C445.669 182.171 444.066 180.568 442.089 180.568C440.111 180.568 438.508 182.171 438.508 184.149C438.508 186.126 440.111 187.729 442.089 187.729Z" fill="#699FFF"/>
<path d="M454.99 187.729C456.967 187.729 458.57 186.126 458.57 184.149C458.57 182.171 456.967 180.568 454.99 180.568C453.012 180.568 451.409 182.171 451.409 184.149C451.409 186.126 453.012 187.729 454.99 187.729Z" fill="#699FFF"/>
<path d="M467.885 187.729C469.862 187.729 471.465 186.126 471.465 184.149C471.465 182.171 469.862 180.568 467.885 180.568C465.907 180.568 464.304 182.171 464.304 184.149C464.304 186.126 465.907 187.729 467.885 187.729Z" fill="#699FFF"/>
<path d="M493.681 187.729C495.658 187.729 497.261 186.126 497.261 184.149C497.261 182.171 495.658 180.568 493.681 180.568C491.704 180.568 490.101 182.171 490.101 184.149C490.101 186.126 491.704 187.729 493.681 187.729Z" fill="#699FFF"/>
<path d="M16.4759 200.624C18.4532 200.624 20.0561 199.021 20.0561 197.043C20.0561 195.066 18.4532 193.463 16.4759 193.463C14.4985 193.463 12.8956 195.066 12.8956 197.043C12.8956 199.021 14.4985 200.624 16.4759 200.624Z" fill="#699FFF"/>
<path d="M29.3764 200.624C31.3537 200.624 32.9567 199.021 32.9567 197.043C32.9567 195.066 31.3537 193.463 29.3764 193.463C27.3991 193.463 25.7961 195.066 25.7961 197.043C25.7961 199.021 27.3991 200.624 29.3764 200.624Z" fill="#699FFF"/>
<path d="M42.2723 200.624C44.2496 200.624 45.8525 199.021 45.8525 197.043C45.8525 195.066 44.2496 193.463 42.2723 193.463C40.2949 193.463 38.692 195.066 38.692 197.043C38.692 199.021 40.2949 200.624 42.2723 200.624Z" fill="#699FFF"/>
<path d="M55.1677 200.624C57.1451 200.624 58.748 199.021 58.748 197.043C58.748 195.066 57.1451 193.463 55.1677 193.463C53.1904 193.463 51.5875 195.066 51.5875 197.043C51.5875 199.021 53.1904 200.624 55.1677 200.624Z" fill="#699FFF"/>
<path d="M68.0685 200.624C70.0459 200.624 71.6488 199.021 71.6488 197.043C71.6488 195.066 70.0459 193.463 68.0685 193.463C66.0912 193.463 64.4883 195.066 64.4883 197.043C64.4883 199.021 66.0912 200.624 68.0685 200.624Z" fill="#699FFF"/>
<path d="M80.9647 200.624C82.942 200.624 84.545 199.021 84.545 197.043C84.545 195.066 82.942 193.463 80.9647 193.463C78.9874 193.463 77.3844 195.066 77.3844 197.043C77.3844 199.021 78.9874 200.624 80.9647 200.624Z" fill="#699FFF"/>
<path d="M93.8655 200.624C95.8429 200.624 97.4458 199.021 97.4458 197.043C97.4458 195.066 95.8429 193.463 93.8655 193.463C91.8882 193.463 90.2852 195.066 90.2852 197.043C90.2852 199.021 91.8882 200.624 93.8655 200.624Z" fill="#699FFF"/>
<path d="M106.761 200.624C108.738 200.624 110.341 199.021 110.341 197.043C110.341 195.066 108.738 193.463 106.761 193.463C104.784 193.463 103.181 195.066 103.181 197.043C103.181 199.021 104.784 200.624 106.761 200.624Z" fill="#699FFF"/>
<path d="M119.657 200.624C121.634 200.624 123.237 199.021 123.237 197.043C123.237 195.066 121.634 193.463 119.657 193.463C117.679 193.463 116.076 195.066 116.076 197.043C116.076 199.021 117.679 200.624 119.657 200.624Z" fill="#699FFF"/>
<path d="M132.56 200.624C134.537 200.624 136.14 199.021 136.14 197.043C136.14 195.066 134.537 193.463 132.56 193.463C130.583 193.463 128.98 195.066 128.98 197.043C128.98 199.021 130.583 200.624 132.56 200.624Z" fill="#699FFF"/>
<path d="M145.456 200.624C147.433 200.624 149.036 199.021 149.036 197.043C149.036 195.066 147.433 193.463 145.456 193.463C143.478 193.463 141.875 195.066 141.875 197.043C141.875 199.021 143.478 200.624 145.456 200.624Z" fill="#699FFF"/>
<path d="M158.351 200.624C160.329 200.624 161.932 199.021 161.932 197.043C161.932 195.066 160.329 193.463 158.351 193.463C156.374 193.463 154.771 195.066 154.771 197.043C154.771 199.021 156.374 200.624 158.351 200.624Z" fill="#699FFF"/>
<path d="M171.247 200.624C173.224 200.624 174.827 199.021 174.827 197.043C174.827 195.066 173.224 193.463 171.247 193.463C169.269 193.463 167.666 195.066 167.666 197.043C167.666 199.021 169.269 200.624 171.247 200.624Z" fill="#699FFF"/>
<path d="M184.142 200.624C186.12 200.624 187.723 199.021 187.723 197.043C187.723 195.066 186.12 193.463 184.142 193.463C182.165 193.463 180.562 195.066 180.562 197.043C180.562 199.021 182.165 200.624 184.142 200.624Z" fill="#699FFF"/>
<path d="M197.038 200.624C199.015 200.624 200.618 199.021 200.618 197.043C200.618 195.066 199.015 193.463 197.038 193.463C195.06 193.463 193.458 195.066 193.458 197.043C193.458 199.021 195.06 200.624 197.038 200.624Z" fill="#699FFF"/>
<path d="M209.938 200.624C211.916 200.624 213.519 199.021 213.519 197.043C213.519 195.066 211.916 193.463 209.938 193.463C207.961 193.463 206.358 195.066 206.358 197.043C206.358 199.021 207.961 200.624 209.938 200.624Z" fill="#699FFF"/>
<path d="M222.834 200.624C224.811 200.624 226.414 199.021 226.414 197.043C226.414 195.066 224.811 193.463 222.834 193.463C220.857 193.463 219.254 195.066 219.254 197.043C219.254 199.021 220.857 200.624 222.834 200.624Z" fill="#699FFF"/>
<path d="M235.735 200.624C237.712 200.624 239.315 199.021 239.315 197.043C239.315 195.066 237.712 193.463 235.735 193.463C233.758 193.463 232.155 195.066 232.155 197.043C232.155 199.021 233.758 200.624 235.735 200.624Z" fill="#699FFF"/>
<path d="M248.631 200.624C250.608 200.624 252.211 199.021 252.211 197.043C252.211 195.066 250.608 193.463 248.631 193.463C246.654 193.463 245.051 195.066 245.051 197.043C245.051 199.021 246.654 200.624 248.631 200.624Z" fill="#699FFF"/>
<path d="M261.527 200.624C263.504 200.624 265.107 199.021 265.107 197.043C265.107 195.066 263.504 193.463 261.527 193.463C259.549 193.463 257.946 195.066 257.946 197.043C257.946 199.021 259.549 200.624 261.527 200.624Z" fill="#699FFF"/>
<path d="M274.428 200.624C276.405 200.624 278.008 199.021 278.008 197.043C278.008 195.066 276.405 193.463 274.428 193.463C272.45 193.463 270.847 195.066 270.847 197.043C270.847 199.021 272.45 200.624 274.428 200.624Z" fill="#699FFF"/>
<path d="M287.323 200.624C289.3 200.624 290.903 199.021 290.903 197.043C290.903 195.066 289.3 193.463 287.323 193.463C285.345 193.463 283.742 195.066 283.742 197.043C283.742 199.021 285.345 200.624 287.323 200.624Z" fill="#699FFF"/>
<path d="M300.218 200.624C302.196 200.624 303.799 199.021 303.799 197.043C303.799 195.066 302.196 193.463 300.218 193.463C298.241 193.463 296.638 195.066 296.638 197.043C296.638 199.021 298.241 200.624 300.218 200.624Z" fill="#699FFF"/>
<path d="M313.119 200.624C315.097 200.624 316.7 199.021 316.7 197.043C316.7 195.066 315.097 193.463 313.119 193.463C311.142 193.463 309.539 195.066 309.539 197.043C309.539 199.021 311.142 200.624 313.119 200.624Z" fill="#699FFF"/>
<path d="M326.015 200.624C327.992 200.624 329.595 199.021 329.595 197.043C329.595 195.066 327.992 193.463 326.015 193.463C324.037 193.463 322.434 195.066 322.434 197.043C322.434 199.021 324.037 200.624 326.015 200.624Z" fill="#699FFF"/>
<path d="M338.91 200.624C340.888 200.624 342.491 199.021 342.491 197.043C342.491 195.066 340.888 193.463 338.91 193.463C336.933 193.463 335.33 195.066 335.33 197.043C335.33 199.021 336.933 200.624 338.91 200.624Z" fill="#699FFF"/>
<path d="M351.806 200.624C353.783 200.624 355.386 199.021 355.386 197.043C355.386 195.066 353.783 193.463 351.806 193.463C349.828 193.463 348.225 195.066 348.225 197.043C348.225 199.021 349.828 200.624 351.806 200.624Z" fill="#699FFF"/>
<path d="M364.702 200.624C366.679 200.624 368.282 199.021 368.282 197.043C368.282 195.066 366.679 193.463 364.702 193.463C362.725 193.463 361.122 195.066 361.122 197.043C361.122 199.021 362.725 200.624 364.702 200.624Z" fill="#699FFF"/>
<path d="M377.603 200.624C379.58 200.624 381.183 199.021 381.183 197.043C381.183 195.066 379.58 193.463 377.603 193.463C375.625 193.463 374.022 195.066 374.022 197.043C374.022 199.021 375.625 200.624 377.603 200.624Z" fill="#699FFF"/>
<path d="M390.498 200.624C392.476 200.624 394.079 199.021 394.079 197.043C394.079 195.066 392.476 193.463 390.498 193.463C388.521 193.463 386.918 195.066 386.918 197.043C386.918 199.021 388.521 200.624 390.498 200.624Z" fill="#699FFF"/>
<path d="M403.394 200.624C405.371 200.624 406.974 199.021 406.974 197.043C406.974 195.066 405.371 193.463 403.394 193.463C401.416 193.463 399.813 195.066 399.813 197.043C399.813 199.021 401.416 200.624 403.394 200.624Z" fill="#699FFF"/>
<path d="M416.297 200.624C418.274 200.624 419.877 199.021 419.877 197.043C419.877 195.066 418.274 193.463 416.297 193.463C414.32 193.463 412.717 195.066 412.717 197.043C412.717 199.021 414.32 200.624 416.297 200.624Z" fill="#699FFF"/>
<path d="M429.193 200.624C431.17 200.624 432.773 199.021 432.773 197.043C432.773 195.066 431.17 193.463 429.193 193.463C427.216 193.463 425.613 195.066 425.613 197.043C425.613 199.021 427.216 200.624 429.193 200.624Z" fill="#699FFF"/>
<path d="M442.089 200.624C444.066 200.624 445.669 199.021 445.669 197.043C445.669 195.066 444.066 193.463 442.089 193.463C440.111 193.463 438.508 195.066 438.508 197.043C438.508 199.021 440.111 200.624 442.089 200.624Z" fill="#699FFF"/>
<path d="M454.99 200.624C456.967 200.624 458.57 199.021 458.57 197.043C458.57 195.066 456.967 193.463 454.99 193.463C453.012 193.463 451.409 195.066 451.409 197.043C451.409 199.021 453.012 200.624 454.99 200.624Z" fill="#699FFF"/>
<path d="M467.885 200.624C469.862 200.624 471.465 199.021 471.465 197.043C471.465 195.066 469.862 193.463 467.885 193.463C465.907 193.463 464.304 195.066 464.304 197.043C464.304 199.021 465.907 200.624 467.885 200.624Z" fill="#699FFF"/>
<path d="M3.58028 213.519C5.55761 213.519 7.16056 211.916 7.16056 209.939C7.16056 207.962 5.55761 206.359 3.58028 206.359C1.60294 206.359 0 207.962 0 209.939C0 211.916 1.60294 213.519 3.58028 213.519Z" fill="#699FFF"/>
<path d="M16.4759 213.519C18.4532 213.519 20.0561 211.916 20.0561 209.939C20.0561 207.962 18.4532 206.359 16.4759 206.359C14.4985 206.359 12.8956 207.962 12.8956 209.939C12.8956 211.916 14.4985 213.519 16.4759 213.519Z" fill="#699FFF"/>
<path d="M29.3764 213.519C31.3537 213.519 32.9567 211.916 32.9567 209.939C32.9567 207.962 31.3537 206.359 29.3764 206.359C27.3991 206.359 25.7961 207.962 25.7961 209.939C25.7961 211.916 27.3991 213.519 29.3764 213.519Z" fill="#699FFF"/>
<path d="M42.2723 213.519C44.2496 213.519 45.8525 211.916 45.8525 209.939C45.8525 207.962 44.2496 206.359 42.2723 206.359C40.2949 206.359 38.692 207.962 38.692 209.939C38.692 211.916 40.2949 213.519 42.2723 213.519Z" fill="#699FFF"/>
<path d="M55.1677 213.519C57.1451 213.519 58.748 211.916 58.748 209.939C58.748 207.962 57.1451 206.359 55.1677 206.359C53.1904 206.359 51.5875 207.962 51.5875 209.939C51.5875 211.916 53.1904 213.519 55.1677 213.519Z" fill="#699FFF"/>
<path d="M68.0685 213.519C70.0459 213.519 71.6488 211.916 71.6488 209.939C71.6488 207.962 70.0459 206.359 68.0685 206.359C66.0912 206.359 64.4883 207.962 64.4883 209.939C64.4883 211.916 66.0912 213.519 68.0685 213.519Z" fill="#699FFF"/>
<path d="M80.9647 213.519C82.942 213.519 84.545 211.916 84.545 209.939C84.545 207.962 82.942 206.359 80.9647 206.359C78.9874 206.359 77.3844 207.962 77.3844 209.939C77.3844 211.916 78.9874 213.519 80.9647 213.519Z" fill="#699FFF"/>
<path d="M93.8655 213.519C95.8429 213.519 97.4458 211.916 97.4458 209.939C97.4458 207.962 95.8429 206.359 93.8655 206.359C91.8882 206.359 90.2852 207.962 90.2852 209.939C90.2852 211.916 91.8882 213.519 93.8655 213.519Z" fill="#699FFF"/>
<path d="M106.761 213.519C108.738 213.519 110.341 211.916 110.341 209.939C110.341 207.962 108.738 206.359 106.761 206.359C104.784 206.359 103.181 207.962 103.181 209.939C103.181 211.916 104.784 213.519 106.761 213.519Z" fill="#699FFF"/>
<path d="M119.657 213.519C121.634 213.519 123.237 211.916 123.237 209.939C123.237 207.962 121.634 206.359 119.657 206.359C117.679 206.359 116.076 207.962 116.076 209.939C116.076 211.916 117.679 213.519 119.657 213.519Z" fill="#699FFF"/>
<path d="M132.56 213.519C134.537 213.519 136.14 211.916 136.14 209.939C136.14 207.962 134.537 206.359 132.56 206.359C130.583 206.359 128.98 207.962 128.98 209.939C128.98 211.916 130.583 213.519 132.56 213.519Z" fill="#699FFF"/>
<path d="M145.456 213.519C147.433 213.519 149.036 211.916 149.036 209.939C149.036 207.962 147.433 206.359 145.456 206.359C143.478 206.359 141.875 207.962 141.875 209.939C141.875 211.916 143.478 213.519 145.456 213.519Z" fill="#699FFF"/>
<path d="M158.351 213.519C160.329 213.519 161.932 211.916 161.932 209.939C161.932 207.962 160.329 206.359 158.351 206.359C156.374 206.359 154.771 207.962 154.771 209.939C154.771 211.916 156.374 213.519 158.351 213.519Z" fill="#699FFF"/>
<path d="M171.247 213.519C173.224 213.519 174.827 211.916 174.827 209.939C174.827 207.962 173.224 206.359 171.247 206.359C169.269 206.359 167.666 207.962 167.666 209.939C167.666 211.916 169.269 213.519 171.247 213.519Z" fill="#699FFF"/>
<path d="M184.142 213.519C186.12 213.519 187.723 211.916 187.723 209.939C187.723 207.962 186.12 206.359 184.142 206.359C182.165 206.359 180.562 207.962 180.562 209.939C180.562 211.916 182.165 213.519 184.142 213.519Z" fill="#699FFF"/>
<path d="M197.038 213.519C199.015 213.519 200.618 211.916 200.618 209.939C200.618 207.962 199.015 206.359 197.038 206.359C195.06 206.359 193.458 207.962 193.458 209.939C193.458 211.916 195.06 213.519 197.038 213.519Z" fill="#699FFF"/>
<path d="M209.938 213.519C211.916 213.519 213.519 211.916 213.519 209.939C213.519 207.962 211.916 206.359 209.938 206.359C207.961 206.359 206.358 207.962 206.358 209.939C206.358 211.916 207.961 213.519 209.938 213.519Z" fill="#699FFF"/>
<path d="M222.834 213.519C224.811 213.519 226.414 211.916 226.414 209.939C226.414 207.962 224.811 206.359 222.834 206.359C220.857 206.359 219.254 207.962 219.254 209.939C219.254 211.916 220.857 213.519 222.834 213.519Z" fill="#699FFF"/>
<path d="M235.735 213.519C237.712 213.519 239.315 211.916 239.315 209.939C239.315 207.962 237.712 206.359 235.735 206.359C233.758 206.359 232.155 207.962 232.155 209.939C232.155 211.916 233.758 213.519 235.735 213.519Z" fill="#699FFF"/>
<path d="M248.631 213.519C250.608 213.519 252.211 211.916 252.211 209.939C252.211 207.962 250.608 206.359 248.631 206.359C246.654 206.359 245.051 207.962 245.051 209.939C245.051 211.916 246.654 213.519 248.631 213.519Z" fill="#699FFF"/>
<path d="M261.527 213.519C263.504 213.519 265.107 211.916 265.107 209.939C265.107 207.962 263.504 206.359 261.527 206.359C259.549 206.359 257.946 207.962 257.946 209.939C257.946 211.916 259.549 213.519 261.527 213.519Z" fill="#699FFF"/>
<path d="M274.428 213.519C276.405 213.519 278.008 211.916 278.008 209.939C278.008 207.962 276.405 206.359 274.428 206.359C272.45 206.359 270.847 207.962 270.847 209.939C270.847 211.916 272.45 213.519 274.428 213.519Z" fill="#699FFF"/>
<path d="M287.323 213.519C289.3 213.519 290.903 211.916 290.903 209.939C290.903 207.962 289.3 206.359 287.323 206.359C285.345 206.359 283.742 207.962 283.742 209.939C283.742 211.916 285.345 213.519 287.323 213.519Z" fill="#699FFF"/>
<path d="M300.218 213.519C302.196 213.519 303.799 211.916 303.799 209.939C303.799 207.962 302.196 206.359 300.218 206.359C298.241 206.359 296.638 207.962 296.638 209.939C296.638 211.916 298.241 213.519 300.218 213.519Z" fill="#699FFF"/>
<path d="M313.119 213.519C315.097 213.519 316.7 211.916 316.7 209.939C316.7 207.962 315.097 206.359 313.119 206.359C311.142 206.359 309.539 207.962 309.539 209.939C309.539 211.916 311.142 213.519 313.119 213.519Z" fill="#699FFF"/>
<path d="M326.015 213.519C327.992 213.519 329.595 211.916 329.595 209.939C329.595 207.962 327.992 206.359 326.015 206.359C324.037 206.359 322.434 207.962 322.434 209.939C322.434 211.916 324.037 213.519 326.015 213.519Z" fill="#699FFF"/>
<path d="M338.91 213.519C340.888 213.519 342.491 211.916 342.491 209.939C342.491 207.962 340.888 206.359 338.91 206.359C336.933 206.359 335.33 207.962 335.33 209.939C335.33 211.916 336.933 213.519 338.91 213.519Z" fill="#699FFF"/>
<path d="M351.806 213.519C353.783 213.519 355.386 211.916 355.386 209.939C355.386 207.962 353.783 206.359 351.806 206.359C349.828 206.359 348.225 207.962 348.225 209.939C348.225 211.916 349.828 213.519 351.806 213.519Z" fill="#699FFF"/>
<path d="M364.702 213.519C366.679 213.519 368.282 211.916 368.282 209.939C368.282 207.962 366.679 206.359 364.702 206.359C362.725 206.359 361.122 207.962 361.122 209.939C361.122 211.916 362.725 213.519 364.702 213.519Z" fill="#699FFF"/>
<path d="M377.603 213.519C379.58 213.519 381.183 211.916 381.183 209.939C381.183 207.962 379.58 206.359 377.603 206.359C375.625 206.359 374.022 207.962 374.022 209.939C374.022 211.916 375.625 213.519 377.603 213.519Z" fill="#699FFF"/>
<path d="M390.498 213.519C392.476 213.519 394.079 211.916 394.079 209.939C394.079 207.962 392.476 206.359 390.498 206.359C388.521 206.359 386.918 207.962 386.918 209.939C386.918 211.916 388.521 213.519 390.498 213.519Z" fill="#699FFF"/>
<path d="M429.193 213.519C431.17 213.519 432.773 211.916 432.773 209.939C432.773 207.962 431.17 206.359 429.193 206.359C427.216 206.359 425.613 207.962 425.613 209.939C425.613 211.916 427.216 213.519 429.193 213.519Z" fill="#699FFF"/>
<path d="M442.089 213.519C444.066 213.519 445.669 211.916 445.669 209.939C445.669 207.962 444.066 206.359 442.089 206.359C440.111 206.359 438.508 207.962 438.508 209.939C438.508 211.916 440.111 213.519 442.089 213.519Z" fill="#699FFF"/>
<path d="M3.58028 226.419C5.55761 226.419 7.16056 224.816 7.16056 222.839C7.16056 220.862 5.55761 219.259 3.58028 219.259C1.60294 219.259 0 220.862 0 222.839C0 224.816 1.60294 226.419 3.58028 226.419Z" fill="#699FFF"/>
<path d="M16.4759 226.419C18.4532 226.419 20.0561 224.816 20.0561 222.839C20.0561 220.862 18.4532 219.259 16.4759 219.259C14.4985 219.259 12.8956 220.862 12.8956 222.839C12.8956 224.816 14.4985 226.419 16.4759 226.419Z" fill="#699FFF"/>
<path d="M29.3764 226.419C31.3537 226.419 32.9567 224.816 32.9567 222.839C32.9567 220.862 31.3537 219.259 29.3764 219.259C27.3991 219.259 25.7961 220.862 25.7961 222.839C25.7961 224.816 27.3991 226.419 29.3764 226.419Z" fill="#699FFF"/>
<path d="M42.2723 226.419C44.2496 226.419 45.8525 224.816 45.8525 222.839C45.8525 220.862 44.2496 219.259 42.2723 219.259C40.2949 219.259 38.692 220.862 38.692 222.839C38.692 224.816 40.2949 226.419 42.2723 226.419Z" fill="#699FFF"/>
<path d="M55.1677 226.419C57.1451 226.419 58.748 224.816 58.748 222.839C58.748 220.862 57.1451 219.259 55.1677 219.259C53.1904 219.259 51.5875 220.862 51.5875 222.839C51.5875 224.816 53.1904 226.419 55.1677 226.419Z" fill="#699FFF"/>
<path d="M68.0685 226.419C70.0459 226.419 71.6488 224.816 71.6488 222.839C71.6488 220.862 70.0459 219.259 68.0685 219.259C66.0912 219.259 64.4883 220.862 64.4883 222.839C64.4883 224.816 66.0912 226.419 68.0685 226.419Z" fill="#699FFF"/>
<path d="M80.9647 226.419C82.942 226.419 84.545 224.816 84.545 222.839C84.545 220.862 82.942 219.259 80.9647 219.259C78.9874 219.259 77.3844 220.862 77.3844 222.839C77.3844 224.816 78.9874 226.419 80.9647 226.419Z" fill="#699FFF"/>
<path d="M93.8655 226.419C95.8429 226.419 97.4458 224.816 97.4458 222.839C97.4458 220.862 95.8429 219.259 93.8655 219.259C91.8882 219.259 90.2852 220.862 90.2852 222.839C90.2852 224.816 91.8882 226.419 93.8655 226.419Z" fill="#699FFF"/>
<path d="M106.761 226.419C108.738 226.419 110.341 224.816 110.341 222.839C110.341 220.862 108.738 219.259 106.761 219.259C104.784 219.259 103.181 220.862 103.181 222.839C103.181 224.816 104.784 226.419 106.761 226.419Z" fill="#699FFF"/>
<path d="M119.657 226.419C121.634 226.419 123.237 224.816 123.237 222.839C123.237 220.862 121.634 219.259 119.657 219.259C117.679 219.259 116.076 220.862 116.076 222.839C116.076 224.816 117.679 226.419 119.657 226.419Z" fill="#699FFF"/>
<path d="M132.56 226.419C134.537 226.419 136.14 224.816 136.14 222.839C136.14 220.862 134.537 219.259 132.56 219.259C130.583 219.259 128.98 220.862 128.98 222.839C128.98 224.816 130.583 226.419 132.56 226.419Z" fill="#699FFF"/>
<path d="M145.456 226.419C147.433 226.419 149.036 224.816 149.036 222.839C149.036 220.862 147.433 219.259 145.456 219.259C143.478 219.259 141.875 220.862 141.875 222.839C141.875 224.816 143.478 226.419 145.456 226.419Z" fill="#699FFF"/>
<path d="M158.351 226.419C160.329 226.419 161.932 224.816 161.932 222.839C161.932 220.862 160.329 219.259 158.351 219.259C156.374 219.259 154.771 220.862 154.771 222.839C154.771 224.816 156.374 226.419 158.351 226.419Z" fill="#699FFF"/>
<path d="M171.247 226.419C173.224 226.419 174.827 224.816 174.827 222.839C174.827 220.862 173.224 219.259 171.247 219.259C169.269 219.259 167.666 220.862 167.666 222.839C167.666 224.816 169.269 226.419 171.247 226.419Z" fill="#699FFF"/>
<path d="M184.142 226.419C186.12 226.419 187.723 224.816 187.723 222.839C187.723 220.862 186.12 219.259 184.142 219.259C182.165 219.259 180.562 220.862 180.562 222.839C180.562 224.816 182.165 226.419 184.142 226.419Z" fill="#699FFF"/>
<path d="M197.038 226.419C199.015 226.419 200.618 224.816 200.618 222.839C200.618 220.862 199.015 219.259 197.038 219.259C195.06 219.259 193.458 220.862 193.458 222.839C193.458 224.816 195.06 226.419 197.038 226.419Z" fill="#699FFF"/>
<path d="M209.938 226.419C211.916 226.419 213.519 224.816 213.519 222.839C213.519 220.862 211.916 219.259 209.938 219.259C207.961 219.259 206.358 220.862 206.358 222.839C206.358 224.816 207.961 226.419 209.938 226.419Z" fill="#699FFF"/>
<path d="M222.834 226.419C224.811 226.419 226.414 224.816 226.414 222.839C226.414 220.862 224.811 219.259 222.834 219.259C220.857 219.259 219.254 220.862 219.254 222.839C219.254 224.816 220.857 226.419 222.834 226.419Z" fill="#699FFF"/>
<path d="M235.735 226.419C237.712 226.419 239.315 224.816 239.315 222.839C239.315 220.862 237.712 219.259 235.735 219.259C233.758 219.259 232.155 220.862 232.155 222.839C232.155 224.816 233.758 226.419 235.735 226.419Z" fill="#699FFF"/>
<path d="M248.631 226.419C250.608 226.419 252.211 224.816 252.211 222.839C252.211 220.862 250.608 219.259 248.631 219.259C246.654 219.259 245.051 220.862 245.051 222.839C245.051 224.816 246.654 226.419 248.631 226.419Z" fill="#699FFF"/>
<path d="M261.527 226.419C263.504 226.419 265.107 224.816 265.107 222.839C265.107 220.862 263.504 219.259 261.527 219.259C259.549 219.259 257.946 220.862 257.946 222.839C257.946 224.816 259.549 226.419 261.527 226.419Z" fill="#699FFF"/>
<path d="M274.428 226.419C276.405 226.419 278.008 224.816 278.008 222.839C278.008 220.862 276.405 219.259 274.428 219.259C272.45 219.259 270.847 220.862 270.847 222.839C270.847 224.816 272.45 226.419 274.428 226.419Z" fill="#699FFF"/>
<path d="M287.323 226.419C289.3 226.419 290.903 224.816 290.903 222.839C290.903 220.862 289.3 219.259 287.323 219.259C285.345 219.259 283.742 220.862 283.742 222.839C283.742 224.816 285.345 226.419 287.323 226.419Z" fill="#699FFF"/>
<path d="M300.218 226.419C302.196 226.419 303.799 224.816 303.799 222.839C303.799 220.862 302.196 219.259 300.218 219.259C298.241 219.259 296.638 220.862 296.638 222.839C296.638 224.816 298.241 226.419 300.218 226.419Z" fill="#699FFF"/>
<path d="M313.119 226.419C315.097 226.419 316.7 224.816 316.7 222.839C316.7 220.862 315.097 219.259 313.119 219.259C311.142 219.259 309.539 220.862 309.539 222.839C309.539 224.816 311.142 226.419 313.119 226.419Z" fill="#699FFF"/>
<path d="M326.015 226.419C327.992 226.419 329.595 224.816 329.595 222.839C329.595 220.862 327.992 219.259 326.015 219.259C324.037 219.259 322.434 220.862 322.434 222.839C322.434 224.816 324.037 226.419 326.015 226.419Z" fill="#699FFF"/>
<path d="M338.91 226.419C340.888 226.419 342.491 224.816 342.491 222.839C342.491 220.862 340.888 219.259 338.91 219.259C336.933 219.259 335.33 220.862 335.33 222.839C335.33 224.816 336.933 226.419 338.91 226.419Z" fill="#699FFF"/>
<path d="M351.806 226.419C353.783 226.419 355.386 224.816 355.386 222.839C355.386 220.862 353.783 219.259 351.806 219.259C349.828 219.259 348.225 220.862 348.225 222.839C348.225 224.816 349.828 226.419 351.806 226.419Z" fill="#699FFF"/>
<path d="M416.297 226.419C418.274 226.419 419.877 224.816 419.877 222.839C419.877 220.862 418.274 219.259 416.297 219.259C414.32 219.259 412.717 220.862 412.717 222.839C412.717 224.816 414.32 226.419 416.297 226.419Z" fill="#699FFF"/>
<path d="M3.58028 239.315C5.55761 239.315 7.16056 237.713 7.16056 235.735C7.16056 233.758 5.55761 232.155 3.58028 232.155C1.60294 232.155 0 233.758 0 235.735C0 237.713 1.60294 239.315 3.58028 239.315Z" fill="#699FFF"/>
<path d="M16.4759 239.315C18.4532 239.315 20.0561 237.713 20.0561 235.735C20.0561 233.758 18.4532 232.155 16.4759 232.155C14.4985 232.155 12.8956 233.758 12.8956 235.735C12.8956 237.713 14.4985 239.315 16.4759 239.315Z" fill="#699FFF"/>
<path d="M29.3764 239.315C31.3537 239.315 32.9567 237.713 32.9567 235.735C32.9567 233.758 31.3537 232.155 29.3764 232.155C27.3991 232.155 25.7961 233.758 25.7961 235.735C25.7961 237.713 27.3991 239.315 29.3764 239.315Z" fill="#699FFF"/>
<path d="M42.2723 239.315C44.2496 239.315 45.8525 237.713 45.8525 235.735C45.8525 233.758 44.2496 232.155 42.2723 232.155C40.2949 232.155 38.692 233.758 38.692 235.735C38.692 237.713 40.2949 239.315 42.2723 239.315Z" fill="#699FFF"/>
<path d="M55.1677 239.315C57.1451 239.315 58.748 237.713 58.748 235.735C58.748 233.758 57.1451 232.155 55.1677 232.155C53.1904 232.155 51.5875 233.758 51.5875 235.735C51.5875 237.713 53.1904 239.315 55.1677 239.315Z" fill="#699FFF"/>
<path d="M68.0685 239.315C70.0459 239.315 71.6488 237.713 71.6488 235.735C71.6488 233.758 70.0459 232.155 68.0685 232.155C66.0912 232.155 64.4883 233.758 64.4883 235.735C64.4883 237.713 66.0912 239.315 68.0685 239.315Z" fill="#699FFF"/>
<path d="M80.9647 239.315C82.942 239.315 84.545 237.713 84.545 235.735C84.545 233.758 82.942 232.155 80.9647 232.155C78.9874 232.155 77.3844 233.758 77.3844 235.735C77.3844 237.713 78.9874 239.315 80.9647 239.315Z" fill="#699FFF"/>
<path d="M93.8655 239.315C95.8429 239.315 97.4458 237.713 97.4458 235.735C97.4458 233.758 95.8429 232.155 93.8655 232.155C91.8882 232.155 90.2852 233.758 90.2852 235.735C90.2852 237.713 91.8882 239.315 93.8655 239.315Z" fill="#699FFF"/>
<path d="M106.761 239.315C108.738 239.315 110.341 237.713 110.341 235.735C110.341 233.758 108.738 232.155 106.761 232.155C104.784 232.155 103.181 233.758 103.181 235.735C103.181 237.713 104.784 239.315 106.761 239.315Z" fill="#699FFF"/>
<path d="M119.657 239.315C121.634 239.315 123.237 237.713 123.237 235.735C123.237 233.758 121.634 232.155 119.657 232.155C117.679 232.155 116.076 233.758 116.076 235.735C116.076 237.713 117.679 239.315 119.657 239.315Z" fill="#699FFF"/>
<path d="M132.56 239.315C134.537 239.315 136.14 237.713 136.14 235.735C136.14 233.758 134.537 232.155 132.56 232.155C130.583 232.155 128.98 233.758 128.98 235.735C128.98 237.713 130.583 239.315 132.56 239.315Z" fill="#699FFF"/>
<path d="M145.456 239.315C147.433 239.315 149.036 237.713 149.036 235.735C149.036 233.758 147.433 232.155 145.456 232.155C143.478 232.155 141.875 233.758 141.875 235.735C141.875 237.713 143.478 239.315 145.456 239.315Z" fill="#699FFF"/>
<path d="M158.351 239.315C160.329 239.315 161.932 237.713 161.932 235.735C161.932 233.758 160.329 232.155 158.351 232.155C156.374 232.155 154.771 233.758 154.771 235.735C154.771 237.713 156.374 239.315 158.351 239.315Z" fill="#699FFF"/>
<path d="M171.247 239.315C173.224 239.315 174.827 237.713 174.827 235.735C174.827 233.758 173.224 232.155 171.247 232.155C169.269 232.155 167.666 233.758 167.666 235.735C167.666 237.713 169.269 239.315 171.247 239.315Z" fill="#699FFF"/>
<path d="M184.142 239.315C186.12 239.315 187.723 237.713 187.723 235.735C187.723 233.758 186.12 232.155 184.142 232.155C182.165 232.155 180.562 233.758 180.562 235.735C180.562 237.713 182.165 239.315 184.142 239.315Z" fill="#699FFF"/>
<path d="M197.038 239.315C199.015 239.315 200.618 237.713 200.618 235.735C200.618 233.758 199.015 232.155 197.038 232.155C195.06 232.155 193.458 233.758 193.458 235.735C193.458 237.713 195.06 239.315 197.038 239.315Z" fill="#699FFF"/>
<path d="M209.938 239.315C211.916 239.315 213.519 237.713 213.519 235.735C213.519 233.758 211.916 232.155 209.938 232.155C207.961 232.155 206.358 233.758 206.358 235.735C206.358 237.713 207.961 239.315 209.938 239.315Z" fill="#699FFF"/>
<path d="M222.834 239.315C224.811 239.315 226.414 237.713 226.414 235.735C226.414 233.758 224.811 232.155 222.834 232.155C220.857 232.155 219.254 233.758 219.254 235.735C219.254 237.713 220.857 239.315 222.834 239.315Z" fill="#699FFF"/>
<path d="M235.735 239.315C237.712 239.315 239.315 237.713 239.315 235.735C239.315 233.758 237.712 232.155 235.735 232.155C233.758 232.155 232.155 233.758 232.155 235.735C232.155 237.713 233.758 239.315 235.735 239.315Z" fill="#699FFF"/>
<path d="M248.631 239.315C250.608 239.315 252.211 237.713 252.211 235.735C252.211 233.758 250.608 232.155 248.631 232.155C246.654 232.155 245.051 233.758 245.051 235.735C245.051 237.713 246.654 239.315 248.631 239.315Z" fill="#699FFF"/>
<path d="M261.527 239.315C263.504 239.315 265.107 237.713 265.107 235.735C265.107 233.758 263.504 232.155 261.527 232.155C259.549 232.155 257.946 233.758 257.946 235.735C257.946 237.713 259.549 239.315 261.527 239.315Z" fill="#699FFF"/>
<path d="M274.428 239.315C276.405 239.315 278.008 237.713 278.008 235.735C278.008 233.758 276.405 232.155 274.428 232.155C272.45 232.155 270.847 233.758 270.847 235.735C270.847 237.713 272.45 239.315 274.428 239.315Z" fill="#699FFF"/>
<path d="M287.323 239.315C289.3 239.315 290.903 237.713 290.903 235.735C290.903 233.758 289.3 232.155 287.323 232.155C285.345 232.155 283.742 233.758 283.742 235.735C283.742 237.713 285.345 239.315 287.323 239.315Z" fill="#699FFF"/>
<path d="M300.218 239.315C302.196 239.315 303.799 237.713 303.799 235.735C303.799 233.758 302.196 232.155 300.218 232.155C298.241 232.155 296.638 233.758 296.638 235.735C296.638 237.713 298.241 239.315 300.218 239.315Z" fill="#699FFF"/>
<path d="M313.119 239.315C315.097 239.315 316.7 237.713 316.7 235.735C316.7 233.758 315.097 232.155 313.119 232.155C311.142 232.155 309.539 233.758 309.539 235.735C309.539 237.713 311.142 239.315 313.119 239.315Z" fill="#699FFF"/>
<path d="M326.015 239.315C327.992 239.315 329.595 237.713 329.595 235.735C329.595 233.758 327.992 232.155 326.015 232.155C324.037 232.155 322.434 233.758 322.434 235.735C322.434 237.713 324.037 239.315 326.015 239.315Z" fill="#699FFF"/>
<path d="M338.91 239.315C340.888 239.315 342.491 237.713 342.491 235.735C342.491 233.758 340.888 232.155 338.91 232.155C336.933 232.155 335.33 233.758 335.33 235.735C335.33 237.713 336.933 239.315 338.91 239.315Z" fill="#699FFF"/>
<path d="M403.394 239.315C405.371 239.315 406.974 237.713 406.974 235.735C406.974 233.758 405.371 232.155 403.394 232.155C401.416 232.155 399.813 233.758 399.813 235.735C399.813 237.713 401.416 239.315 403.394 239.315Z" fill="#699FFF"/>
<path d="M416.297 239.315C418.274 239.315 419.877 237.713 419.877 235.735C419.877 233.758 418.274 232.155 416.297 232.155C414.32 232.155 412.717 233.758 412.717 235.735C412.717 237.713 414.32 239.315 416.297 239.315Z" fill="#699FFF"/>
<path d="M16.4759 252.211C18.4532 252.211 20.0561 250.608 20.0561 248.631C20.0561 246.653 18.4532 245.05 16.4759 245.05C14.4985 245.05 12.8956 246.653 12.8956 248.631C12.8956 250.608 14.4985 252.211 16.4759 252.211Z" fill="#699FFF"/>
<path d="M29.3764 252.211C31.3537 252.211 32.9567 250.608 32.9567 248.631C32.9567 246.653 31.3537 245.05 29.3764 245.05C27.3991 245.05 25.7961 246.653 25.7961 248.631C25.7961 250.608 27.3991 252.211 29.3764 252.211Z" fill="#699FFF"/>
<path d="M42.2723 252.211C44.2496 252.211 45.8525 250.608 45.8525 248.631C45.8525 246.653 44.2496 245.05 42.2723 245.05C40.2949 245.05 38.692 246.653 38.692 248.631C38.692 250.608 40.2949 252.211 42.2723 252.211Z" fill="#699FFF"/>
<path d="M55.1677 252.211C57.1451 252.211 58.748 250.608 58.748 248.631C58.748 246.653 57.1451 245.05 55.1677 245.05C53.1904 245.05 51.5875 246.653 51.5875 248.631C51.5875 250.608 53.1904 252.211 55.1677 252.211Z" fill="#699FFF"/>
<path d="M68.0685 252.211C70.0459 252.211 71.6488 250.608 71.6488 248.631C71.6488 246.653 70.0459 245.05 68.0685 245.05C66.0912 245.05 64.4883 246.653 64.4883 248.631C64.4883 250.608 66.0912 252.211 68.0685 252.211Z" fill="#699FFF"/>
<path d="M80.9647 252.211C82.942 252.211 84.545 250.608 84.545 248.631C84.545 246.653 82.942 245.05 80.9647 245.05C78.9874 245.05 77.3844 246.653 77.3844 248.631C77.3844 250.608 78.9874 252.211 80.9647 252.211Z" fill="#699FFF"/>
<path d="M93.8655 252.211C95.8429 252.211 97.4458 250.608 97.4458 248.631C97.4458 246.653 95.8429 245.05 93.8655 245.05C91.8882 245.05 90.2852 246.653 90.2852 248.631C90.2852 250.608 91.8882 252.211 93.8655 252.211Z" fill="#699FFF"/>
<path d="M106.761 252.211C108.738 252.211 110.341 250.608 110.341 248.631C110.341 246.653 108.738 245.05 106.761 245.05C104.784 245.05 103.181 246.653 103.181 248.631C103.181 250.608 104.784 252.211 106.761 252.211Z" fill="#699FFF"/>
<path d="M145.456 252.211C147.433 252.211 149.036 250.608 149.036 248.631C149.036 246.653 147.433 245.05 145.456 245.05C143.478 245.05 141.875 246.653 141.875 248.631C141.875 250.608 143.478 252.211 145.456 252.211Z" fill="#699FFF"/>
<path d="M158.351 252.211C160.329 252.211 161.932 250.608 161.932 248.631C161.932 246.653 160.329 245.05 158.351 245.05C156.374 245.05 154.771 246.653 154.771 248.631C154.771 250.608 156.374 252.211 158.351 252.211Z" fill="#699FFF"/>
<path d="M171.247 252.211C173.224 252.211 174.827 250.608 174.827 248.631C174.827 246.653 173.224 245.05 171.247 245.05C169.269 245.05 167.666 246.653 167.666 248.631C167.666 250.608 169.269 252.211 171.247 252.211Z" fill="#699FFF"/>
<path d="M184.142 252.211C186.12 252.211 187.723 250.608 187.723 248.631C187.723 246.653 186.12 245.05 184.142 245.05C182.165 245.05 180.562 246.653 180.562 248.631C180.562 250.608 182.165 252.211 184.142 252.211Z" fill="#699FFF"/>
<path d="M197.038 252.211C199.015 252.211 200.618 250.608 200.618 248.631C200.618 246.653 199.015 245.05 197.038 245.05C195.06 245.05 193.458 246.653 193.458 248.631C193.458 250.608 195.06 252.211 197.038 252.211Z" fill="#699FFF"/>
<path d="M209.938 252.211C211.916 252.211 213.519 250.608 213.519 248.631C213.519 246.653 211.916 245.05 209.938 245.05C207.961 245.05 206.358 246.653 206.358 248.631C206.358 250.608 207.961 252.211 209.938 252.211Z" fill="#699FFF"/>
<path d="M222.834 252.211C224.811 252.211 226.414 250.608 226.414 248.631C226.414 246.653 224.811 245.05 222.834 245.05C220.857 245.05 219.254 246.653 219.254 248.631C219.254 250.608 220.857 252.211 222.834 252.211Z" fill="#699FFF"/>
<path d="M235.735 252.211C237.712 252.211 239.315 250.608 239.315 248.631C239.315 246.653 237.712 245.05 235.735 245.05C233.758 245.05 232.155 246.653 232.155 248.631C232.155 250.608 233.758 252.211 235.735 252.211Z" fill="#699FFF"/>
<path d="M248.631 252.211C250.608 252.211 252.211 250.608 252.211 248.631C252.211 246.653 250.608 245.05 248.631 245.05C246.654 245.05 245.051 246.653 245.051 248.631C245.051 250.608 246.654 252.211 248.631 252.211Z" fill="#699FFF"/>
<path d="M261.527 252.211C263.504 252.211 265.107 250.608 265.107 248.631C265.107 246.653 263.504 245.05 261.527 245.05C259.549 245.05 257.946 246.653 257.946 248.631C257.946 250.608 259.549 252.211 261.527 252.211Z" fill="#699FFF"/>
<path d="M274.428 252.211C276.405 252.211 278.008 250.608 278.008 248.631C278.008 246.653 276.405 245.05 274.428 245.05C272.45 245.05 270.847 246.653 270.847 248.631C270.847 250.608 272.45 252.211 274.428 252.211Z" fill="#699FFF"/>
<path d="M287.323 252.211C289.3 252.211 290.903 250.608 290.903 248.631C290.903 246.653 289.3 245.05 287.323 245.05C285.345 245.05 283.742 246.653 283.742 248.631C283.742 250.608 285.345 252.211 287.323 252.211Z" fill="#699FFF"/>
<path d="M300.218 252.211C302.196 252.211 303.799 250.608 303.799 248.631C303.799 246.653 302.196 245.05 300.218 245.05C298.241 245.05 296.638 246.653 296.638 248.631C296.638 250.608 298.241 252.211 300.218 252.211Z" fill="#699FFF"/>
<path d="M313.119 252.211C315.097 252.211 316.7 250.608 316.7 248.631C316.7 246.653 315.097 245.05 313.119 245.05C311.142 245.05 309.539 246.653 309.539 248.631C309.539 250.608 311.142 252.211 313.119 252.211Z" fill="#699FFF"/>
<path d="M326.015 252.211C327.992 252.211 329.595 250.608 329.595 248.631C329.595 246.653 327.992 245.05 326.015 245.05C324.037 245.05 322.434 246.653 322.434 248.631C322.434 250.608 324.037 252.211 326.015 252.211Z" fill="#699FFF"/>
<path d="M338.91 252.211C340.888 252.211 342.491 250.608 342.491 248.631C342.491 246.653 340.888 245.05 338.91 245.05C336.933 245.05 335.33 246.653 335.33 248.631C335.33 250.608 336.933 252.211 338.91 252.211Z" fill="#699FFF"/>
<path d="M403.394 252.211C405.371 252.211 406.974 250.608 406.974 248.631C406.974 246.653 405.371 245.05 403.394 245.05C401.416 245.05 399.813 246.653 399.813 248.631C399.813 250.608 401.416 252.211 403.394 252.211Z" fill="#699FFF"/>
<path d="M29.3764 265.111C31.3537 265.111 32.9567 263.508 32.9567 261.531C32.9567 259.553 31.3537 257.95 29.3764 257.95C27.3991 257.95 25.7961 259.553 25.7961 261.531C25.7961 263.508 27.3991 265.111 29.3764 265.111Z" fill="#699FFF"/>
<path d="M42.2723 265.111C44.2496 265.111 45.8525 263.508 45.8525 261.531C45.8525 259.553 44.2496 257.95 42.2723 257.95C40.2949 257.95 38.692 259.553 38.692 261.531C38.692 263.508 40.2949 265.111 42.2723 265.111Z" fill="#699FFF"/>
<path d="M55.1677 265.111C57.1451 265.111 58.748 263.508 58.748 261.531C58.748 259.553 57.1451 257.95 55.1677 257.95C53.1904 257.95 51.5875 259.553 51.5875 261.531C51.5875 263.508 53.1904 265.111 55.1677 265.111Z" fill="#699FFF"/>
<path d="M68.0685 265.111C70.0459 265.111 71.6488 263.508 71.6488 261.531C71.6488 259.553 70.0459 257.95 68.0685 257.95C66.0912 257.95 64.4883 259.553 64.4883 261.531C64.4883 263.508 66.0912 265.111 68.0685 265.111Z" fill="#699FFF"/>
<path d="M80.9647 265.111C82.942 265.111 84.545 263.508 84.545 261.531C84.545 259.553 82.942 257.95 80.9647 257.95C78.9874 257.95 77.3844 259.553 77.3844 261.531C77.3844 263.508 78.9874 265.111 80.9647 265.111Z" fill="#699FFF"/>
<path d="M93.8655 265.111C95.8429 265.111 97.4458 263.508 97.4458 261.531C97.4458 259.553 95.8429 257.95 93.8655 257.95C91.8882 257.95 90.2852 259.553 90.2852 261.531C90.2852 263.508 91.8882 265.111 93.8655 265.111Z" fill="#699FFF"/>
<path d="M171.247 265.111C173.224 265.111 174.827 263.508 174.827 261.531C174.827 259.553 173.224 257.95 171.247 257.95C169.269 257.95 167.666 259.553 167.666 261.531C167.666 263.508 169.269 265.111 171.247 265.111Z" fill="#699FFF"/>
<path d="M184.142 265.111C186.12 265.111 187.723 263.508 187.723 261.531C187.723 259.553 186.12 257.95 184.142 257.95C182.165 257.95 180.562 259.553 180.562 261.531C180.562 263.508 182.165 265.111 184.142 265.111Z" fill="#699FFF"/>
<path d="M197.038 265.111C199.015 265.111 200.618 263.508 200.618 261.531C200.618 259.553 199.015 257.95 197.038 257.95C195.06 257.95 193.458 259.553 193.458 261.531C193.458 263.508 195.06 265.111 197.038 265.111Z" fill="#699FFF"/>
<path d="M209.938 265.111C211.916 265.111 213.519 263.508 213.519 261.531C213.519 259.553 211.916 257.95 209.938 257.95C207.961 257.95 206.358 259.553 206.358 261.531C206.358 263.508 207.961 265.111 209.938 265.111Z" fill="#699FFF"/>
<path d="M235.735 265.111C237.712 265.111 239.315 263.508 239.315 261.531C239.315 259.553 237.712 257.95 235.735 257.95C233.758 257.95 232.155 259.553 232.155 261.531C232.155 263.508 233.758 265.111 235.735 265.111Z" fill="#699FFF"/>
<path d="M248.631 265.111C250.608 265.111 252.211 263.508 252.211 261.531C252.211 259.553 250.608 257.95 248.631 257.95C246.654 257.95 245.051 259.553 245.051 261.531C245.051 263.508 246.654 265.111 248.631 265.111Z" fill="#699FFF"/>
<path d="M261.527 265.111C263.504 265.111 265.107 263.508 265.107 261.531C265.107 259.553 263.504 257.95 261.527 257.95C259.549 257.95 257.946 259.553 257.946 261.531C257.946 263.508 259.549 265.111 261.527 265.111Z" fill="#699FFF"/>
<path d="M274.428 265.111C276.405 265.111 278.008 263.508 278.008 261.531C278.008 259.553 276.405 257.95 274.428 257.95C272.45 257.95 270.847 259.553 270.847 261.531C270.847 263.508 272.45 265.111 274.428 265.111Z" fill="#699FFF"/>
<path d="M287.323 265.111C289.3 265.111 290.903 263.508 290.903 261.531C290.903 259.553 289.3 257.95 287.323 257.95C285.345 257.95 283.742 259.553 283.742 261.531C283.742 263.508 285.345 265.111 287.323 265.111Z" fill="#699FFF"/>
<path d="M313.119 265.111C315.097 265.111 316.7 263.508 316.7 261.531C316.7 259.553 315.097 257.95 313.119 257.95C311.142 257.95 309.539 259.553 309.539 261.531C309.539 263.508 311.142 265.111 313.119 265.111Z" fill="#699FFF"/>
<path d="M326.015 265.111C327.992 265.111 329.595 263.508 329.595 261.531C329.595 259.553 327.992 257.95 326.015 257.95C324.037 257.95 322.434 259.553 322.434 261.531C322.434 263.508 324.037 265.111 326.015 265.111Z" fill="#699FFF"/>
<path d="M338.91 265.111C340.888 265.111 342.491 263.508 342.491 261.531C342.491 259.553 340.888 257.95 338.91 257.95C336.933 257.95 335.33 259.553 335.33 261.531C335.33 263.508 336.933 265.111 338.91 265.111Z" fill="#699FFF"/>
<path d="M351.806 265.111C353.783 265.111 355.386 263.508 355.386 261.531C355.386 259.553 353.783 257.95 351.806 257.95C349.828 257.95 348.225 259.553 348.225 261.531C348.225 263.508 349.828 265.111 351.806 265.111Z" fill="#699FFF"/>
<path d="M403.394 265.111C405.371 265.111 406.974 263.508 406.974 261.531C406.974 259.553 405.371 257.95 403.394 257.95C401.416 257.95 399.813 259.553 399.813 261.531C399.813 263.508 401.416 265.111 403.394 265.111Z" fill="#699FFF"/>
<path d="M42.2723 278.006C44.2496 278.006 45.8525 276.403 45.8525 274.426C45.8525 272.449 44.2496 270.846 42.2723 270.846C40.2949 270.846 38.692 272.449 38.692 274.426C38.692 276.403 40.2949 278.006 42.2723 278.006Z" fill="#699FFF"/>
<path d="M55.1677 278.006C57.1451 278.006 58.748 276.403 58.748 274.426C58.748 272.449 57.1451 270.846 55.1677 270.846C53.1904 270.846 51.5875 272.449 51.5875 274.426C51.5875 276.403 53.1904 278.006 55.1677 278.006Z" fill="#699FFF"/>
<path d="M326.015 278.006C327.992 278.006 329.595 276.403 329.595 274.426C329.595 272.449 327.992 270.846 326.015 270.846C324.037 270.846 322.434 272.449 322.434 274.426C322.434 276.403 324.037 278.006 326.015 278.006Z" fill="#699FFF"/>
<path d="M338.91 278.006C340.888 278.006 342.491 276.403 342.491 274.426C342.491 272.449 340.888 270.846 338.91 270.846C336.933 270.846 335.33 272.449 335.33 274.426C335.33 276.403 336.933 278.006 338.91 278.006Z" fill="#699FFF"/>
<path d="M42.2723 290.902C44.2496 290.902 45.8525 289.299 45.8525 287.322C45.8525 285.344 44.2496 283.742 42.2723 283.742C40.2949 283.742 38.692 285.344 38.692 287.322C38.692 289.299 40.2949 290.902 42.2723 290.902Z" fill="#699FFF"/>
<path d="M55.1677 290.902C57.1451 290.902 58.748 289.299 58.748 287.322C58.748 285.344 57.1451 283.742 55.1677 283.742C53.1904 283.742 51.5875 285.344 51.5875 287.322C51.5875 289.299 53.1904 290.902 55.1677 290.902Z" fill="#699FFF"/>
<path d="M338.91 290.902C340.888 290.902 342.491 289.299 342.491 287.322C342.491 285.344 340.888 283.742 338.91 283.742C336.933 283.742 335.33 285.344 335.33 287.322C335.33 289.299 336.933 290.902 338.91 290.902Z" fill="#699FFF"/>
<path d="M42.2723 303.804C44.2496 303.804 45.8525 302.202 45.8525 300.224C45.8525 298.247 44.2496 296.644 42.2723 296.644C40.2949 296.644 38.692 298.247 38.692 300.224C38.692 302.202 40.2949 303.804 42.2723 303.804Z" fill="#699FFF"/>
<path d="M55.1677 303.804C57.1451 303.804 58.748 302.202 58.748 300.224C58.748 298.247 57.1451 296.644 55.1677 296.644C53.1904 296.644 51.5875 298.247 51.5875 300.224C51.5875 302.202 53.1904 303.804 55.1677 303.804Z" fill="#699FFF"/>
<path d="M326.015 303.804C327.992 303.804 329.595 302.202 329.595 300.224C329.595 298.247 327.992 296.644 326.015 296.644C324.037 296.644 322.434 298.247 322.434 300.224C322.434 302.202 324.037 303.804 326.015 303.804Z" fill="#699FFF"/>
</svg>
