<svg width="58" height="64" viewBox="0 0 58 64" fill="none" xmlns="http://www.w3.org/2000/svg">
<g clip-path="url(#clip0_737_1223)">
<path d="M54.4796 29.0008H41.337L32.4637 20.1275C32.6037 19.7076 32.6992 19.2685 32.6992 18.8041C32.6992 16.9397 31.4743 15.3554 29.785 14.8146V12.505H30.8317C31.398 12.505 31.8943 12.1327 32.0534 11.5887L34.3727 3.62888C34.484 3.24392 34.4108 2.82717 34.1691 2.50902C33.9273 2.1877 33.5519 2 33.151 2H23.8705C23.4696 2 23.0942 2.1877 22.8524 2.50902C22.6106 2.82717 22.5343 3.24392 22.6488 3.62888L24.9681 11.5887C25.1272 12.1327 25.6235 12.505 26.1898 12.505H27.2365V15.8899C27.2365 16.593 27.8059 17.1625 28.509 17.1625C29.4126 17.1625 30.1506 17.9006 30.1506 18.8041C30.1506 19.7076 29.4125 20.4456 28.509 20.4456C27.6055 20.4456 26.8675 19.7076 26.8675 18.8041C26.8675 18.101 26.298 17.5315 25.5949 17.5315C24.8918 17.5315 24.3223 18.101 24.3223 18.8041C24.3223 19.2685 24.4178 19.7076 24.5578 20.1275L15.6845 29.0008H2.54512C1.14209 29.0008 0 30.1429 0 31.5459V60.5733C0 61.9764 1.14209 63.1185 2.54512 63.1185L54.4786 63.1216C55.8816 63.1216 57.0237 61.9796 57.0237 60.5765V31.5459C57.0237 30.1428 55.8816 29.0007 54.4786 29.0007L54.4796 29.0008ZM25.5703 4.54569H31.4559L29.878 9.9604H27.1483L25.5703 4.54569ZM26.0857 22.2027C26.7729 22.6958 27.6064 22.9917 28.5131 22.9917C29.4199 22.9917 30.2534 22.6958 30.9406 22.2027L37.7393 29.0014H19.2874L26.0857 22.2027ZM2.54682 60.5766V31.5459H54.4803V60.5733H2.54682V60.5766Z" fill="#699FFF"/>
<path d="M50.2231 34.4629H6.80375C6.10066 34.4629 5.53119 35.0324 5.53119 35.7355V56.3831C5.53119 57.0862 6.10066 57.6557 6.80375 57.6557H50.2231C50.9262 57.6557 51.4956 57.0862 51.4956 56.3831V35.7355C51.4956 35.0324 50.9262 34.4629 50.2231 34.4629ZM22.4434 37.008H27.2409V55.1105H22.4434V37.008ZM19.8983 55.1105H15.1008V37.008H19.8983V55.1105ZM29.7864 37.008H34.5839V55.1105H29.7864V37.008ZM37.129 37.008H41.9266V55.1105H37.129V37.008ZM8.07639 37.008H12.5558V55.1105H8.07639V37.008ZM48.9514 55.1105H44.472V37.008H48.9514V55.1105Z" fill="#699FFF"/>
</g>
</svg>