<svg width="76" height="64" viewBox="0 0 76 64" fill="none" xmlns="http://www.w3.org/2000/svg">
<g clip-path="url(#clip0_737_1222)">
<path d="M40.1301 59.483C39.4774 59.8677 38.8076 60.2276 38.1214 60.5558C30.9854 63.9798 22.6581 64.0984 15.3603 60.6945C9.19471 57.8199 4.12287 52.5882 1.61087 45.6876L1.59652 45.6465C-0.897297 38.7593 -0.372889 31.5104 2.49605 25.3562C8.69997 12.0546 24.5337 6.29378 37.8343 12.4929C44 15.3676 49.0709 20.5992 51.5829 27.4998L51.5915 27.5247C52.2489 29.3362 52.6977 31.1793 52.9494 33.0205C53.1484 34.4817 53.224 35.9392 53.1819 37.3756H59.7897C60.4605 37.3756 61.005 37.9201 61.005 38.5909V42.6436C63.6204 42.6436 66.2367 42.6436 68.852 42.6436C69.2511 42.6464 69.6415 42.8426 69.8731 43.2034L75.1162 51.3279C75.2617 51.5279 75.3478 51.7748 75.3478 52.0408V58.2677C75.3478 58.9385 74.8033 59.483 74.1325 59.483H71.7937C71.6348 60.4113 71.1898 61.2429 70.5525 61.8802C69.7468 62.686 68.631 63.1855 67.4013 63.1855C66.1716 63.1855 65.0558 62.686 64.25 61.8802C63.6127 61.2429 63.1677 60.4113 63.0089 59.483H50.1819C50.023 60.4113 49.578 61.2429 48.9407 61.8802L48.8623 61.952C48.0613 62.7156 46.978 63.1855 45.7885 63.1855C44.5588 63.1855 43.443 62.686 42.6373 61.8802C42 61.2429 41.555 60.4113 41.3961 59.483H40.1301ZM44.9349 48.5518C44.4612 48.08 44.4584 47.3116 44.9301 46.8379C45.4019 46.3642 46.1703 46.3613 46.644 46.8331L48.3551 48.5441L52.1379 44.7603C52.6116 44.2867 53.3829 44.2867 53.8566 44.7603C54.3303 45.234 54.3303 46.0053 53.8566 46.479L49.2173 51.1193C48.7426 51.5882 47.9761 51.5901 47.5034 51.1193L44.9349 48.5518ZM49.9178 57.0524H58.5743V39.8062H40.2727V57.0524H41.6593C41.8851 56.4983 42.221 55.9988 42.6373 55.5816C43.443 54.771 44.5588 54.2715 45.7885 54.2715C47.0192 54.2715 48.135 54.771 48.9407 55.5768L49.0125 55.6552C49.3953 56.0572 49.7053 56.5299 49.9178 57.0524ZM47.222 57.2955C46.8565 56.9299 46.3483 56.7021 45.7885 56.7021C45.2297 56.7021 44.7215 56.9299 44.356 57.2955C43.9895 57.6591 43.7627 58.1682 43.7627 58.729C43.7627 59.2878 43.9904 59.796 44.356 60.1615C44.7215 60.5271 45.2297 60.7548 45.7885 60.7548C46.3244 60.7548 46.8125 60.5481 47.1751 60.2113L47.222 60.1615C47.5876 59.796 47.8153 59.2878 47.8153 58.729C47.8153 58.1931 47.6086 57.705 47.2718 57.3424L47.222 57.2955ZM71.5324 57.0524H72.9171V53.2562H64.5141C63.8433 53.2562 63.2988 52.7117 63.2988 52.0408V45.0742H61.005V57.0524H63.272C63.4979 56.4983 63.8338 55.9988 64.25 55.5816C65.0558 54.771 66.1716 54.2715 67.4013 54.2715C68.631 54.2715 69.7468 54.771 70.5525 55.5768C70.9697 55.994 71.3066 56.4954 71.5324 57.0524ZM68.8338 57.2955C68.4683 56.9299 67.9601 56.7021 67.4013 56.7021C66.8424 56.7021 66.3343 56.9299 65.9687 57.2955C65.6022 57.6591 65.3754 58.1682 65.3754 58.729C65.3754 59.2878 65.6032 59.796 65.9687 60.1615C66.3343 60.5271 66.8424 60.7548 67.4013 60.7548C67.9601 60.7548 68.4683 60.5271 68.8338 60.1615C69.1994 59.796 69.4271 59.2878 69.4271 58.729C69.4271 58.1692 69.1994 57.661 68.8338 57.2955ZM50.7532 37.3756C50.7972 36.0377 50.7302 34.6884 50.5474 33.3439C50.3226 31.697 49.9206 30.0415 49.3321 28.408L49.2747 28.2491C47.8594 24.3993 45.5627 21.1246 42.6966 18.5695C41.2669 20.6509 39.2631 22.7065 36.7999 24.6089C38.0133 26.7811 39.1071 29.1611 40.0325 31.7047C40.4114 32.7458 40.7578 33.8071 41.0688 34.875C41.3176 35.7334 41.5387 36.5679 41.7282 37.3756H50.7532ZM39.2325 37.3756C39.0803 36.7583 38.9176 36.1478 38.7435 35.5487C38.4583 34.5698 38.1272 33.5602 37.753 32.5315C36.9071 30.2051 35.9157 28.0281 34.8209 26.0366C32.1807 27.8185 29.1213 29.4281 25.7576 30.7439L29.7146 41.6148C31.0209 41.1747 32.3233 40.7928 33.6075 40.4742C35.0381 40.1191 36.4544 39.8368 37.842 39.6292V38.5909C37.842 37.9201 38.3865 37.3756 39.0573 37.3756H39.2325ZM37.842 42.0799C36.6516 42.2694 35.4295 42.5192 34.1874 42.8283C32.9893 43.1259 31.7701 43.4809 30.5443 43.8933L35.9913 58.8591C36.3616 58.7041 36.7243 58.5414 37.0764 58.372C37.3348 58.2476 37.5903 58.1203 37.842 57.9883V42.0799ZM71.9047 50.8255L68.1927 45.0742H65.7295V50.8255H71.9047ZM10.4981 54.617C11.9278 52.5327 13.9326 50.4772 16.3939 48.5767C15.1804 46.4063 14.0866 44.0273 13.1613 41.4828L13.1517 41.4541C12.2321 38.922 11.544 36.4071 11.0799 33.9736C7.97077 34.099 5.11236 33.8128 2.67979 33.1372C2.12667 36.9373 2.47309 40.9239 3.86354 44.7843L3.92 44.9412C5.33628 48.7901 7.63201 52.0628 10.4981 54.617ZM18.3719 47.1489C21.0073 45.369 24.0686 43.7603 27.4361 42.4436L23.4791 31.5736C20.0542 32.7296 16.6762 33.4626 13.5125 33.7946C13.9488 35.9975 14.5804 38.277 15.412 40.5766L15.4704 40.7373C16.3106 43.033 17.2896 45.1824 18.3719 47.1489ZM28.2648 44.723C25.0399 45.9881 22.1155 47.5365 19.6063 49.2446C21.2159 51.7997 22.992 53.971 24.8275 55.6591C27.8294 58.4208 30.9443 59.8563 33.6372 59.4821L28.2648 44.723ZM17.6455 50.6772C15.4235 52.4217 13.6359 54.282 12.39 56.1404C13.6455 57.0514 14.9852 57.839 16.3862 58.4916C19.9269 60.1424 23.8657 60.9405 27.8677 60.729C26.2916 59.9606 24.7136 58.8505 23.1853 57.4447C21.2351 55.6505 19.3508 53.3605 17.6455 50.6772ZM40.8038 17.0461C39.5473 16.1351 38.2095 15.3484 36.8085 14.6958C33.2783 13.0498 29.3529 12.2518 25.3653 12.4565C26.9251 13.2259 28.4859 14.3283 29.9988 15.7217C31.9539 17.5226 33.8429 19.8212 35.5511 22.5122C37.7702 20.7686 39.5569 18.9083 40.8038 17.0461ZM33.5903 23.9457C31.9778 21.382 30.1969 19.2021 28.3567 17.5073C25.3528 14.7398 22.2351 13.2996 19.5432 13.6709L24.9279 28.4644C28.1586 27.1974 31.0831 25.6519 33.5903 23.9457ZM3.15061 30.7487C5.30183 31.3726 7.86646 31.6482 10.6876 31.5582C10.2665 28.3965 10.2368 25.4194 10.5775 22.782C10.8407 20.7447 11.3268 18.8997 12.0273 17.3092C8.84064 19.716 6.34587 22.8509 4.69895 26.3821C4.04631 27.7821 3.52573 29.2443 3.15061 30.7487ZM13.1096 31.3965C16.1297 31.0922 19.3642 30.3984 22.6494 29.2951L17.2647 14.4996C14.9632 15.9427 13.5029 19.0432 12.9795 23.0864C12.6579 25.5706 12.6952 28.3907 13.1096 31.3965Z" fill="#699FFF"/>
<path fill-rule="evenodd" clip-rule="evenodd" d="M39.8379 58.4119H42.2995L42.4519 59.3024C42.5724 60.0065 42.91 60.6381 43.3947 61.1228C44.0078 61.7359 44.8543 62.1144 45.7885 62.1144C46.6904 62.1144 47.5122 61.7592 48.1231 61.1767L48.1311 61.1691L48.199 61.107C48.6753 60.6245 49.0069 59.9989 49.1261 59.3024L49.2785 58.4119H63.9122L64.0646 59.3024C64.1851 60.0065 64.5228 60.6381 65.0074 61.1228C65.6205 61.7359 66.4671 62.1144 67.4013 62.1144C68.3355 62.1144 69.182 61.7359 69.7951 61.1228C70.2798 60.6381 70.6174 60.0065 70.7379 59.3024L70.8903 58.4119H74.1325C74.2117 58.4119 74.2767 58.347 74.2767 58.2677V52.0408C74.2767 52.009 74.267 51.9813 74.25 51.9579L74.2324 51.9338L68.9717 43.782C68.9463 43.7425 68.9021 43.7157 68.8464 43.7147H59.9339V38.5909C59.9339 38.5116 59.8689 38.4467 59.7897 38.4467H52.079L52.1113 37.3442C52.1517 35.9667 52.0792 34.5682 51.8881 33.1655C51.6466 31.3987 51.2159 29.6295 50.5846 27.8901L50.5819 27.8826L50.5735 27.8583C48.1615 21.239 43.2978 16.222 37.3817 13.4637C32.2483 11.0712 26.7217 10.5351 21.561 11.5794L25.3103 11.3868C29.4765 11.1729 33.5759 12.0068 37.2611 13.725C38.724 14.4065 40.1208 15.2279 41.4325 16.1789L42.2679 16.7846L41.6938 17.642C40.3706 19.6182 38.4989 21.5583 36.2128 23.3544L35.2815 24.0862L34.6467 23.0862C32.9806 20.4614 31.1494 18.2379 29.2731 16.5095C27.8212 15.1723 26.3436 14.1334 24.8914 13.4172L21.2829 11.6373C18.9651 12.1331 16.7242 12.9484 14.6296 14.058L13.0075 17.741C12.3556 19.2212 11.8924 20.964 11.6398 22.9193L10.5775 22.782C10.7381 21.5388 10.9817 20.3671 11.3064 19.2812C11.5138 18.5877 11.7543 17.9291 12.0273 17.3092C11.4521 17.7437 10.8994 18.2019 10.3702 18.6818C7.9676 20.8607 6.04858 23.4884 4.69895 26.3821C4.04631 27.7821 3.52573 29.2443 3.15061 30.7487C5.02444 31.2921 7.21194 31.5713 9.60938 31.5748C9.96428 31.5754 10.3238 31.5698 10.6876 31.5582C10.6398 31.1999 10.5971 30.8439 10.5594 30.4905C10.2645 27.726 10.2754 25.1205 10.5775 22.782L11.6398 22.9193C11.3128 25.4505 11.3386 28.3328 11.7493 31.4169L11.9057 32.5911L10.7217 32.6288C7.81605 32.7215 5.13523 32.4395 2.85224 31.7774L1.86179 31.4901L2.11131 30.4895C2.50329 28.9176 3.04701 27.3907 3.72814 25.9295C5.44737 22.2433 8.05246 18.969 11.3817 16.4545L14.3705 14.1972C9.74782 16.7145 5.86042 20.6769 3.46686 25.8088C0.7129 31.7163 0.210108 38.6716 2.60365 45.2818L2.60794 45.2937L2.61983 45.328C5.03167 51.9478 9.89647 56.9652 15.813 59.7238C20.8555 62.0757 26.4104 62.6756 31.683 61.6L27.9242 61.7986C23.7433 62.0196 19.6301 61.1857 15.9339 59.4626M31.9732 61.539L28.3371 59.7662C26.8708 59.0513 25.3773 58.0056 23.9106 56.6565C22.0391 54.9347 20.2128 52.7198 18.5496 50.1027L17.9149 49.104L16.9841 49.8347C14.6951 51.6318 12.8226 53.5717 11.5003 55.5439L10.9256 56.4012L11.7609 57.0074C13.0719 57.9586 14.4711 58.7811 15.9339 59.4626M31.9732 61.539C33.9224 61.1178 35.8308 60.4668 37.6581 59.5901L37.6592 59.5895C38.3153 59.2757 38.958 58.9306 39.5862 58.5603L39.8379 58.4119M1.61087 45.6876L1.59652 45.6465C-0.897297 38.7593 -0.372889 31.5104 2.49605 25.3562C8.69997 12.0546 24.5337 6.29378 37.8343 12.4929C44 15.3676 49.0709 20.5992 51.5829 27.4998L51.5915 27.5247C52.2489 29.3362 52.6977 31.1793 52.9494 33.0205C53.0991 34.1197 53.179 35.2168 53.1915 36.3044C53.1956 36.6626 53.1924 37.0197 53.1819 37.3756H59.7897C60.4605 37.3756 61.005 37.9201 61.005 38.5909V42.6436H68.852C69.2511 42.6464 69.6415 42.8426 69.8731 43.2034L75.1162 51.3279C75.2617 51.5279 75.3478 51.7748 75.3478 52.0408V58.2677C75.3478 58.9385 74.8033 59.483 74.1325 59.483H71.7937C71.6348 60.4113 71.1898 61.2429 70.5525 61.8802C69.7468 62.686 68.631 63.1855 67.4013 63.1855C66.1716 63.1855 65.0558 62.686 64.25 61.8802C63.6127 61.2429 63.1677 60.4113 63.0089 59.483H50.1819C50.023 60.4113 49.578 61.2429 48.9407 61.8802L48.8623 61.952C48.0613 62.7156 46.978 63.1855 45.7885 63.1855C44.5588 63.1855 43.443 62.686 42.6373 61.8802C42 61.2429 41.555 60.4113 41.3961 59.483H40.1301C39.4774 59.8677 38.8076 60.2276 38.1214 60.5558C30.9854 63.9798 22.6581 64.0984 15.3603 60.6946C9.19471 57.8199 4.12287 52.5882 1.61087 45.6876ZM29.9988 15.7217C31.7321 17.3184 33.4135 19.3062 34.963 21.6119C35.1613 21.9068 35.3573 22.207 35.5511 22.5122C35.8372 22.2873 36.1162 22.0605 36.3878 21.8321C38.2221 20.2888 39.7177 18.6682 40.8038 17.0461C39.5473 16.1351 38.2095 15.3484 36.8085 14.6958C33.9154 13.3469 30.7568 12.5674 27.516 12.4427C26.8024 12.4153 26.0849 12.4196 25.3653 12.4565C25.9724 12.756 26.5796 13.1059 27.1841 13.5037C28.1328 14.1281 29.0747 14.8706 29.9988 15.7217ZM45.6908 47.7929L45.6922 47.7943L48.2592 50.3604C48.3109 50.4118 48.403 50.4168 48.4633 50.3585C48.4637 50.3581 48.4641 50.3577 48.4645 50.3573L53.0991 45.7217C53.1545 45.6663 53.1546 45.5731 53.0992 45.5177C53.0438 45.4624 52.9508 45.4624 52.8954 45.5177L48.3552 50.059L45.8882 47.592C45.8884 47.5923 45.888 47.5918 45.8882 47.592C45.8351 47.5399 45.7447 47.5379 45.6891 47.5938C45.6362 47.6468 45.6347 47.737 45.6908 47.7929ZM46.644 46.8331C46.1703 46.3613 45.4019 46.3642 44.9301 46.8379C44.4584 47.3116 44.4612 48.08 44.9349 48.5518L47.5034 51.1193C47.9761 51.5901 48.7426 51.5882 49.2173 51.1193L53.8566 46.479C54.3303 46.0053 54.3303 45.234 53.8566 44.7604C53.3829 44.2867 52.6116 44.2867 52.1379 44.7604L48.3551 48.5441L46.644 46.8331ZM49.197 58.1235L48.9255 57.4558C48.7651 57.0613 48.5298 56.7016 48.2369 56.394L48.2294 56.3861L48.1675 56.3185C47.5558 55.7147 46.7158 55.3426 45.7885 55.3426C44.8546 55.3426 44.0092 55.7208 43.3969 56.3367L43.3955 56.3381C43.0772 56.6572 42.822 57.0377 42.6512 57.4567L42.3794 58.1235H39.2015V38.7351H59.6455V58.1235H49.197ZM48.9407 55.5768C48.135 54.771 47.0192 54.2715 45.7885 54.2715C44.5588 54.2715 43.443 54.771 42.6373 55.5816C42.221 55.9988 41.8851 56.4983 41.6593 57.0524H40.2727V39.8062H58.5743V57.0524H49.9178C49.7053 56.5299 49.3953 56.0572 49.0125 55.6552L48.9407 55.5768ZM47.1751 60.2113C46.8125 60.5481 46.3244 60.7548 45.7885 60.7548C45.2297 60.7548 44.7215 60.5271 44.356 60.1615C43.9904 59.796 43.7627 59.2878 43.7627 58.729C43.7627 58.1682 43.9895 57.6591 44.356 57.2955C44.7215 56.9299 45.2297 56.7022 45.7885 56.7022C46.3483 56.7022 46.8565 56.9299 47.222 57.2955L47.2718 57.3424C47.6086 57.705 47.8153 58.1931 47.8153 58.729C47.8153 59.2878 47.5876 59.796 47.222 60.1615L47.1751 60.2113ZM47.9918 60.9064C48.5427 60.3493 48.8865 59.5771 48.8865 58.729C48.8865 57.9129 48.5707 57.1669 48.0566 56.6134L48.0324 56.5873L47.967 56.5257C47.4096 55.9746 46.6373 55.631 45.7885 55.631C44.9348 55.631 44.1581 55.9793 43.6001 56.5365C43.0371 57.0959 42.6915 57.876 42.6915 58.729C42.6915 59.5835 43.0405 60.3608 43.5986 60.9189C44.1567 61.477 44.934 61.826 45.7885 61.826C46.6046 61.826 47.3506 61.5102 47.9041 60.9961L47.9302 60.9718L47.9918 60.9064ZM70.8109 58.1235L70.5398 57.4549C70.3691 57.0338 70.1133 56.6524 69.7951 56.3342C69.182 55.7211 68.3355 55.3426 67.4013 55.3426C66.4674 55.3426 65.622 55.7208 65.0097 56.3367L65.0083 56.3381C64.69 56.6572 64.4347 57.0377 64.2639 57.4567L63.9921 58.1235H59.9339V44.0031H64.3699V52.0408C64.3699 52.1201 64.4349 52.1851 64.5141 52.1851H73.9883V58.1235H70.8109ZM51.7896 38.4467H40.8793L40.6854 37.6202C40.5007 36.8329 40.2845 36.0165 40.0401 35.1732C39.7356 34.1277 39.3965 33.0892 39.0259 32.071C38.1198 29.5801 37.0496 27.2524 35.8648 25.1312L35.4146 24.3254L36.1452 23.7612C38.5391 21.9122 40.4593 19.9349 41.8137 17.9631L42.502 16.9611L43.4094 17.77C46.4033 20.4391 48.8024 23.8602 50.28 27.8795L50.282 27.885L50.3395 28.0439L50.3398 28.0449C50.9539 29.7493 51.3737 31.4779 51.6087 33.199C51.7997 34.6037 51.8697 36.0137 51.8237 37.4108L51.7896 38.4467ZM41.0688 34.875C41.3176 35.7334 41.5387 36.5679 41.7282 37.3756H50.7532C50.7972 36.0377 50.7302 34.6884 50.5474 33.3439C50.3226 31.697 49.9206 30.0415 49.3321 28.408L49.2747 28.2491C47.9922 24.7606 45.986 21.7443 43.4882 19.3078C43.2295 19.0555 42.9656 18.8093 42.6966 18.5695C42.4968 18.8605 42.2857 19.151 42.0637 19.4406C40.6977 21.2226 38.9187 22.9724 36.7999 24.6089C38.0133 26.7812 39.1071 29.1611 40.0325 31.7047C40.4114 32.7458 40.7578 33.8071 41.0688 34.875ZM40.5997 38.4467H39.0573C38.9781 38.4467 38.9131 38.5116 38.9131 38.5909V40.5519L38.0005 40.6885C36.6478 40.8909 35.2647 41.1665 33.8655 41.5138L33.6075 40.4742C35.0381 40.1191 36.4544 39.8368 37.842 39.6292V38.5909C37.842 38.1746 38.0517 37.8069 38.3712 37.5879C38.5665 37.4539 38.8028 37.3756 39.0573 37.3756H39.2325C39.1756 37.1448 39.1172 36.915 39.0573 36.6863C39.0241 36.5594 38.9904 36.4328 38.9562 36.3066C38.8872 36.0522 38.8163 35.7995 38.7435 35.5487C38.4583 34.5698 38.1272 33.5602 37.753 32.5315C37.0396 30.5697 36.2229 28.7142 35.3279 26.9865C35.1615 26.6654 34.9925 26.3488 34.8209 26.0366C34.5266 26.2353 34.2271 26.4318 33.9225 26.6259C31.4948 28.1737 28.7463 29.5748 25.7576 30.7439L29.7146 41.6149C31.0209 41.1747 32.3233 40.7928 33.6075 40.4742L33.8655 41.5138C32.6109 41.8251 31.3365 42.1986 30.0567 42.6299L29.0658 42.9638L24.3934 30.1274L25.3674 29.7464C28.6616 28.4578 31.6503 26.8842 34.2217 25.1488L35.1943 24.4924L35.7595 25.5206C36.8813 27.5612 37.8953 29.7885 38.7596 32.1653C39.1413 33.2147 39.4797 34.2465 39.7718 35.2492C39.9505 35.8638 40.1171 36.4892 40.2724 37.1192L40.5997 38.4467ZM38.9131 40.8248V58.6359L38.3397 58.9368C38.0748 59.0758 37.8079 59.2086 37.5411 59.3371C37.1716 59.5149 36.7916 59.6853 36.4049 59.8472L35.3689 60.2808L29.1623 43.2282L30.2027 42.8782C31.4557 42.4566 32.7025 42.0935 33.9287 41.7888C33.9289 41.7888 33.9286 41.7889 33.9287 41.7888L34.1874 42.8283C35.0598 42.6112 35.9223 42.4234 36.7709 42.2651C37.1305 42.1981 37.4877 42.1363 37.842 42.0799V57.9883C37.5903 58.1204 37.3348 58.2476 37.0764 58.372C37.0417 58.3887 37.0069 58.4054 36.972 58.4219C36.6527 58.5734 36.3251 58.7194 35.9913 58.8591L30.5443 43.8934C30.8848 43.7788 31.2248 43.6687 31.5639 43.563C32.4458 43.2881 33.3221 43.0432 34.1874 42.8283M73.8708 51.8966H64.6584V44.0031H68.7762L73.8708 51.8966ZM10.6934 56.2258L9.78545 55.4166C6.79142 52.7485 4.39336 49.3293 2.91477 45.3111L2.91209 45.3038L2.85579 45.1473C2.85584 45.1474 2.85575 45.1471 2.85579 45.1473C1.40434 41.1174 1.04204 36.9525 1.61984 32.9829L1.79496 31.7798L2.96642 32.1052C5.27066 32.7451 8.01469 33.0252 11.0368 32.9033L11.9591 32.8662L12.1321 33.7729C12.5852 36.149 13.2579 38.6087 14.1585 41.0884L14.1633 41.1018L14.1728 41.1303C15.0779 43.6168 16.1462 45.9387 17.3288 48.054L17.7794 48.8601L17.0485 49.4245C14.6564 51.2716 12.7355 53.2487 11.3814 55.2228L10.6934 56.2258ZM13.1613 41.4828C14.0866 44.0273 15.1804 46.4063 16.3939 48.5767C14.2764 50.2117 12.4968 51.9615 11.1306 53.7455C10.9087 54.0352 10.6978 54.3258 10.4981 54.617C10.229 54.3772 9.96502 54.1311 9.70628 53.8788C7.20875 51.4433 5.20333 48.4288 3.92 44.9412L3.86354 44.7843C2.60356 41.2862 2.20087 37.6843 2.54796 34.2116C2.5839 33.852 2.62788 33.4938 2.67979 33.1372C3.01987 33.2317 3.36828 33.3185 3.72453 33.3977C5.9165 33.8848 8.40544 34.0814 11.0799 33.9736C11.544 36.4071 12.2321 38.922 13.1517 41.4541L13.1613 41.4828ZM17.9992 48.6932L17.4335 47.6654C16.324 45.6494 15.3227 43.4504 14.4645 41.1055L14.4636 41.1029L14.4047 40.9408C13.5553 38.5919 12.909 36.2603 12.4618 34.0028L12.2338 32.8519L13.4007 32.7294C16.4818 32.406 19.7826 31.6907 23.1366 30.5587L24.1278 30.2241L28.8005 43.0602L27.8262 43.4411C24.5279 44.7309 21.5374 46.3035 18.9714 48.0365L17.9992 48.6932ZM28.8958 43.3249L35.0968 60.3607L33.7846 60.543C30.6201 60.9827 27.1938 59.2915 24.1024 56.4475M18.1491 48.9409L19.0036 48.3592C21.5824 46.6036 24.5784 45.0186 27.8737 43.7259M32.5168 59.5356C30.0994 59.4414 27.4213 58.0454 24.8275 55.6591C22.992 53.971 21.2159 51.7997 19.6063 49.2446C21.8553 47.7136 24.4379 46.3109 27.2715 45.1256C27.5993 44.9884 27.9304 44.8542 28.2648 44.723L33.6372 59.4821C33.271 59.533 32.8971 59.5504 32.5168 59.5356ZM12.39 56.1404C13.4754 54.5214 14.9719 52.901 16.8086 51.3569C17.0802 51.1286 17.3593 50.9019 17.6455 50.6772C17.8395 50.9823 18.0357 51.2823 18.234 51.5771C19.7802 53.8748 21.4568 55.8545 23.1853 57.4447C24.1213 58.3057 25.076 59.0558 26.0374 59.6843C26.6458 60.0821 27.2569 60.4312 27.8677 60.729C27.145 60.7672 26.4244 60.7725 25.7078 60.7457C22.4561 60.6244 19.2875 59.8443 16.3862 58.4916C14.9852 57.839 13.6455 57.0514 12.39 56.1404ZM35.047 24.25L34.1929 24.8312C31.6155 26.5852 28.6194 28.1672 25.319 29.4616L24.2969 29.8624L18.083 12.791L19.3968 12.6098C22.5605 12.1735 25.9895 13.87 29.0825 16.7196C31.0034 18.4887 32.8427 20.7453 34.497 23.3754L35.047 24.25ZM28.3567 17.5073C25.7615 15.1163 23.0812 13.716 20.6641 13.6187C20.2835 13.6034 19.9094 13.6204 19.5432 13.6709L24.9279 28.4644C25.2624 28.3333 25.5936 28.1991 25.9214 28.0621C28.7597 26.8757 31.3426 25.4753 33.5903 23.9457C31.9778 21.382 30.1969 19.2021 28.3567 17.5073ZM12.1895 32.5658L12.0485 31.5428C11.6234 28.4591 11.5815 25.5423 11.9172 22.9489C12.4562 18.7857 13.9904 15.2884 16.6957 13.5922L17.8181 12.8883L24.0316 29.9608L22.9905 30.3104C19.6339 31.4378 16.3211 32.1495 13.217 32.4622L12.1895 32.5658ZM72.9171 57.0524H71.5324C71.3066 56.4955 70.9697 55.994 70.5525 55.5768C69.9042 54.9285 69.0553 54.4784 68.1077 54.3273C67.8776 54.2906 67.6416 54.2715 67.4013 54.2715C67.161 54.2715 66.9251 54.2906 66.695 54.3273C65.7474 54.4786 64.8984 54.9294 64.25 55.5816C63.8338 55.9988 63.4979 56.4983 63.272 57.0524H61.005V45.0742H63.2988V52.0408C63.2988 52.7117 63.8433 53.2562 64.5141 53.2562H72.9171V57.0524ZM67.4013 55.631C68.2558 55.631 69.0331 55.98 69.5912 56.5381C70.1495 57.0964 70.4983 57.8738 70.4983 58.729C70.4983 59.5835 70.1493 60.3608 69.5912 60.9189C69.0331 61.477 68.2558 61.826 67.4013 61.826C66.5468 61.826 65.7694 61.477 65.2113 60.9189C64.6532 60.3608 64.3043 59.5835 64.3043 58.729C64.3043 57.876 64.6498 57.0959 65.2129 56.5365C65.7709 55.9793 66.5476 55.631 67.4013 55.631ZM65.9687 57.2955C66.3343 56.9299 66.8424 56.7022 67.4013 56.7022C67.9601 56.7022 68.4683 56.9299 68.8338 57.2955C69.1994 57.661 69.4271 58.1692 69.4271 58.729C69.4271 59.2878 69.1994 59.796 68.8338 60.1615C68.4683 60.5271 67.9601 60.7548 67.4013 60.7548C66.8424 60.7548 66.3343 60.5271 65.9687 60.1615C65.6032 59.796 65.3754 59.2878 65.3754 58.729C65.3754 58.1682 65.6022 57.6591 65.9687 57.2955ZM65.7295 50.8255V45.0742H68.1927L71.9047 50.8255H65.7295ZM23.4791 31.5736L27.4361 42.4436C24.4445 43.6134 21.6946 45.0135 19.2702 46.5594C18.9655 46.7537 18.6661 46.9502 18.3719 47.1489C18.2001 46.8369 18.031 46.5202 17.8646 46.1991C16.9824 44.4966 16.1773 42.6688 15.4704 40.7373L15.412 40.5766C14.7123 38.6417 14.1542 36.721 13.7348 34.8482C13.6558 34.4952 13.5817 34.144 13.5125 33.7946C13.8656 33.7576 14.2213 33.7155 14.5795 33.6685C17.4307 33.2937 20.4364 32.6005 23.4791 31.5736ZM18.7001 49.8156C20.3514 52.437 22.1862 54.6851 24.1024 56.4475L18.7001 49.8156ZM22.6494 29.2951L17.2647 14.4996C16.9515 14.696 16.6539 14.9231 16.3721 15.179C14.5831 16.804 13.4317 19.5934 12.9795 23.0864C12.6579 25.5706 12.6952 28.3907 13.1096 31.3965C15.8167 31.1238 18.696 30.5381 21.6297 29.625C21.9689 29.5194 22.3089 29.4094 22.6494 29.2951Z" fill="#699FFF"/>
</g>
</svg>