<svg width="65" height="80" viewBox="0 0 65 80" fill="none" xmlns="http://www.w3.org/2000/svg">
<g clip-path="url(#clip0_742_1286)">
<path d="M39.4646 72.3563H1.20433C0.647319 72.3563 0.198486 71.9048 0.198486 71.3505V59.3289C0.198486 56.3682 2.09665 53.8075 4.92223 52.9477L16.8814 48.67L18.0441 44.9954C18.2118 44.4654 18.7769 44.1707 19.3069 44.3383C19.8368 44.506 20.1316 45.0711 19.9639 45.6011L18.6498 49.7543C18.5552 50.0544 18.3254 50.2924 18.0279 50.3978L5.57379 54.8512C5.55756 54.8566 5.54134 54.862 5.52512 54.8674C3.54313 55.4623 2.21008 57.255 2.21008 59.3262V70.3419H39.4618C40.0188 70.3419 40.4676 70.7935 40.4676 71.3478C40.4703 71.9048 40.0188 72.3563 39.4646 72.3563Z" fill="white"/>
<path d="M39.4643 54.196C39.3507 54.196 39.2372 54.1771 39.1263 54.1365L28.6539 50.397C28.3619 50.2916 28.1321 50.059 28.0347 49.7616L26.6774 45.611C26.6449 45.511 26.6287 45.4028 26.6287 45.2974C26.6287 44.7404 27.0803 44.2889 27.6346 44.2889C28.0996 44.2889 28.4917 44.6025 28.608 45.0324L29.7977 48.6665L39.8049 52.2411C40.3295 52.4277 40.6025 53.0036 40.4133 53.5282C40.2646 53.9392 39.8753 54.196 39.4643 54.196Z" fill="white"/>
<path d="M23.3542 56.2457C23.0838 56.2457 22.8242 56.1376 22.6349 55.9429L16.9702 50.1538C16.5808 49.7563 16.5889 49.1182 16.9864 48.7288C17.3839 48.3394 18.022 48.3475 18.4114 48.745L23.3541 53.7987L28.2969 48.745C28.6862 48.3475 29.3244 48.3394 29.7219 48.7288C30.1193 49.1182 30.1274 49.7563 29.7381 50.1538L24.0733 55.9429C23.8841 56.1349 23.6246 56.2457 23.3542 56.2457Z" fill="white"/>
<path d="M23.3543 47.1851C16.6918 47.1851 11.2732 41.7665 11.2732 35.1041V24.0288C11.2732 23.4718 11.7248 23.023 12.2791 23.023H34.4296C34.9866 23.023 35.4355 23.4745 35.4355 24.0288V35.1041C35.4355 41.7639 30.0167 47.1851 23.3543 47.1851ZM13.2848 25.0346V35.1041C13.2848 40.6552 17.8003 45.1736 23.3543 45.1736C28.9054 45.1736 33.4238 40.6581 33.4238 35.1041V25.0346H13.2848Z" fill="white"/>
<path d="M34.4294 25.0346H12.2788C12.0787 25.0346 11.8868 24.9751 11.7191 24.8642L8.69885 22.8498C8.42035 22.6632 8.25 22.3495 8.25 22.0116V17.9854C8.25 17.642 8.42305 17.323 8.71237 17.1391L22.8077 8.07811C23.1403 7.86451 23.5648 7.86451 23.8974 8.07811L37.9927 17.1391C38.2821 17.3229 38.4551 17.642 38.4551 17.9854V22.0116C38.4551 22.3496 38.2875 22.6632 38.0063 22.8498L34.986 24.8642C34.821 24.9751 34.6268 25.0346 34.4294 25.0346ZM12.582 23.0201H34.1241L36.4414 21.4734V18.5343L23.3546 10.1198L10.265 18.5343V21.4734L12.582 23.0201Z" fill="white"/>
<path d="M29.4571 31.0751H17.2487C13.9526 31.0751 11.2703 28.3928 11.2703 25.0967V24.0259C11.2703 23.4689 11.7218 23.0201 12.2761 23.0201H34.4267C34.9837 23.0201 35.4325 23.4716 35.4325 24.0259V25.0967C35.4352 28.3928 32.7531 31.0751 29.4571 31.0751ZM13.2848 25.0346L13.2851 25.0967C13.2851 27.2814 15.0643 29.0606 17.2491 29.0606H29.4575C31.6422 29.0606 33.4215 27.2815 33.4215 25.0967V25.0345L13.2848 25.0346Z" fill="white"/>
<path d="M23.354 21.0053C21.6884 21.0053 20.3337 19.6506 20.3337 17.985C20.3337 16.3194 21.6884 14.9647 23.354 14.9647C25.0197 14.9647 26.3743 16.3194 26.3743 17.985C26.3743 19.6506 25.0197 21.0053 23.354 21.0053ZM23.354 16.9792C22.7997 16.9792 22.3482 17.4307 22.3482 17.985C22.3482 18.5393 22.7997 18.9908 23.354 18.9908C23.9083 18.9908 24.3599 18.5393 24.3599 17.985C24.3599 17.4307 23.9083 16.9792 23.354 16.9792Z" fill="white"/>
<path d="M27.3807 59.2659C27.1698 59.2659 26.9561 59.201 26.7777 59.0658L23.3545 56.4971L19.9314 59.0658C19.5204 59.3741 18.9471 59.3227 18.5956 58.9523L11.9656 51.9278C11.5844 51.5222 11.6033 50.8868 12.0062 50.5055C12.4118 50.1243 13.0472 50.1432 13.4284 50.5461L19.4393 56.9165L22.7488 54.4343C23.1058 54.1666 23.5979 54.1666 23.9575 54.4343L27.2509 56.903L33.0427 50.4893C33.4158 50.0756 34.0512 50.0432 34.465 50.4163C34.8787 50.7895 34.9111 51.4249 34.538 51.8386L28.1297 58.9337C27.9296 59.1527 27.6564 59.2659 27.3807 59.2659Z" fill="white"/>
<path d="M25.3661 61.2807H21.34C20.8641 61.2807 20.4531 60.9481 20.3557 60.4804L19.7149 57.4385C19.6013 56.895 19.9474 56.3596 20.4936 56.246C21.0371 56.1325 21.5725 56.4786 21.6861 57.0248L22.1566 59.2663H24.5495L25.0227 57.0221C25.1363 56.4786 25.6716 56.1297 26.2151 56.2433C26.7586 56.3569 27.1075 56.8923 26.9939 57.4358L26.3531 60.4777C26.253 60.9455 25.842 61.2807 25.3661 61.2807Z" fill="white"/>
<path d="M27.3809 72.3556C26.9023 72.3556 26.4805 72.0149 26.3913 71.5283L24.3768 60.453C24.2768 59.9068 24.6391 59.3822 25.188 59.2822C25.7342 59.1821 26.2588 59.5445 26.3588 60.0934L28.3733 71.1687C28.4733 71.7148 28.111 72.2394 27.5621 72.3394C27.4999 72.3503 27.4404 72.3556 27.3809 72.3556Z" fill="white"/>
<path d="M19.3284 72.356C19.2689 72.356 19.2067 72.3506 19.1472 72.3398C18.601 72.2398 18.236 71.7152 18.336 71.169L20.3505 60.0938C20.4505 59.5476 20.9751 59.1825 21.5213 59.2826C22.0675 59.3826 22.4325 59.9072 22.3325 60.4534L20.318 71.5286C20.2288 72.0153 19.8043 72.356 19.3284 72.356Z" fill="white"/>
<path d="M39.4647 61.2806H35.4386C34.8815 61.2806 34.4327 60.8291 34.4327 60.2748C34.4327 59.7178 34.8843 59.269 35.4386 59.269H39.4647C40.0217 59.269 40.4705 59.7205 40.4705 60.2748C40.4705 60.8291 40.019 61.2806 39.4647 61.2806Z" fill="white"/>
<path d="M6.23887 72.3558C5.68186 72.3558 5.23303 71.9042 5.23303 71.35V65.3094C5.23303 64.7524 5.68458 64.3035 6.23887 64.3035C6.79588 64.3035 7.24472 64.7551 7.24472 65.3094V71.35C7.24472 71.9043 6.79316 72.3558 6.23887 72.3558Z" fill="white"/>
<path d="M39.4646 72.3563C38.9075 72.3563 38.4587 71.9042 38.4587 71.35V65.3094C38.4587 64.7524 38.9102 64.3035 39.4645 64.3035C40.0215 64.3035 40.4703 64.7551 40.4703 65.3094V71.35C40.4703 71.9043 40.0188 72.3563 39.4646 72.3563Z" fill="white"/>
<path d="M63.6264 72.3557L39.4646 72.3563C38.9075 72.3563 38.4587 71.9042 38.4587 71.35L38.4558 35.1011C38.4558 34.5441 38.9073 34.0953 39.4616 34.0953H44.4963C45.0533 34.0953 45.5021 34.5468 45.5021 35.1011C45.5021 35.6581 45.0506 36.107 44.4963 36.107H40.4702V70.3386H62.6207V36.1097H58.5946C58.0376 36.1097 57.5887 35.6582 57.5887 35.1039C57.5887 34.5469 58.0403 34.0981 58.5946 34.0981H63.6293C64.1863 34.0981 64.6351 34.5496 64.6351 35.1039V71.3498C64.6351 71.9041 64.1834 72.3557 63.6264 72.3557Z" fill="white"/>
<path d="M58.5916 38.1213H44.4962C43.9392 38.1213 43.4904 37.6698 43.4904 37.1155V33.0893C43.4904 32.5323 43.9419 32.0835 44.4962 32.0835H58.5916C59.1486 32.0835 59.5974 32.5351 59.5974 33.0893V37.1155C59.6001 37.6725 59.1486 38.1213 58.5916 38.1213ZM45.5048 36.1096H57.5858V34.0952H45.5048V36.1096Z" fill="white"/>
<path d="M53.5597 34.0947H49.5336C48.9766 34.0947 48.5278 33.6432 48.5278 33.0889V31.0744C48.5278 29.4088 49.8824 28.0541 51.5481 28.0541C53.2137 28.0541 54.5684 29.4088 54.5684 31.0744V33.0889C54.5656 33.6432 54.114 34.0947 53.5597 34.0947ZM50.5394 32.0803H52.5539V31.0744C52.5539 30.5201 52.1023 30.0686 51.5481 30.0686C50.9938 30.0686 50.5422 30.5201 50.5422 31.0744L50.5394 32.0803Z" fill="white"/>
<path d="M44.7908 48.0609C44.5339 48.0609 44.2744 47.9635 44.0797 47.7661L42.6547 46.3411C42.2627 45.9491 42.2627 45.3109 42.6547 44.9162C43.0468 44.5241 43.6849 44.5241 44.0797 44.9162L44.7908 45.6273L46.9269 43.4912C47.3189 43.0991 47.9571 43.0991 48.3518 43.4912C48.7439 43.8833 48.7439 44.5214 48.3518 44.9162L45.5046 47.7661C45.3072 47.9635 45.0503 48.0609 44.7908 48.0609Z" fill="white"/>
<path d="M44.7908 54.2284C44.5339 54.2284 44.2744 54.1311 44.0797 53.9337L42.6547 52.5087C42.2627 52.1167 42.2627 51.4785 42.6547 51.0838C43.0468 50.6917 43.6849 50.6917 44.0797 51.0838L44.7908 51.7949L46.9269 49.6588C47.3189 49.2667 47.9571 49.2667 48.3518 49.6588C48.7439 50.0509 48.7439 50.689 48.3518 51.0838L45.5046 53.9337C45.3072 54.1284 45.0503 54.2284 44.7908 54.2284Z" fill="white"/>
<path d="M44.7908 60.2691C44.5339 60.2691 44.2744 60.1718 44.0797 59.9744L42.6547 58.5494C42.2627 58.1573 42.2627 57.5192 42.6547 57.1244C43.0468 56.7324 43.6849 56.7324 44.0797 57.1244L44.7908 57.8355L46.9269 55.6995C47.3189 55.3074 47.9571 55.3074 48.3518 55.6995C48.7439 56.0915 48.7439 56.7297 48.3518 57.1244L45.5046 59.9744C45.3072 60.1718 45.0503 60.2691 44.7908 60.2691Z" fill="white"/>
<path d="M44.7908 66.4367C44.5339 66.4367 44.2744 66.3394 44.0797 66.142L42.6547 64.717C42.2627 64.3249 42.2627 63.6868 42.6547 63.292C43.0468 62.9 43.6849 62.9 44.0797 63.292L44.7908 64.0031L46.9269 61.8671C47.3189 61.475 47.9571 61.475 48.3518 61.8671C48.7439 62.2591 48.7439 62.8973 48.3518 63.292L45.5046 66.142C45.3072 66.3367 45.0503 66.4367 44.7908 66.4367Z" fill="white"/>
<path d="M59.5996 46.1765H51.5444C50.9874 46.1765 50.5386 45.725 50.5386 45.1707C50.5386 44.6137 50.9901 44.1648 51.5444 44.1648H59.5996C60.1566 44.1648 60.6054 44.6164 60.6054 45.1707C60.6054 45.725 60.1539 46.1765 59.5996 46.1765Z" fill="white"/>
<path d="M59.5996 52.2167H51.5444C50.9874 52.2167 50.5386 51.7652 50.5386 51.2109C50.5386 50.6539 50.9901 50.2051 51.5444 50.2051H59.5996C60.1566 50.2051 60.6054 50.6566 60.6054 51.2109C60.6054 51.7679 60.1539 52.2167 59.5996 52.2167Z" fill="white"/>
<path d="M59.5996 58.2603H51.5444C50.9874 58.2603 50.5386 57.8088 50.5386 57.2545C50.5386 56.6975 50.9901 56.2486 51.5444 56.2486H59.5996C60.1566 56.2486 60.6054 56.7002 60.6054 57.2545C60.6054 57.8088 60.1539 58.2603 59.5996 58.2603Z" fill="white"/>
<path d="M59.5996 64.301H51.5444C50.9874 64.301 50.5386 63.8494 50.5386 63.2952C50.5386 62.7381 50.9901 62.2893 51.5444 62.2893H59.5996C60.1566 62.2893 60.6054 62.7409 60.6054 63.2952C60.6054 63.8494 60.1539 64.301 59.5996 64.301Z" fill="white"/>
</g>
</svg>