<svg width="68" height="80" viewBox="0 0 68 80" fill="none" xmlns="http://www.w3.org/2000/svg">
<g clip-path="url(#clip0_742_1290)">
<path d="M17.1928 51.332C16.1511 51.332 15.3427 52.1736 15.3427 53.192C15.3427 54.2124 16.1729 55.0426 17.1928 55.0426C18.2159 55.0426 19.0326 54.2383 19.0517 53.2116C19.0664 52.2281 18.2661 51.332 17.1928 51.332Z" fill="#699FFF"/>
<path d="M56.1716 51.332C55.1302 51.332 54.3209 52.1724 54.3209 53.192C54.3209 54.2124 55.1511 55.0426 56.1716 55.0426C57.1951 55.0426 58.0108 54.2383 58.0305 53.2106C58.0452 52.2218 57.2428 51.332 56.1716 51.332Z" fill="#699FFF"/>
<path d="M64.7276 23.794C64.6252 23.304 64.1931 22.9525 63.6916 22.9525H45.6536C45.0685 22.9525 44.5949 23.426 44.5949 24.0111V44.638H7.5729C7.04395 44.638 6.62471 45.0323 6.54594 45.5395H4.22573C3.64107 45.5395 3.16704 46.013 3.16704 46.5982V47.0035H1.5604C0.975741 47.0035 0.501709 47.477 0.501709 48.0622V51.4988C0.501709 52.084 0.975741 52.5575 1.5604 52.5575H6.54575C6.62406 53.0652 7.04362 53.46 7.5729 53.46H11.3477C11.4076 54.7768 11.8975 55.9827 12.6889 56.9339H2.90806C2.3234 56.9339 1.84937 57.4074 1.84937 57.9926C1.84937 58.5777 2.3234 59.0512 2.90806 59.0512H66.4294C67.0145 59.0512 67.488 58.5777 67.488 57.9926C67.488 57.4074 67.0145 56.9339 66.4294 56.9339H60.6796C61.4709 55.9827 61.9609 54.7768 62.0208 53.46H66.6982C67.2833 53.46 67.7568 52.9865 67.7568 52.4014V38.351C67.7568 38.2776 67.7496 38.2052 67.7341 38.1339L64.7276 23.794ZM2.61909 49.1209H4.22573C4.81039 49.1209 5.28442 48.6474 5.28442 48.0622V47.6569H6.51421V50.4401H2.61909V49.1209ZM13.4515 53.1923C13.4515 51.1511 15.0793 49.4414 17.1931 49.4414C19.3064 49.4414 20.9347 51.1641 20.9347 53.1923C20.9347 55.2559 19.2562 56.9339 17.1931 56.9339C15.13 56.9339 13.4515 55.2559 13.4515 53.1923ZM50.33 53.46C50.3899 54.7768 50.8798 55.9827 51.6712 56.9339H21.6973C22.4887 55.9827 22.9786 54.7768 23.0385 53.46H50.33ZM52.4338 53.1923C52.4338 51.1515 54.0621 49.4414 56.1754 49.4414C58.2912 49.4414 59.917 51.1667 59.917 53.1923C59.917 55.2559 58.239 56.9339 56.1754 56.9339C54.1118 56.9339 52.4338 55.2559 52.4338 53.1923ZM65.6395 51.3427H61.7356C60.9847 49.0325 58.732 47.324 56.1754 47.324C53.5877 47.324 51.3626 49.0541 50.6162 51.3427H22.7528C22.0099 49.0664 19.7721 47.324 17.1931 47.324C14.6313 47.324 12.379 49.0421 11.6334 51.3427H8.63159V46.7554H45.6536C46.2388 46.7554 46.7123 46.2818 46.7123 45.6967V25.0698H62.8315L65.6395 38.4606V51.3427Z" fill="#699FFF"/>
<path d="M60.9584 26.3767H49.2539C48.6687 26.3767 48.1952 26.8503 48.1952 27.4354V37.4899C48.1952 38.075 48.6687 38.5486 49.2539 38.5486H62.8421C62.8504 38.5496 62.8576 38.5496 62.8628 38.5486C63.448 38.5486 63.9215 38.075 63.9215 37.4899C63.9215 37.3493 63.8946 37.2149 63.845 37.0918L61.9985 27.24C61.9054 26.7396 61.4681 26.3767 60.9584 26.3767ZM50.3126 36.4312V28.4941H60.0796L61.5663 36.4312H50.3126Z" fill="#699FFF"/>
<path d="M53.7709 40.6295H49.2539C48.6687 40.6295 48.1952 41.103 48.1952 41.6882C48.1952 42.2734 48.6687 42.7469 49.2539 42.7469H53.7709C54.3561 42.7469 54.8296 42.2734 54.8296 41.6882C54.8296 41.103 54.3561 40.6295 53.7709 40.6295Z" fill="#699FFF"/>
<path d="M41.645 42.7473C42.2302 42.7473 42.7037 42.2738 42.7037 41.6886V15.9947C42.7037 15.4096 42.2302 14.936 41.645 14.936H1.05869C0.474032 14.936 0 15.4096 0 15.9947V41.6886C0 42.2738 0.474032 42.7473 1.05869 42.7473H41.645ZM2.11738 17.0534H40.5863V40.6299H2.11738V17.0534Z" fill="#699FFF"/>
<path d="M8.07389 19.4775C7.48923 19.4775 7.0152 19.951 7.0152 20.5362V37.1465C7.0152 37.7316 7.48923 38.2052 8.07389 38.2052C8.65854 38.2052 9.13258 37.7316 9.13258 37.1465V20.5362C9.13258 19.951 8.65854 19.4775 8.07389 19.4775Z" fill="#699FFF"/>
<path d="M14.7126 19.4775C14.1279 19.4775 13.6539 19.951 13.6539 20.5362V37.1465C13.6539 37.7316 14.1279 38.2052 14.7126 38.2052C15.2972 38.2052 15.7713 37.7316 15.7713 37.1465V20.5362C15.7713 19.951 15.2972 19.4775 14.7126 19.4775Z" fill="#699FFF"/>
<path d="M21.352 19.4775C20.7673 19.4775 20.2933 19.951 20.2933 20.5362V37.1465C20.2933 37.7316 20.7673 38.2052 21.352 38.2052C21.9366 38.2052 22.4106 37.7316 22.4106 37.1465V20.5362C22.4106 19.951 21.9366 19.4775 21.352 19.4775Z" fill="#699FFF"/>
<path d="M27.9907 19.4775C27.406 19.4775 26.932 19.951 26.932 20.5362V37.1465C26.932 37.7316 27.406 38.2052 27.9907 38.2052C28.5753 38.2052 29.0494 37.7316 29.0494 37.1465V20.5362C29.0494 19.951 28.5753 19.4775 27.9907 19.4775Z" fill="#699FFF"/>
<path d="M34.6301 19.4775C34.0454 19.4775 33.5714 19.951 33.5714 20.5362V37.1465C33.5714 37.7316 34.0454 38.2052 34.6301 38.2052C35.2147 38.2052 35.6887 37.7316 35.6887 37.1465V20.5362C35.6887 19.951 35.2147 19.4775 34.6301 19.4775Z" fill="#699FFF"/>
<path d="M66.4294 64.0818H2.90812C2.32346 64.0818 1.84943 64.5554 1.84943 65.1405C1.84943 65.7257 2.32346 66.1992 2.90812 66.1992H66.4294C67.0146 66.1992 67.4881 65.7257 67.4881 65.1405C67.4881 64.5554 67.0146 64.0818 66.4294 64.0818Z" fill="#699FFF"/>
<path d="M40.7488 62.4945C41.3335 62.4945 41.8075 62.021 41.8075 61.4358C41.8075 60.8506 41.3335 60.3771 40.7488 60.3771H28.5889C28.0043 60.3771 27.5302 60.8506 27.5302 61.4358C27.5302 62.021 28.0043 62.4945 28.5889 62.4945H40.7488Z" fill="#699FFF"/>
<path d="M2.90812 62.4945H14.0094C14.594 62.4945 15.068 62.021 15.068 61.4358C15.068 60.8506 14.594 60.3771 14.0094 60.3771H2.90812C2.32346 60.3771 1.84943 60.8506 1.84943 61.4358C1.84943 62.021 2.32346 62.4945 2.90812 62.4945Z" fill="#699FFF"/>
<path d="M66.429 60.3771H55.3283C54.7431 60.3771 54.2696 60.8506 54.2696 61.4358C54.2696 62.021 54.7431 62.4945 55.3283 62.4945H66.429C67.0142 62.4945 67.4877 62.021 67.4877 61.4358C67.4877 60.8506 67.0142 60.3771 66.429 60.3771Z" fill="#699FFF"/>
</g>
</svg>