<svg width="72" height="80" viewBox="0 0 72 80" fill="none" xmlns="http://www.w3.org/2000/svg">
<g clip-path="url(#clip0_742_1288)">
<path d="M13.2536 40.0451V62.8744C13.2536 63.7262 12.5633 64.4199 11.7081 64.4199C10.8563 64.4199 10.1626 63.7296 10.1626 62.8744L10.166 40.0451C10.166 39.1933 10.8564 38.4996 11.7115 38.4996C12.5633 38.503 13.2536 39.1933 13.2536 40.0451ZM18.2062 38.503C17.3544 38.503 16.6607 39.1933 16.6607 40.0485V62.8778C16.6607 63.7296 17.351 64.4234 18.2062 64.4234C19.0579 64.4234 19.7517 63.733 19.7517 62.8778V40.045C19.7517 39.1932 19.0613 38.503 18.2062 38.503ZM24.7042 38.503C23.8525 38.503 23.1587 39.1933 23.1587 40.0485V62.8778C23.1587 63.7296 23.8491 64.4234 24.7042 64.4234C25.556 64.4234 26.2498 63.733 26.2498 62.8778L26.2463 40.045C26.2498 39.1932 25.556 38.503 24.7042 38.503ZM31.2023 38.503C30.3506 38.503 29.6568 39.1933 29.6568 40.0485V62.8778C29.6568 63.7296 30.3471 64.4234 31.2023 64.4234C32.0541 64.4234 32.7478 63.733 32.7478 62.8778L32.7444 40.045C32.7444 39.1932 32.0541 38.503 31.2023 38.503ZM37.7004 38.503C36.8486 38.503 36.1549 39.1933 36.1549 40.0485V62.8778C36.1549 63.7296 36.8452 64.4234 37.7004 64.4234C38.5522 64.4234 39.2459 63.733 39.2459 62.8778L39.2425 40.045C39.2425 39.1932 38.5521 38.503 37.7004 38.503ZM44.1985 51.2282C45.0502 51.2282 45.744 50.5378 45.744 49.6826V40.0453C45.744 39.1936 45.0536 38.4998 44.1985 38.4998C43.3467 38.4998 42.6529 39.1902 42.6529 40.0453V49.6826C42.6564 50.5378 43.3467 51.2282 44.1985 51.2282ZM50.6965 48.1027C51.5483 48.1027 52.2421 47.4124 52.2421 46.5572V40.0454C52.2421 39.1937 51.5517 38.4999 50.6965 38.4999C49.8448 38.4999 49.151 39.1902 49.151 40.0454V46.5572C49.151 47.409 49.8448 48.1027 50.6965 48.1027ZM71.5643 54.2505V63.6267C71.5643 63.6782 71.5609 63.7297 71.5574 63.7812C70.8431 70.9182 66.2099 76.0835 57.7921 79.1441C57.6204 79.2025 57.4418 79.2334 57.2632 79.2334C57.0846 79.2334 56.906 79.2025 56.7377 79.1407C51.7577 77.3341 48.1034 74.7892 45.7992 71.5298H1.54552C0.69376 71.5298 0 70.8395 0 69.9843V62.2292C0 61.6762 0.29537 61.168 0.772768 60.8932L3.59933 59.2618V43.6589L0.776197 42.0309C0.298799 41.7561 0.00342864 41.2444 0.00342864 40.6915V32.9363C0.00342864 32.0846 0.693769 31.3908 1.54895 31.3908H18.4162L25.3539 24.4531C24.6429 23.3609 24.2308 22.0592 24.2308 20.6614C24.2308 16.9075 26.3534 15.5749 27.9023 14.603C28.9189 13.9642 29.6334 13.5142 29.9184 12.5045H25.3677C24.8525 12.5045 24.3751 12.2504 24.0866 11.8245L21.0677 7.35277C20.896 7.09862 20.8032 6.79638 20.8032 6.49071L20.7998 1.64806C20.7998 0.796299 21.4901 0.102539 22.3453 0.102539H40.0637C40.9154 0.102539 41.6092 0.792879 41.6092 1.64806V6.49757C41.6092 6.80667 41.5165 7.10548 41.3447 7.35963L38.3292 11.8313C38.0442 12.2572 37.5633 12.5114 37.0482 12.5114H33.0607C32.6657 15.259 30.8832 16.3786 29.5403 17.2235C28.1528 18.0959 27.3148 18.6213 27.3148 20.665C27.3148 21.2042 27.4247 21.7159 27.6239 22.183L30.1105 19.6965C30.3989 19.408 30.7939 19.2431 31.2026 19.2431C31.6113 19.2431 32.0063 19.4045 32.2948 19.6965L34.7814 22.183C34.9806 21.7159 35.0905 21.2042 35.0905 20.665C35.0905 19.8132 35.7808 19.1194 36.636 19.1194C37.4878 19.1194 38.1815 19.8098 38.1815 20.665C38.1815 22.0628 37.7659 23.3645 37.0585 24.4567L43.9962 31.3943H60.8669C61.7187 31.3943 62.4125 32.0847 62.4125 32.9399V40.695C62.4125 41.2479 62.1171 41.7562 61.6397 42.0344L58.8165 43.6624L58.8062 47.3167L70.6724 52.8497C71.2185 53.1038 71.5653 53.6499 71.5653 54.251L71.5643 54.2505ZM26.1808 9.42361H36.2235L38.5143 6.02343V3.18992H23.8865V6.02343L26.1808 9.42361ZM29.8592 24.3187C30.2782 24.4733 30.7281 24.5591 31.2021 24.5591C31.6726 24.5591 32.126 24.4733 32.5449 24.3187L31.2021 22.9759L29.8592 24.3187ZM22.7807 31.3973H39.6198L34.8424 26.6199C33.7811 27.2724 32.5344 27.6502 31.2018 27.6502C29.8692 27.6502 28.6225 27.2724 27.5612 26.6199L22.7807 31.3973ZM44.1091 68.4421C43.5184 66.9962 43.1371 65.4403 42.9689 63.778C42.962 63.7265 42.962 63.675 42.962 63.6234V54.2508C42.962 53.6498 43.3089 53.1037 43.8549 52.8495L55.7211 47.3165V42.7657C55.7211 42.2127 56.0165 41.7045 56.4939 41.4263L59.317 39.7983V34.4816H3.0908V39.7983L5.91394 41.4263C6.39133 41.701 6.6867 42.2128 6.6867 42.7657V60.1543C6.6867 60.7073 6.39133 61.2156 5.91394 61.4903L3.08737 63.1218V68.4418L44.1091 68.4421ZM68.4771 55.2333L57.2634 50.0026L46.0496 55.2333V63.5448C46.6541 69.3011 50.3256 73.3914 57.2634 76.0396C64.2011 73.3882 67.8722 69.2977 68.4771 63.5448V55.2333ZM52.2975 61.6662C51.772 60.9964 50.8 60.8762 50.1303 61.4017C49.4606 61.9272 49.3404 62.8991 49.8659 63.5688L53.7572 68.5317C54.0422 68.8957 54.4784 69.1121 54.9387 69.1224H54.9696C55.4195 69.1224 55.8523 68.9232 56.1442 68.5798L64.6171 58.6576C65.1701 58.0085 65.0945 57.033 64.4454 56.4801C63.7963 55.9271 62.8208 56.0027 62.2679 56.6518L55.021 65.1385L52.2975 61.6662Z" fill="white"/>
</g>
</svg>