<svg width="74" height="80" viewBox="0 0 74 80" fill="none" xmlns="http://www.w3.org/2000/svg">
<g clip-path="url(#clip0_742_1289)">
<path d="M55.0164 21.1613C54.5594 21.8046 53.9109 22.2873 53.1635 22.5406H50.997C50.997 22.5406 49.6078 21.7978 49.1513 21.1558C48.6947 20.5137 48.4495 19.7455 48.4495 18.9577C48.4495 18.1698 48.6947 17.4016 49.1513 16.7595C49.6078 16.1175 50.2529 15.6335 50.997 15.3748V13.8875H50.3109C50.0699 13.8874 49.8358 13.8071 49.6455 13.6593C49.4551 13.5115 49.3194 13.3045 49.2597 13.071L46.7192 7.28329C46.6783 7.12311 46.6745 6.9557 46.7082 6.79385C46.7419 6.63199 46.8122 6.47999 46.9136 6.34943C47.015 6.21888 47.1449 6.11324 47.2934 6.04057C47.4419 5.96791 47.6051 5.93015 47.7704 5.93018H56.4738C56.6391 5.93027 56.8021 5.96811 56.9505 6.04083C57.0989 6.11354 57.2287 6.2192 57.3301 6.34973C57.4314 6.48027 57.5016 6.63224 57.5352 6.79403C57.5689 6.95583 57.5652 7.12317 57.5243 7.28329L54.9008 13.071C54.8412 13.3046 54.7055 13.5116 54.5151 13.6594C54.3248 13.8073 54.0906 13.8875 53.8496 13.8875H53.1635V16.1028C53.1635 16.134 53.1543 16.1638 53.1589 16.1942C53.1635 16.2247 53.1635 16.2552 53.1635 16.2857C53.1635 16.4282 53.1354 16.5692 53.0809 16.7009C53.0264 16.8325 52.9465 16.952 52.8458 17.0528C52.745 17.1535 52.6255 17.2334 52.4938 17.2879C52.3622 17.3424 52.2212 17.3705 52.0787 17.3705C51.794 17.3706 51.5154 17.4536 51.2771 17.6094C51.0387 17.7652 50.8509 17.9871 50.7366 18.2479C50.6222 18.5086 50.5863 18.7971 50.6332 19.0779C50.6802 19.3588 50.8079 19.6199 51.0007 19.8294C51.1936 20.0389 51.4433 20.1877 51.7194 20.2575C51.9954 20.3274 52.2858 20.3154 52.5551 20.223C52.8245 20.1305 53.061 19.9616 53.2359 19.7369C53.4108 19.5122 53.5165 19.2414 53.5401 18.9577C53.5362 18.8128 53.5615 18.6687 53.6142 18.5338C53.667 18.3989 53.7463 18.2759 53.8473 18.1721C53.9484 18.0683 54.0692 17.9858 54.2027 17.9295C54.3362 17.8731 54.4796 17.8441 54.6245 17.8441C54.7694 17.8441 54.9128 17.8731 55.0462 17.9295C55.1797 17.9858 55.3006 18.0683 55.4016 18.1721C55.5027 18.2759 55.582 18.3989 55.6347 18.5338C55.6875 18.6687 55.7127 18.8128 55.7089 18.9577C55.7158 19.7468 55.4735 20.518 55.0164 21.1613Z" fill="#699FFF"/>
<path d="M51.0758 67.0181C52.124 67.0181 52.9374 67.8649 52.9374 68.8896C52.9374 69.9164 52.102 70.7518 51.0758 70.7518C50.0464 70.7518 49.2246 69.9424 49.2053 68.9094C49.1906 67.9198 49.9959 67.0181 51.0758 67.0181Z" fill="#699FFF"/>
<path d="M11.8552 67.0181C12.903 67.0181 13.7173 67.8637 13.7173 68.8896C13.7173 69.9164 12.8819 70.7518 11.8552 70.7518C10.8253 70.7518 10.0045 69.9424 9.9847 68.9084C9.96984 67.9134 10.7773 67.0181 11.8552 67.0181Z" fill="#699FFF"/>
<path d="M3.24608 39.309C3.34907 38.8159 3.78391 38.4622 4.28846 38.4622H22.4386C23.0274 38.4622 23.5038 38.9386 23.5038 39.5274V60.2825H60.756C61.2882 60.2825 61.71 60.6793 61.7893 61.1896H64.1239C64.7122 61.1896 65.1892 61.666 65.1892 62.2549V62.6627H66.8058C67.3941 62.6627 67.8711 63.1391 67.8711 63.7279V67.1859C67.8711 67.7747 67.3941 68.2512 66.8058 68.2512H61.7895C61.7107 68.762 61.2885 69.1593 60.756 69.1593H56.9577C56.8974 70.4842 56.4044 71.6977 55.6082 72.6547H65.4498C66.0381 72.6547 66.5151 73.1312 66.5151 73.72C66.5151 74.3088 66.0381 74.7853 65.4498 74.7853H1.53374C0.944931 74.7853 0.468475 74.3088 0.468475 73.72C0.468475 73.1312 0.944931 72.6547 1.53374 72.6547H7.31924C6.52296 71.6977 6.02998 70.4842 5.96971 69.1593H1.26326C0.674454 69.1593 0.197998 68.6829 0.197998 68.0941V53.9564C0.197998 53.8825 0.205276 53.8097 0.220879 53.7379L3.24608 39.309ZM65.7406 64.7932H64.1239C63.5356 64.7932 63.0587 64.3167 63.0587 63.7279V63.3201H61.8212V66.1206H65.7406V64.7932ZM54.8408 68.8899C54.8408 66.836 53.2029 65.1157 51.076 65.1157C48.9496 65.1157 47.3111 66.8491 47.3111 68.8899C47.3111 70.9663 49 72.6547 51.076 72.6547C53.1519 72.6547 54.8408 70.9663 54.8408 68.8899ZM17.7332 69.1593C17.6729 70.4842 17.1799 71.6977 16.3836 72.6547H46.5438C45.7475 71.6977 45.2545 70.4842 45.1942 69.1593H17.7332ZM15.6163 68.8899C15.6163 66.8365 13.9779 65.1157 11.8514 65.1157C9.72246 65.1157 8.08659 66.8517 8.08659 68.8899C8.08659 70.9663 9.775 72.6547 11.8514 72.6547C13.9279 72.6547 15.6163 70.9663 15.6163 68.8899ZM2.32853 67.0288H6.25671C7.01219 64.7042 9.27892 62.9851 11.8514 62.9851C14.4552 62.9851 16.6941 64.726 17.4451 67.0288H45.4818C46.2293 64.7384 48.4809 62.9851 51.076 62.9851C53.6537 62.9851 55.92 64.714 56.6702 67.0288H59.6907V62.413H22.4386C21.8498 62.413 21.3733 61.9365 21.3733 61.3477V40.5927H5.15398L2.32853 54.0667V67.0288Z" fill="#699FFF"/>
<path d="M7.03869 41.9073H18.816C19.4048 41.9073 19.8812 42.3837 19.8812 42.9725V53.0895C19.8812 53.6783 19.4048 54.1547 18.816 54.1547H5.14326C5.13494 54.1558 5.12766 54.1558 5.12246 54.1547C4.53365 54.1547 4.05719 53.6783 4.05719 53.0895C4.05719 52.948 4.08424 52.8127 4.13417 52.689L5.99215 42.7759C6.08578 42.2724 6.52582 41.9073 7.03869 41.9073ZM17.7507 52.0242V44.0378H7.92295L6.42699 52.0242H17.7507Z" fill="#699FFF"/>
<path d="M14.2709 56.2492H18.816C19.4048 56.2492 19.8812 56.7257 19.8812 57.3145C19.8812 57.9033 19.4048 58.3797 18.816 58.3797H14.2709C13.6821 58.3797 13.2056 57.9033 13.2056 57.3145C13.2056 56.7257 13.6821 56.2492 14.2709 56.2492Z" fill="#699FFF"/>
<path d="M31.4819 54.1469C30.8931 54.1469 30.4167 53.6704 30.4167 53.0816V27.228C30.4167 26.6392 30.8931 26.1628 31.4819 26.1628H72.3205C72.9088 26.1628 73.3858 26.6392 73.3858 27.228V53.0816C73.3858 53.6704 72.9088 54.1469 72.3205 54.1469H31.4819ZM71.2552 28.2933H32.5472V52.0163H71.2552V28.2933Z" fill="#699FFF"/>
<path d="M65.2625 30.7325C65.8508 30.7325 66.3277 31.209 66.3277 31.7978V48.5113C66.3277 49.1001 65.8508 49.5765 65.2625 49.5765C64.6742 49.5765 64.1972 49.1001 64.1972 48.5113V31.7978C64.1972 31.209 64.6742 30.7325 65.2625 30.7325Z" fill="#699FFF"/>
<path d="M58.5819 30.7325C59.1701 30.7325 59.6471 31.209 59.6471 31.7978V48.5113C59.6471 49.1001 59.1701 49.5765 58.5819 49.5765C57.9936 49.5765 57.5166 49.1001 57.5166 48.5113V31.7978C57.5166 31.209 57.9936 30.7325 58.5819 30.7325Z" fill="#699FFF"/>
<path d="M51.9019 30.7325C52.4902 30.7325 52.9672 31.209 52.9672 31.7978V48.5113C52.9672 49.1001 52.4902 49.5765 51.9019 49.5765C51.3136 49.5765 50.8366 49.1001 50.8366 48.5113V31.7978C50.8366 31.209 51.3136 30.7325 51.9019 30.7325Z" fill="#699FFF"/>
<path d="M45.2213 30.7325C45.8096 30.7325 46.2865 31.209 46.2865 31.7978V48.5113C46.2865 49.1001 45.8096 49.5765 45.2213 49.5765C44.633 49.5765 44.156 49.1001 44.156 48.5113V31.7978C44.156 31.209 44.633 30.7325 45.2213 30.7325Z" fill="#699FFF"/>
<path d="M38.5413 30.7325C39.1296 30.7325 39.6066 31.209 39.6066 31.7978V48.5113C39.6066 49.1001 39.1296 49.5765 38.5413 49.5765C37.953 49.5765 37.4761 49.1001 37.4761 48.5113V31.7978C37.4761 31.209 37.953 30.7325 38.5413 30.7325Z" fill="#699FFF"/>
<path fill-rule="evenodd" clip-rule="evenodd" d="M52.0122 20.6162L37.3659 26.7184C36.9586 26.8881 36.766 27.3559 36.9357 27.7632C37.1054 28.1705 37.5731 28.3631 37.9805 28.1934L52.0399 22.3357L67.5095 28.2029C67.922 28.3594 68.3833 28.1518 68.5398 27.7392C68.6963 27.3267 68.4887 26.8654 68.0761 26.7089L52.0122 20.6162Z" fill="#699FFF"/>
</g>
</svg>