<svg width="61" height="80" viewBox="0 0 61 80" fill="none" xmlns="http://www.w3.org/2000/svg">
<g clip-path="url(#clip0_742_1287)">
<path d="M43.1826 21.2935C45.1826 21.2935 46.9863 20.0881 47.7506 18.2391C48.5149 16.3901 48.089 14.2632 46.6721 12.8523C45.2582 11.4384 43.1282 11.0184 41.2822 11.7888C39.4363 12.5562 38.2338 14.3629 38.2398 16.363C38.2459 19.0881 40.4575 21.2935 43.1826 21.2935ZM43.1826 13.8371C44.2038 13.8371 45.1252 14.4535 45.515 15.3961C45.9077 16.3388 45.6902 17.4264 44.9681 18.1484C44.2461 18.8705 43.1584 19.088 42.2158 18.6953C41.2731 18.3055 40.6569 17.3841 40.6569 16.3629C40.6629 14.9701 41.7898 13.8432 43.1826 13.8371Z" fill="white"/>
<path d="M30.6148 48.9088H26.4818C25.8141 48.9088 25.2733 49.4496 25.2733 50.1173C25.2733 50.785 25.8141 51.3258 26.4818 51.3258H29.4063V54.4921C29.4063 55.1597 29.9471 55.7006 30.6148 55.7006C31.2825 55.7006 31.8233 55.1597 31.8233 54.4921V50.1174C31.8233 49.7971 31.6964 49.489 31.4698 49.2623C31.2432 49.0358 30.9351 48.9088 30.6148 48.9088Z" fill="white"/>
<path d="M58.9896 20.907H53.3096C53.8051 19.4508 54.1072 17.9341 54.216 16.3994C54.3157 13.4114 53.1979 10.511 51.1193 8.36265C49.0407 6.21429 46.1796 5 43.1885 5C40.1975 5 37.3364 6.21452 35.2577 8.36265C33.1791 10.5108 32.0613 13.4111 32.161 16.3994C32.2637 17.9342 32.5628 19.4508 33.0552 20.907H10.3233V14.3812C10.3233 14.0609 10.1964 13.7528 9.96981 13.5262C9.74322 13.2996 9.43505 13.1727 9.11478 13.1727C4.17812 13.1787 0.177777 17.1788 0.172363 22.1151V66.2131C0.205597 71.1316 4.19661 75.1014 9.11478 75.1076H58.9888C59.309 75.1076 59.6172 74.9807 59.8438 74.7541C60.0704 74.5275 60.1973 74.2193 60.1973 73.899V22.1155C60.1973 21.7952 60.0704 21.487 59.8438 21.2604C59.6172 21.0338 59.3098 20.907 58.9896 20.907ZM51.0742 41.9351H39.9685C39.3009 41.9351 38.7601 42.4759 38.7601 43.1436V47.9775C38.7601 48.6452 39.3009 49.186 39.9685 49.186C40.6362 49.186 41.177 48.6452 41.177 47.9775V44.3521H51.0746V51.8567H47.4492C46.7815 51.8567 46.2407 52.3975 46.2407 53.0652C46.2407 53.7329 46.7815 54.2737 47.4492 54.2737H51.0746V64.9811H38.7964V54.2737H42.3615C43.0292 54.2737 43.57 53.7329 43.57 53.0652C43.57 52.3975 43.0292 51.8567 42.3615 51.8567H37.5879C36.9202 51.8567 36.3794 52.3975 36.3794 53.0652V64.9807H31.8235V59.5788C31.8235 58.9111 31.2827 58.3703 30.615 58.3703C29.9473 58.3703 29.4065 58.9111 29.4065 59.5788V64.9324H17.1406V51.3246H21.3462C22.0139 51.3246 22.5547 50.7838 22.5547 50.1161C22.5547 49.4484 22.0139 48.9076 21.3462 48.9076H17.1406V44.3517H30.6154C30.9356 44.3517 31.2438 44.2248 31.4704 43.9982C31.697 43.7716 31.8239 43.4634 31.8239 43.1432V40.0011C31.8239 39.3334 31.2831 38.7926 30.6154 38.7926C29.9477 38.7926 29.4069 39.3334 29.4069 40.0011V41.9347H17.141V31.0587H29.4069V34.8654C29.4069 35.5331 29.9477 36.0739 30.6154 36.0739C31.2831 36.0739 31.8239 35.5331 31.8239 34.8654V31.0587H36.8632C37.8542 33.391 38.8935 35.7355 39.8844 37.9108C40.4736 39.2039 41.7636 40.0317 43.1836 40.0317C44.6035 40.0317 45.8936 39.2039 46.4827 37.9108C47.4736 35.7355 48.513 33.391 49.5039 31.0587H51.0749L51.0742 41.9351ZM43.1829 7.74708C47.9383 7.75312 51.7935 11.6082 51.7997 16.3639C51.6336 18.1555 51.2257 19.9138 50.5912 21.5966C49.8903 23.7115 48.8994 26.3097 47.6425 29.3189C46.6878 31.6029 45.6002 34.1528 44.3555 36.8235C44.1591 37.2556 43.7301 37.5305 43.2557 37.5305C42.7814 37.5305 42.3523 37.2556 42.156 36.8235C39.2797 30.5153 37.1528 25.3064 35.9081 21.5846C35.9111 21.5574 35.9111 21.5272 35.9081 21.5C35.2706 19.8232 34.8627 18.0679 34.6996 16.2794C34.7449 11.6055 38.5089 7.819 43.1829 7.74708ZM7.90748 15.6624V57.355C5.86515 57.639 3.98293 58.6148 2.57807 60.1224V22.1152C2.56598 18.9611 4.80772 16.2455 7.90748 15.6624ZM57.7815 72.7393H9.11558C5.51123 72.7393 2.58975 69.8178 2.58975 66.2135C2.58975 62.6091 5.51123 59.6877 9.11558 59.6877C9.43583 59.6877 9.74399 59.5608 9.97061 59.3342C10.1972 59.1076 10.3241 58.7994 10.3241 58.4791V23.3244H33.8047C34.3848 24.992 35.0132 26.8048 35.835 28.678H15.9315C15.2638 28.678 14.723 29.2188 14.723 29.8865V66.1898C14.723 66.51 14.8499 66.8182 15.0765 67.0448C15.3031 67.2714 15.6112 67.3983 15.9315 67.3983H52.2828C52.603 67.3983 52.9112 67.2714 53.1378 67.0448C53.3644 66.8182 53.4913 66.5101 53.4913 66.1898V29.8509C53.4913 29.5306 53.3644 29.2225 53.1378 28.9959C52.9112 28.7693 52.6031 28.6424 52.2828 28.6424H50.5063C51.2556 26.7692 51.9444 25.0169 52.5245 23.2888H57.7814L57.7815 72.7393Z" fill="white"/>
</g>
</svg>